<svg width="21" height="14" viewBox="0 0 21 14" fill="none" xmlns="http://www.w3.org/2000/svg">
<path id="Vector" fill-rule="evenodd" clip-rule="evenodd" d="M20.5386 0.431287C20.834 0.707209 21 1.08139 21 1.47154C21 1.8617 20.834 2.23588 20.5386 2.5118L8.72703 13.5402C8.57094 13.686 8.38562 13.8016 8.18165 13.8805C7.97769 13.9594 7.75908 14 7.53831 14C7.31753 14 7.09892 13.9594 6.89496 13.8805C6.691 13.8016 6.50568 13.686 6.34959 13.5402L0.481091 8.0618C0.33058 7.92607 0.210528 7.76371 0.127939 7.5842C0.0453498 7.40469 0.00187775 7.21161 5.9499e-05 7.01625C-0.00175875 6.82088 0.0381133 6.62713 0.117349 6.4463C0.196584 6.26548 0.313597 6.1012 0.461558 5.96305C0.60952 5.8249 0.785467 5.71564 0.979134 5.64166C1.1728 5.56768 1.38031 5.53045 1.58955 5.53215C1.79879 5.53385 2.00558 5.57444 2.19784 5.65155C2.3901 5.72866 2.56399 5.84075 2.70935 5.98128L7.53778 10.4896L18.3093 0.431287C18.4556 0.294558 18.6294 0.186093 18.8207 0.112091C19.0119 0.0380892 19.2169 0 19.424 0C19.631 0 19.836 0.0380892 20.0272 0.112091C20.2185 0.186093 20.3923 0.294558 20.5386 0.431287Z" fill="white"/>
</svg>
