<svg width="17" height="17" viewBox="0 0 17 17" fill="none" xmlns="http://www.w3.org/2000/svg">
<path fill-rule="evenodd" clip-rule="evenodd" d="M6.5104 0.101207C6.86873 -0.00628629 7.24723 -0.0285229 7.61568 0.0362717C7.98413 0.101066 8.33233 0.251098 8.63249 0.47439C8.93265 0.697683 9.17645 0.988053 9.34444 1.32232C9.51242 1.65659 9.59994 2.0255 9.6 2.39961V14.0988C9.59994 14.4729 9.51242 14.8418 9.34444 15.1761C9.17645 15.5104 8.93265 15.8007 8.63249 16.024C8.33233 16.2473 7.98413 16.3973 7.61568 16.4621C7.24723 16.5269 6.86873 16.5047 6.5104 16.3972L1.7104 14.9572C1.21608 14.8089 0.782728 14.5052 0.474625 14.0912C0.166523 13.6772 8.46313e-05 13.1749 0 12.6588V3.83961C8.46313e-05 3.32352 0.166523 2.82122 0.474625 2.40719C0.782728 1.99317 1.21608 1.68949 1.7104 1.54121L6.5104 0.101207ZM10.4 1.84921C10.4 1.63703 10.4843 1.43355 10.6343 1.28352C10.7843 1.13349 10.9878 1.04921 11.2 1.04921H13.6C14.2365 1.04921 14.847 1.30206 15.2971 1.75215C15.7471 2.20224 16 2.81269 16 3.44921V4.24921C16 4.46138 15.9157 4.66486 15.7657 4.81489C15.6157 4.96492 15.4122 5.04921 15.2 5.04921C14.9878 5.04921 14.7843 4.96492 14.6343 4.81489C14.4843 4.66486 14.4 4.46138 14.4 4.24921V3.44921C14.4 3.23703 14.3157 3.03355 14.1657 2.88352C14.0157 2.73349 13.8122 2.64921 13.6 2.64921H11.2C10.9878 2.64921 10.7843 2.56492 10.6343 2.41489C10.4843 2.26486 10.4 2.06138 10.4 1.84921ZM15.2 11.4492C15.4122 11.4492 15.6157 11.5335 15.7657 11.6835C15.9157 11.8335 16 12.037 16 12.2492V13.0492C16 13.6857 15.7471 14.2962 15.2971 14.7463C14.847 15.1963 14.2365 15.4492 13.6 15.4492H11.2C10.9878 15.4492 10.7843 15.3649 10.6343 15.2149C10.4843 15.0649 10.4 14.8614 10.4 14.6492C10.4 14.437 10.4843 14.2335 10.6343 14.0835C10.7843 13.9335 10.9878 13.8492 11.2 13.8492H13.6C13.8122 13.8492 14.0157 13.7649 14.1657 13.6149C14.3157 13.4649 14.4 13.2614 14.4 13.0492V12.2492C14.4 12.037 14.4843 11.8335 14.6343 11.6835C14.7843 11.5335 14.9878 11.4492 15.2 11.4492ZM5.6 7.44921C5.38783 7.44921 5.18434 7.53349 5.03431 7.68352C4.88429 7.83355 4.8 8.03703 4.8 8.24921C4.8 8.46138 4.88429 8.66486 5.03431 8.81489C5.18434 8.96492 5.38783 9.04921 5.6 9.04921H5.6008C5.81297 9.04921 6.01646 8.96492 6.16649 8.81489C6.31651 8.66486 6.4008 8.46138 6.4008 8.24921C6.4008 8.03703 6.31651 7.83355 6.16649 7.68352C6.01646 7.53349 5.81297 7.44921 5.6008 7.44921H5.6Z" fill="white"/>
<path d="M11.1997 8.24917H15.1997H11.1997ZM15.1997 8.24917L13.5997 6.64917L15.1997 8.24917ZM15.1997 8.24917L13.5997 9.84917L15.1997 8.24917Z" fill="white"/>
<path d="M11.1997 8.24917H15.1997M15.1997 8.24917L13.5997 6.64917M15.1997 8.24917L13.5997 9.84917" stroke="white" stroke-width="2" stroke-linecap="round" stroke-linejoin="round"/>
</svg>
