<svg width="1920" height="1017" viewBox="0 0 1920 1017" fill="none" xmlns="http://www.w3.org/2000/svg">
<path fill-rule="evenodd" clip-rule="evenodd" d="M127.936 1016.04V12.4141H128.898V1016.04H127.936ZM0.961935 1016.04V12.4141H1.10581e-05V1016.04H0.961935Z" fill="#292934"/>
<path fill-rule="evenodd" clip-rule="evenodd" d="M511.743 983.577V12.4141H512.705V983.577H511.743ZM384.77 983.577V12.4141H383.808V983.577H384.77Z" fill="#292934"/>
<path fill-rule="evenodd" clip-rule="evenodd" d="M895.551 983.577V12.4141H896.513V983.577H895.551ZM768.577 983.577V12.4141H767.615V983.577H768.577Z" fill="#292934"/>
<path fill-rule="evenodd" clip-rule="evenodd" d="M5.46583e-06 381.017L978.277 381.017V381.972L5.42378e-06 381.972L5.46583e-06 381.017ZM1.1016e-05 254.966L978.277 254.966V254.011L1.10581e-05 254.011L1.1016e-05 254.966Z" fill="#292934"/>
<path fill-rule="evenodd" clip-rule="evenodd" d="M1279.36 1016.04V12.4141H1280.32V1016.04H1279.36ZM1152.38 1016.04V12.4141H1151.42V1016.04H1152.38Z" fill="#292934"/>
<path fill-rule="evenodd" clip-rule="evenodd" d="M5.46583e-06 762.034L978.277 762.034V762.989L5.42378e-06 762.989L5.46583e-06 762.034ZM1.1016e-05 635.983L978.277 635.983V635.028L1.10581e-05 635.028L1.1016e-05 635.983Z" fill="#292934"/>
<path fill-rule="evenodd" clip-rule="evenodd" d="M1663.17 1016.04V12.4141H1664.13V1016.04H1663.17ZM1536.19 1016.04V12.4141H1535.23V1016.04H1536.19Z" fill="#292934"/>
<path fill-rule="evenodd" clip-rule="evenodd" d="M255.872 1016.04V12.4141H256.834V1016.04H255.872ZM128.898 1016.04V12.4141H127.936V1016.04H128.898Z" fill="#292934"/>
<path fill-rule="evenodd" clip-rule="evenodd" d="M639.679 1016.04V12.4141H640.641V1016.04H639.679ZM512.705 1016.04V12.4141H511.743V1016.04H512.705Z" fill="#292934"/>
<path fill-rule="evenodd" clip-rule="evenodd" d="M8.25225e-08 127.006L1920 127.006V127.961L0 127.961L8.25225e-08 127.006ZM1.09756e-05 0.954929L1920 0.954972V4.24509e-05L1.10581e-05 0L1.09756e-05 0.954929Z" fill="#292934"/>
<path fill-rule="evenodd" clip-rule="evenodd" d="M1023.49 1016.04V12.4141H1024.45V1016.04H1023.49ZM896.513 1016.04V12.4141H895.551V1016.04H896.513Z" fill="#292934"/>
<path fill-rule="evenodd" clip-rule="evenodd" d="M8.25225e-08 508.023H1920V508.977H0L8.25225e-08 508.023ZM5.42378e-06 381.972L1920 381.972V381.017L5.46583e-06 381.017L5.42378e-06 381.972Z" fill="#292934"/>
<path fill-rule="evenodd" clip-rule="evenodd" d="M1407.29 1016.04V12.4141H1408.26V1016.04H1407.29ZM1280.32 1016.04V12.4141H1279.36V1016.04H1280.32Z" fill="#292934"/>
<path fill-rule="evenodd" clip-rule="evenodd" d="M8.25225e-08 889.039H1920V889.994H0L8.25225e-08 889.039ZM5.42378e-06 762.989L1920 762.989V762.034L5.46583e-06 762.034L5.42378e-06 762.989Z" fill="#292934"/>
<path fill-rule="evenodd" clip-rule="evenodd" d="M1791.1 1016.04V12.4141H1792.06V1016.04H1791.1ZM1664.13 1016.04V12.4141H1663.17V1016.04H1664.13Z" fill="#292934"/>
<path fill-rule="evenodd" clip-rule="evenodd" d="M383.808 1016.04V12.4141H384.77V1016.04H383.808ZM256.834 1016.04V12.4141H255.872V1016.04H256.834Z" fill="#292934"/>
<path fill-rule="evenodd" clip-rule="evenodd" d="M767.615 1016.04V12.4141H768.577V1016.04H767.615ZM640.641 1016.04V12.4141H639.679V1016.04H640.641Z" fill="#292934"/>
<path fill-rule="evenodd" clip-rule="evenodd" d="M1.10581e-05 254.011L1920 254.011V254.966L1.1016e-05 254.966L1.10581e-05 254.011ZM0 127.961L1920 127.961V127.006L8.25225e-08 127.006L0 127.961Z" fill="#292934"/>
<path fill-rule="evenodd" clip-rule="evenodd" d="M1151.42 1016.04V12.4141H1152.38V1016.04H1151.42ZM1024.45 1016.04V12.4141H1023.49V1016.04H1024.45Z" fill="#292934"/>
<path fill-rule="evenodd" clip-rule="evenodd" d="M1.10581e-05 635.028L1920 635.028V635.983L1.1016e-05 635.983L1.10581e-05 635.028ZM0 508.977H1920V508.023H8.25225e-08L0 508.977Z" fill="#292934"/>
<path fill-rule="evenodd" clip-rule="evenodd" d="M1535.23 1016.04V12.4141H1536.19V1016.04H1535.23ZM1408.26 1016.04V12.4141H1407.29V1016.04H1408.26Z" fill="#292934"/>
<path fill-rule="evenodd" clip-rule="evenodd" d="M1.10581e-05 1016.04L1920 1016.05V1017L0 1017L1.10581e-05 1016.04ZM0 889.994H1920V889.039H8.25225e-08L0 889.994Z" fill="#292934"/>
<path fill-rule="evenodd" clip-rule="evenodd" d="M1919.04 1016.04V12.4141H1920V1016.05L1919.04 1016.04ZM1792.06 1016.04V12.4141H1791.1V1016.04H1792.06Z" fill="#292934"/>
</svg>
