<svg width="30" height="30" viewBox="0 0 30 30" fill="none" xmlns="http://www.w3.org/2000/svg">
<g id="Group 56">
<path id="Star 1" d="M15 0L17.1499 3.49922L20.4186 1.01292L21.1593 5.05246L25.1054 3.91487L24.3368 7.94917L28.4274 8.31392L26.2534 11.7981L29.936 13.616L26.6501 16.0795L29.4274 19.1049L25.4734 20.2151L26.9703 24.0395L22.8822 23.6464L22.8965 27.7533L19.2265 25.9099L17.7562 29.7446L15 26.7L12.2438 29.7446L10.7735 25.9099L7.10352 27.7533L7.11776 23.6464L3.02974 24.0395L4.52659 20.2151L0.572616 19.1049L3.34991 16.0795L0.0639877 13.616L3.74664 11.7981L1.57255 8.31392L5.6632 7.94917L4.89457 3.91487L8.84074 5.05246L9.58138 1.01292L12.8501 3.49922L15 0Z" fill="#5FBE84"/>
<path id="Vector" d="M21.9752 11.0209L21.9752 11.0208C21.7994 10.8469 21.5611 10.75 21.3142 10.75C21.067 10.75 20.8294 10.8471 20.6538 11.0208L20.6538 11.0209L13.5627 18.0389L10.3464 14.8562C10.2594 14.7701 10.1562 14.702 10.0429 14.6555C9.92956 14.6091 9.80819 14.5852 9.68568 14.5852C9.56317 14.5852 9.44179 14.6091 9.32847 14.6555C9.21514 14.702 9.11199 14.7701 9.02499 14.8562C8.93798 14.9423 8.86882 15.0447 8.82158 15.1575C8.77435 15.2704 8.75 15.3914 8.75 15.5137C8.75 15.636 8.77435 15.757 8.82158 15.8699C8.86882 15.9827 8.93798 16.0851 9.02499 16.1712L9.20083 15.9935L9.02499 16.1712L12.853 19.9591C12.9464 20.0515 13.057 20.1246 13.1787 20.1745C13.3003 20.2244 13.4306 20.25 13.5621 20.25C13.6936 20.25 13.8238 20.2244 13.9455 20.1745C14.0671 20.1246 14.1778 20.0515 14.2711 19.9591L21.9752 12.3351L21.9752 12.3351C22.1509 12.1612 22.25 11.9249 22.25 11.678C22.25 11.431 22.1509 11.1947 21.9752 11.0209Z" fill="white" stroke="white" stroke-width="0.5"/>
</g>
</svg>
