<svg width="388" height="71" viewBox="0 0 388 71" fill="none" xmlns="http://www.w3.org/2000/svg">
<g filter="url(#filter0_i_173_328)">
<path d="M42.56 11.736C42.56 14.3813 41.8347 16.7493 40.384 18.84C38.9333 20.888 36.9493 22.5947 34.432 23.96C36.0533 25.0693 37.3333 26.4347 38.272 28.056C39.2533 29.6347 39.744 31.384 39.744 33.304C39.744 35.608 39.04 37.8907 37.632 40.152C36.2667 42.3707 34.432 44.3547 32.128 46.104C29.824 47.8107 27.2 49.1973 24.256 50.264C21.312 51.3307 18.304 51.864 15.232 51.864C11.904 51.864 8.98133 51.224 6.464 49.944C3.98933 48.7067 2.048 46.936 0.64 44.632C1.06667 43.352 1.62133 41.7733 2.304 39.896C3.02933 37.976 3.81867 35.9707 4.672 33.88C5.52533 31.7467 6.37867 29.6347 7.232 27.544C8.128 25.4533 8.96 23.576 9.728 21.912C11.3493 18.2853 12.8 15.2773 14.08 12.888C15.36 10.4987 16.5333 8.6 17.6 7.192C15.2533 7.91733 13.12 8.74933 11.2 9.688C9.28 10.584 7.872 11.4587 6.976 12.312C6.592 12.056 6.18667 11.672 5.76 11.16C5.376 10.648 4.992 10.0933 4.608 9.496C4.26667 8.856 3.968 8.216 3.712 7.576C3.49867 6.936 3.37067 6.36 3.328 5.848C4.43733 5.08 5.86667 4.35467 7.616 3.672C9.408 2.94667 11.3493 2.328 13.44 1.816C15.5307 1.304 17.664 0.898664 19.84 0.599998C22.0587 0.301331 24.1707 0.151997 26.176 0.151997C31.296 0.151997 35.3067 1.176 38.208 3.224C41.1093 5.272 42.56 8.10933 42.56 11.736ZM18.176 27.032C17.3653 26.648 16.6187 26.072 15.936 25.304C14.9547 27.48 14.016 29.6133 13.12 31.704C12.2667 33.7947 11.4987 35.736 10.816 37.528C10.1333 39.32 9.57867 40.8773 9.152 42.2C8.72533 43.5227 8.49067 44.4827 8.448 45.08C9.04533 45.4213 9.74933 45.6773 10.56 45.848C11.4133 46.0187 12.4587 46.104 13.696 46.104C16.5973 46.104 19.3707 45.6987 22.016 44.888C24.6613 44.0773 26.9867 42.9893 28.992 41.624C30.9973 40.216 32.5973 38.616 33.792 36.824C34.9867 35.032 35.584 33.1547 35.584 31.192C35.584 28.376 34.368 26.3493 31.936 25.112C28.608 26.4773 24.8533 27.16 20.672 27.16C20.0747 27.16 19.6053 27.16 19.264 27.16C18.9653 27.16 18.6027 27.1173 18.176 27.032ZM30.592 4.824C29.696 4.824 28.736 4.888 27.712 5.016C26.7307 5.10133 25.6853 5.25066 24.576 5.464C24.7467 5.63466 24.8747 5.82666 24.96 6.04C25.088 6.21066 25.1947 6.40266 25.28 6.616C24.896 7.128 24.4267 7.87467 23.872 8.856C23.3173 9.83733 22.6987 10.9893 22.016 12.312C21.3333 13.592 20.608 15.0213 19.84 16.6C19.1147 18.1787 18.368 19.8 17.6 21.464C18.3253 21.2933 19.2 21.1653 20.224 21.08C21.2907 20.952 22.336 20.888 23.36 20.888C23.9147 20.888 24.448 20.9093 24.96 20.952C25.5147 20.9947 26.048 21.0587 26.56 21.144C28.608 20.8027 30.4427 20.312 32.064 19.672C33.728 18.9893 35.1573 18.2213 36.352 17.368C37.5467 16.472 38.464 15.4907 39.104 14.424C39.744 13.3573 40.064 12.2267 40.064 11.032C40.064 8.984 39.2533 7.448 37.632 6.424C36.0107 5.35733 33.664 4.824 30.592 4.824ZM56.176 38.104C57.2427 36.3547 57.8827 34.968 58.096 33.944C58.352 32.8773 58.416 32.0027 58.288 31.32C58.16 30.168 57.6267 29.7413 56.688 30.04C56.304 30.168 55.9413 30.3813 55.6 30.68C55.2587 30.9787 54.9173 31.2987 54.576 31.64C54.2347 31.9813 53.8933 32.3013 53.552 32.6C53.424 32.6853 53.3173 32.7707 53.232 32.856C53.1467 33.0693 53.0613 33.2613 52.976 33.432C52.7627 33.9013 52.5067 34.584 52.208 35.48C51.9093 36.376 51.6107 37.3147 51.312 38.296C51.0133 39.2773 50.7573 40.2373 50.544 41.176C50.3733 42.1147 50.288 42.8613 50.288 43.416C50.288 43.7573 50.3307 44.0133 50.416 44.184C50.544 44.3547 50.6507 44.4827 50.736 44.568C51.376 44.312 52.1867 43.608 53.168 42.456C54.1493 41.304 55.152 39.8533 56.176 38.104ZM54.704 29.528C55.0453 29.144 55.3867 28.7813 55.728 28.44C56.3253 27.8427 56.88 27.416 57.392 27.16C58.6293 27.032 59.5893 27.2667 60.272 27.864C60.9547 28.4613 61.3813 29.3787 61.552 30.616C61.552 30.744 61.5733 30.872 61.616 31C61.8293 30.616 62.0427 30.2533 62.256 29.912C62.768 28.9733 63.1947 28.0347 63.536 27.096C63.7067 26.584 63.92 25.9867 64.176 25.304C64.4747 24.5787 64.816 23.832 65.2 23.064C65.6267 22.296 66.096 21.528 66.608 20.76C67.1627 19.9493 67.8027 19.2027 68.528 18.52C69.0827 18.52 69.68 18.584 70.32 18.712C70.96 18.84 71.5573 19.0107 72.112 19.224C72.7093 19.3947 73.2213 19.608 73.648 19.864C74.0747 20.0773 74.3947 20.312 74.608 20.568C73.84 22.4453 72.9867 24.3013 72.048 26.136C71.1093 27.9707 70.2347 29.784 69.424 31.576C68.6133 33.3253 67.9307 35.0747 67.376 36.824C66.8213 38.5733 66.544 40.28 66.544 41.944C66.544 42.84 66.608 43.6293 66.736 44.312C66.9067 44.952 67.0773 45.5067 67.248 45.976C67.4187 46.4027 67.568 46.7653 67.696 47.064C67.8667 47.3627 67.952 47.6187 67.952 47.832C67.952 47.8747 67.9093 47.9387 67.824 48.024C67.7813 48.0667 67.7387 48.088 67.696 48.088C67.3973 48.088 67.0133 48.024 66.544 47.896C66.0747 47.768 65.5413 47.576 64.944 47.32C64.3893 47.1067 63.8133 46.8507 63.216 46.552C62.6613 46.2533 62.128 45.9333 61.616 45.592C60.8053 44.9093 60.2507 44.056 59.952 43.032C59.696 42.008 59.568 41.1333 59.568 40.408C59.568 39.512 59.6747 38.744 59.888 38.104C59.7173 38.104 59.3333 38.4453 58.736 39.128C58.1387 39.8107 57.4773 40.6213 56.752 41.56C56.0693 42.4987 55.3867 43.416 54.704 44.312C54.0213 45.208 53.5093 45.8693 53.168 46.296C52.6133 46.8933 52.08 47.3627 51.568 47.704C51.0987 48.0453 50.7147 48.2373 50.416 48.28C49.7333 48.2373 49.008 48.088 48.24 47.832C47.5147 47.6187 46.8107 47.2987 46.128 46.872C45.488 46.4453 44.912 45.9333 44.4 45.336C43.9307 44.7387 43.6107 44.056 43.44 43.288C43.44 42.0933 43.4613 41.112 43.504 40.344C43.5893 39.576 43.7387 38.744 43.952 37.848C44.336 36.2267 44.8907 34.392 45.616 32.344C46.384 30.296 47.2587 28.2907 48.24 26.328C49.2213 24.3227 50.3093 22.4667 51.504 20.76C52.7413 19.0107 54.0427 17.6453 55.408 16.664C55.792 16.664 56.24 16.7067 56.752 16.792C57.264 16.8347 57.776 16.9413 58.288 17.112C58.8427 17.2827 59.3547 17.496 59.824 17.752C60.336 17.9653 60.7627 18.264 61.104 18.648C60.72 19.0747 59.76 20.504 58.224 22.936C57.1147 24.6 55.9413 26.7973 54.704 29.528ZM115.659 30.232C116.299 28.9947 116.79 28.0347 117.131 27.352C119.478 22.232 121.27 19.672 122.507 19.672C123.36 19.672 124.15 19.9067 124.875 20.376C125.643 20.8027 126.176 21.4427 126.475 22.296C126.091 23.576 125.451 25.112 124.555 26.904C123.702 28.696 122.827 30.5947 121.931 32.6C121.035 34.5627 120.224 36.504 119.499 38.424C118.816 40.344 118.475 42.072 118.475 43.608C118.475 44.504 118.603 45.1013 118.859 45.4C119.115 45.656 119.478 45.784 119.947 45.784C120.459 45.784 120.928 45.6987 121.355 45.528C121.824 45.3147 122.166 45.208 122.379 45.208C122.635 45.3787 122.784 45.592 122.827 45.848C122.87 46.104 122.891 46.3387 122.891 46.552C122.038 47.2347 121.163 47.7893 120.267 48.216C119.371 48.6853 118.368 48.92 117.259 48.92C116.235 48.92 115.382 48.7493 114.699 48.408C114.059 48.0667 113.526 47.5973 113.099 47C112.672 46.4027 112.374 45.72 112.203 44.952C112.032 44.184 111.947 43.352 111.947 42.456C111.947 41.0053 112.139 39.5547 112.523 38.104C112.608 37.7627 112.715 37.4213 112.843 37.08C111.35 38.232 109.579 39.064 107.531 39.576C106.678 39.4907 105.782 39.2773 104.843 38.936C103.904 38.552 103.03 37.976 102.219 37.208C101.408 36.5253 100.662 35.6293 99.979 34.52C99.1683 36.184 98.379 37.9333 97.611 39.768C96.203 44.5893 95.1363 47.448 94.411 48.344C93.7283 49.2827 93.131 49.9013 92.619 50.2C91.723 49.688 91.0617 48.9627 90.635 48.024C90.2083 47.128 89.8883 46.1893 89.675 45.208C89.675 44.3973 89.7817 43.3733 89.995 42.136C90.251 40.8987 90.571 39.5333 90.955 38.04C91.3817 36.504 91.8937 34.904 92.491 33.24C93.0883 31.576 93.7497 29.912 94.475 28.248C96.0963 24.4933 97.5683 21.5493 98.891 19.416C100.256 17.2827 101.11 16.1307 101.451 15.96C102.56 16.3013 103.606 17.0693 104.587 18.264C105.568 19.416 106.294 20.696 106.763 22.104C106.294 23.256 105.078 25.4747 103.115 28.76C103.115 28.8027 103.094 28.8453 103.051 28.888C103.648 31.32 104.48 33.048 105.547 34.072C106.656 35.1813 107.872 35.8213 109.195 35.992C110.816 35.608 112.139 34.8613 113.163 33.752C114.23 32.6 115.062 31.4267 115.659 30.232ZM151.288 21.144C151.715 21.144 152.205 21.2293 152.76 21.4C153.357 21.528 153.891 21.72 154.36 21.976C154.829 22.1893 155.213 22.424 155.512 22.68C155.853 22.936 156.024 23.1707 156.024 23.384C155.171 25.176 154.381 26.9893 153.656 28.824C152.931 30.616 152.312 32.344 151.8 34.008C151.288 35.672 150.883 37.2293 150.584 38.68C150.328 40.1307 150.2 41.3893 150.2 42.456C150.2 43.6507 150.328 44.6533 150.584 45.464C150.84 46.232 151.267 46.7867 151.864 47.128C151.352 47.4693 150.691 47.7467 149.88 47.96C149.069 48.1733 148.344 48.28 147.704 48.28C145.4 48.28 144.248 46.7013 144.248 43.544C144.248 41.112 145.059 37.784 146.68 33.56C145.827 35.5227 144.845 37.3787 143.736 39.128C142.627 40.8347 141.496 42.3493 140.344 43.672C139.192 44.9947 138.019 46.0827 136.824 46.936C135.672 47.7467 134.605 48.2373 133.624 48.408C132.045 48.3227 130.765 47.576 129.784 46.168C128.803 44.7173 128.312 42.8827 128.312 40.664C128.312 38.2747 128.824 35.7573 129.848 33.112C130.872 30.4667 132.173 28.0133 133.752 25.752C135.373 23.4907 137.123 21.6133 139 20.12C140.877 18.584 142.691 17.7733 144.44 17.688C144.867 17.816 145.336 18.072 145.848 18.456C146.403 18.84 146.915 19.288 147.384 19.8C147.896 20.312 148.323 20.8453 148.664 21.4C149.005 21.912 149.197 22.36 149.24 22.744C147.533 23 145.763 23.832 143.928 25.24C142.136 26.648 140.493 28.3547 139 30.36C137.549 32.3227 136.355 34.4347 135.416 36.696C134.477 38.9573 134.008 41.0693 134.008 43.032C134.008 43.8427 134.307 44.3547 134.904 44.568C136.141 44.312 137.571 43.2667 139.192 41.432C140.813 39.5547 142.776 36.6747 145.08 32.792C145.507 32.024 145.976 31.1707 146.488 30.232C147.043 29.2933 147.597 28.312 148.152 27.288C148.707 26.264 149.24 25.24 149.752 24.216C150.307 23.1493 150.819 22.1253 151.288 21.144ZM183.335 37.08C182.353 40.1947 181.372 43.032 180.391 45.592C179.409 48.152 178.364 50.4987 177.255 52.632C176.145 54.808 174.951 56.792 173.671 58.584C172.391 60.4187 170.983 62.1467 169.447 63.768C167.484 65.816 165.457 67.3733 163.367 68.44C161.276 69.5493 159.185 70.104 157.095 70.104C156.028 70.104 154.961 69.976 153.895 69.72C152.87 69.5067 151.91 69.1867 151.014 68.76C150.076 68.376 149.265 67.9067 148.582 67.352C147.857 66.84 147.345 66.2853 147.046 65.688C147.046 65.176 147.345 64.728 147.942 64.344C148.454 64.8133 148.881 65.176 149.222 65.432C149.564 65.688 149.905 65.9013 150.246 66.072C150.545 66.2427 150.886 66.3493 151.27 66.392C151.612 66.4347 152.017 66.456 152.486 66.456C154.919 66.456 157.287 65.7307 159.591 64.28C161.937 62.872 164.135 60.8453 166.183 58.2C168.273 55.5973 170.172 52.4187 171.878 48.664C173.585 44.952 175.036 40.792 176.231 36.184C175.676 37.0373 174.993 38.0827 174.183 39.32C173.372 40.5573 172.476 41.7947 171.495 43.032C170.513 44.2267 169.489 45.3147 168.423 46.296C167.399 47.2773 166.396 47.9387 165.415 48.28C164.732 48.2373 164.007 48.088 163.239 47.832C162.513 47.6187 161.809 47.2987 161.127 46.872C160.487 46.4453 159.911 45.9333 159.399 45.336C158.887 44.7387 158.545 44.056 158.375 43.288C158.375 42.0507 158.417 41.0693 158.503 40.344C158.588 39.576 158.737 38.744 158.951 37.848C159.335 36.2267 159.889 34.392 160.615 32.344C161.383 30.296 162.257 28.2907 163.239 26.328C164.263 24.3227 165.372 22.4667 166.567 20.76C167.804 19.0107 169.084 17.6453 170.407 16.664C170.748 16.664 171.175 16.7067 171.687 16.792C172.199 16.8347 172.732 16.9413 173.287 17.112C173.841 17.2827 174.375 17.496 174.887 17.752C175.399 17.9653 175.847 18.264 176.231 18.648C175.761 19.0747 174.737 20.504 173.159 22.936C171.58 25.368 169.831 28.8667 167.911 33.432C167.697 33.9013 167.441 34.584 167.143 35.48C166.844 36.376 166.545 37.3147 166.247 38.296C165.991 39.2773 165.756 40.2373 165.543 41.176C165.329 42.1147 165.223 42.8613 165.223 43.416C165.223 43.7573 165.265 44.0133 165.351 44.184C165.479 44.3547 165.585 44.4827 165.671 44.568C166.439 44.44 167.463 43.8213 168.743 42.712C170.023 41.56 171.473 39.7893 173.095 37.4C174.119 35.864 175.057 34.3493 175.911 32.856C176.764 31.32 177.596 29.784 178.407 28.248C179.26 26.712 180.135 25.1333 181.031 23.512C181.927 21.8907 182.887 20.2267 183.911 18.52C184.465 18.52 185.063 18.584 185.703 18.712C186.343 18.84 186.961 19.0107 187.559 19.224C188.156 19.3947 188.668 19.608 189.095 19.864C189.564 20.0773 189.905 20.312 190.119 20.568C188.796 23.384 187.559 26.136 186.407 28.824C185.255 31.512 184.231 34.264 183.335 37.08ZM213.943 25.368C213.73 25.88 213.495 26.392 213.239 26.904C212.343 28.696 211.447 30.5947 210.551 32.6C209.655 34.5627 208.844 36.504 208.119 38.424C207.436 40.344 207.095 42.072 207.095 43.608C207.095 44.504 207.223 45.1013 207.479 45.4C207.735 45.656 208.098 45.784 208.567 45.784C209.079 45.784 209.548 45.6987 209.975 45.528C210.444 45.3147 210.786 45.208 210.999 45.208C211.255 45.3787 211.404 45.592 211.447 45.848C211.49 46.104 211.511 46.3387 211.511 46.552C210.658 47.2347 209.783 47.7893 208.887 48.216C207.991 48.6853 206.988 48.92 205.879 48.92C204.855 48.92 204.002 48.7493 203.319 48.408C202.679 48.0667 202.146 47.5973 201.719 47C201.292 46.4027 200.994 45.72 200.823 44.952C200.652 44.184 200.567 43.352 200.567 42.456C200.567 41.0053 200.759 39.576 201.143 38.168C201.527 36.7173 201.975 35.352 202.487 34.072C203.042 32.7493 203.618 31.5333 204.215 30.424C204.812 29.272 205.324 28.248 205.751 27.352L207.095 24.152C206.924 24.024 206.732 23.896 206.519 23.768C206.007 23.4693 205.431 23.2133 204.791 23C204.151 22.744 203.532 22.552 202.935 22.424C202.38 22.2533 201.954 22.168 201.655 22.168C201.228 22.168 200.78 22.3173 200.311 22.616C199.884 22.872 199.479 23.192 199.095 23.576C198.711 23.96 198.37 24.344 198.071 24.728C197.815 25.112 197.666 25.3893 197.623 25.56C196.556 25.2187 195.639 24.7067 194.871 24.024C194.103 23.3413 193.612 22.2533 193.399 20.76C194.466 19.0107 195.447 17.7307 196.343 16.92C197.282 16.1093 198.412 15.5973 199.735 15.384C201.783 16.2373 203.703 17.24 205.495 18.392C207.287 19.5013 208.866 20.7173 210.231 22.04C210.871 21.6987 211.468 21.3573 212.023 21.016C212.62 20.6747 213.346 20.4187 214.199 20.248C215.223 20.76 215.948 21.8267 216.375 23.448C215.991 24.1733 215.522 24.7493 214.967 25.176C214.796 25.304 214.455 25.368 213.943 25.368ZM235.491 45.592C234.68 44.9093 234.126 44.056 233.827 43.032C233.571 42.008 233.443 41.1333 233.443 40.408C233.443 39.512 233.55 38.744 233.763 38.104C233.592 38.104 233.208 38.4453 232.611 39.128C232.014 39.8107 231.352 40.6213 230.627 41.56C229.944 42.4987 229.262 43.416 228.579 44.312C227.896 45.208 227.384 45.8693 227.043 46.296C226.488 46.8933 225.955 47.3627 225.443 47.704C224.974 48.0453 224.59 48.2373 224.291 48.28C223.608 48.2373 222.883 48.088 222.115 47.832C221.39 47.6187 220.686 47.2987 220.003 46.872C219.363 46.4453 218.787 45.9333 218.275 45.336C217.806 44.7387 217.486 44.056 217.315 43.288C217.315 42.0933 217.336 41.112 217.379 40.344C217.464 39.576 217.614 38.744 217.827 37.848C218.211 36.2267 218.766 34.392 219.491 32.344C220.259 30.296 221.134 28.2907 222.115 26.328C223.096 24.3227 224.184 22.4667 225.379 20.76C226.616 19.0107 227.918 17.6453 229.283 16.664C229.667 16.664 230.115 16.7067 230.627 16.792C231.139 16.8347 231.651 16.9413 232.163 17.112C232.718 17.2827 233.23 17.496 233.699 17.752C234.211 17.9653 234.638 18.264 234.979 18.648C234.595 19.0747 233.614 20.504 232.035 22.936C230.499 25.368 228.771 28.8667 226.851 33.432C226.638 33.9013 226.382 34.584 226.083 35.48C225.784 36.376 225.486 37.3147 225.187 38.296C224.888 39.2773 224.632 40.2373 224.419 41.176C224.248 42.1147 224.163 42.8613 224.163 43.416C224.163 43.7573 224.206 44.0133 224.291 44.184C224.419 44.3547 224.526 44.4827 224.611 44.568C225.251 44.312 226.062 43.608 227.043 42.456C228.024 41.304 229.39 39.5333 231.139 37.144C231.566 36.5467 232.056 35.864 232.611 35.096C233.208 34.328 233.806 33.5173 234.403 32.664C235 31.768 235.555 30.8507 236.067 29.912C236.622 28.9733 237.07 28.0347 237.411 27.096C237.582 26.584 237.795 25.9867 238.051 25.304C238.35 24.5787 238.691 23.832 239.075 23.064C239.502 22.296 239.971 21.528 240.483 20.76C241.038 19.9493 241.678 19.2027 242.403 18.52C242.958 18.52 243.555 18.584 244.195 18.712C244.835 18.84 245.432 19.0107 245.987 19.224C246.584 19.3947 247.096 19.608 247.523 19.864C247.95 20.0773 248.27 20.312 248.483 20.568C247.715 22.4453 246.862 24.3013 245.923 26.136C244.984 27.9707 244.11 29.784 243.299 31.576C242.488 33.3253 241.806 35.0747 241.251 36.824C240.696 38.5733 240.419 40.28 240.419 41.944C240.419 42.84 240.483 43.6293 240.611 44.312C240.782 44.952 240.952 45.5067 241.123 45.976C241.294 46.4027 241.443 46.7653 241.571 47.064C241.742 47.3627 241.827 47.6187 241.827 47.832C241.827 47.8747 241.784 47.9387 241.699 48.024C241.656 48.0667 241.614 48.088 241.571 48.088C241.272 48.088 240.888 48.024 240.419 47.896C239.95 47.768 239.416 47.576 238.819 47.32C238.264 47.1067 237.688 46.8507 237.091 46.552C236.536 46.2533 236.003 45.9333 235.491 45.592ZM286.7 27.352C286.017 27.3947 285.185 27.8427 284.204 28.696C283.223 29.5067 282.156 30.5733 281.004 31.896C279.895 33.176 278.721 34.6053 277.484 36.184C276.289 37.7627 275.116 39.3413 273.964 40.92C272.855 42.456 271.809 43.9067 270.828 45.272C269.847 46.6373 269.015 47.7253 268.332 48.536C267.393 48.152 266.583 47.5973 265.9 46.872C265.217 46.104 264.727 45.1653 264.428 44.056C264.641 42.7333 264.94 41.368 265.324 39.96C265.708 38.5093 266.199 37.016 266.796 35.48C267.436 33.944 268.204 32.344 269.1 30.68C270.039 28.9733 271.169 27.1813 272.492 25.304C271.852 25.3467 270.977 25.816 269.868 26.712C268.759 27.5653 267.564 28.696 266.284 30.104C265.004 31.4693 263.681 33.0267 262.316 34.776C260.951 36.4827 259.671 38.168 258.476 39.832C256.897 42.0507 255.575 43.992 254.508 45.656C253.484 47.32 252.737 48.3013 252.268 48.6C251.159 47.7893 250.391 46.9147 249.964 45.976C249.537 45.0373 249.217 43.992 249.004 42.84C249.047 41.816 249.196 40.536 249.452 39C249.751 37.464 250.156 35.8853 250.668 34.264C251.649 31.1493 252.908 28.056 254.444 24.984C256.023 21.912 257.537 19.096 258.988 16.536C260.183 16.792 261.249 17.1973 262.188 17.752C263.169 18.3067 264.193 19.1173 265.26 20.184C264.833 21.5067 264.172 22.9147 263.276 24.408C262.38 25.8587 261.441 27.3947 260.46 29.016C259.479 30.6373 258.583 32.3013 257.772 34.008C256.961 35.7147 256.428 37.4427 256.172 39.192C257.367 37.4853 258.775 35.5227 260.396 33.304C262.06 31.0853 263.745 28.9947 265.452 27.032C267.201 25.0693 268.929 23.4053 270.636 22.04C272.343 20.6747 273.879 19.992 275.244 19.992C275.756 19.992 276.311 20.0773 276.908 20.248C277.505 20.4187 278.06 20.632 278.572 20.888C279.084 21.144 279.511 21.4 279.852 21.656C280.193 21.8693 280.385 22.04 280.428 22.168C280.215 23.0213 279.703 24.1947 278.892 25.688C278.124 27.1387 277.292 28.6747 276.396 30.296C275.5 31.9173 274.668 33.496 273.9 35.032C273.132 36.5253 272.684 37.72 272.556 38.616C274.647 35.7573 276.609 33.176 278.444 30.872C280.279 28.5253 282.007 26.52 283.628 24.856C285.249 23.192 286.743 21.912 288.108 21.016C289.516 20.12 290.839 19.672 292.076 19.672C292.929 19.672 293.719 19.9067 294.444 20.376C295.212 20.8027 295.745 21.4427 296.044 22.296C295.66 23.576 295.02 25.112 294.124 26.904C293.271 28.696 292.396 30.5947 291.5 32.6C290.604 34.5627 289.793 36.504 289.068 38.424C288.385 40.344 288.044 42.072 288.044 43.608C288.044 44.504 288.172 45.1013 288.428 45.4C288.684 45.656 289.047 45.784 289.516 45.784C290.028 45.784 290.497 45.6987 290.924 45.528C291.393 45.3147 291.735 45.208 291.948 45.208C292.204 45.3787 292.353 45.592 292.396 45.848C292.439 46.104 292.46 46.3387 292.46 46.552C291.607 47.2347 290.732 47.7893 289.836 48.216C288.94 48.6853 287.937 48.92 286.828 48.92C285.804 48.92 284.951 48.7493 284.268 48.408C283.628 48.0667 283.095 47.5973 282.668 47C282.241 46.4027 281.943 45.72 281.772 44.952C281.601 44.184 281.516 43.352 281.516 42.456C281.516 41.0053 281.708 39.576 282.092 38.168C282.476 36.7173 282.924 35.352 283.436 34.072C283.991 32.7493 284.567 31.5333 285.164 30.424C285.761 29.272 286.273 28.248 286.7 27.352ZM321.558 20.504C321.387 23.1493 320.918 25.432 320.15 27.352C319.382 29.2293 318.272 30.8933 316.822 32.344C315.414 33.752 313.686 35.032 311.638 36.184C309.59 37.336 307.2 38.4453 304.47 39.512C304.47 39.768 304.448 40.0453 304.406 40.344C304.406 40.6 304.406 40.8773 304.406 41.176C304.406 41.7307 304.448 42.3067 304.534 42.904C304.619 43.5013 304.768 44.056 304.982 44.568C305.195 45.08 305.494 45.5067 305.878 45.848C306.262 46.1467 306.752 46.296 307.35 46.296C308.502 46.296 309.632 46.04 310.742 45.528C311.851 45.016 312.896 44.3973 313.878 43.672C314.902 42.904 315.84 42.0933 316.694 41.24C317.59 40.344 318.379 39.5333 319.062 38.808C319.488 39.192 319.851 39.5547 320.15 39.896C318.23 42.456 316.118 44.5893 313.814 46.296C311.552 47.96 309.398 49.0267 307.35 49.496C304.406 49.1547 302.102 48.088 300.438 46.296C298.816 44.4613 298.006 42.264 298.006 39.704C298.006 37.9547 298.24 36.184 298.71 34.392C299.222 32.5573 299.904 30.808 300.758 29.144C301.654 27.4373 302.678 25.8373 303.83 24.344C305.024 22.8507 306.283 21.5493 307.606 20.44C308.971 19.3307 310.358 18.456 311.766 17.816C313.216 17.176 314.646 16.856 316.054 16.856C318.016 17.112 319.851 18.328 321.558 20.504ZM317.142 22.616C315.99 22.7867 314.795 23.256 313.558 24.024C312.32 24.792 311.147 25.816 310.038 27.096C308.971 28.376 307.99 29.8693 307.094 31.576C306.198 33.2827 305.494 35.1173 304.982 37.08C308.395 35.3733 311.232 33.2827 313.494 30.808C315.755 28.2907 316.971 25.56 317.142 22.616ZM324.905 35.736C324.905 33.304 325.395 30.9573 326.377 28.696C327.401 26.392 328.723 24.3653 330.345 22.616C332.009 20.824 333.886 19.3947 335.977 18.328C338.11 17.2187 340.307 16.664 342.569 16.664C344.787 16.664 346.494 17.2187 347.689 18.328C348.883 19.4373 349.481 21.016 349.481 23.064C349.481 24.0453 349.331 25.0053 349.033 25.944C348.777 26.84 348.414 27.6507 347.945 28.376C347.518 29.1013 347.006 29.6987 346.409 30.168C345.811 30.5947 345.214 30.808 344.617 30.808C344.105 30.808 343.571 30.6587 343.017 30.36C342.505 30.0187 342.078 29.592 341.737 29.08C344.595 26.4773 346.025 24.1093 346.025 21.976C346.025 20.7387 345.534 20.12 344.553 20.12C343.699 20.12 342.633 20.5253 341.353 21.336C340.073 22.1467 338.835 23.2133 337.641 24.536C335.806 26.584 334.398 28.8667 333.417 31.384C332.478 33.8587 332.009 36.4613 332.009 39.192C332.009 42.648 332.777 44.7173 334.312 45.4C334.953 45.3147 335.699 45.1227 336.553 44.824C337.406 44.5253 338.323 44.1413 339.305 43.672C340.286 43.16 341.289 42.584 342.313 41.944C343.379 41.304 344.403 40.6213 345.385 39.896C345.555 40.024 345.705 40.216 345.833 40.472C345.961 40.728 346.025 40.9627 346.025 41.176C345.299 42.072 344.467 42.9467 343.529 43.8C342.59 44.6533 341.609 45.4427 340.585 46.168C339.561 46.8507 338.558 47.4267 337.577 47.896C336.638 48.408 335.806 48.728 335.081 48.856C333.673 48.728 332.35 48.28 331.113 47.512C329.875 46.7867 328.787 45.8267 327.849 44.632C326.953 43.4373 326.227 42.072 325.673 40.536C325.161 39 324.905 37.4 324.905 35.736ZM352.484 47.128C351.716 46.7867 351.118 46.3173 350.692 45.72C350.222 45.1227 349.902 44.4187 349.732 43.608C349.561 42.7547 349.476 41.8587 349.476 40.92C349.476 40.408 349.732 38.616 350.244 35.544C350.798 32.472 351.609 29.7627 352.676 27.416C353.742 25.0693 354.51 23.384 354.98 22.36C355.492 21.2933 356.089 20.2693 356.772 19.288C357.497 18.3067 358.35 17.5813 359.332 17.112C360.057 17.2827 361.017 17.7307 362.212 18.456C363.406 19.1387 364.43 20.0987 365.284 21.336C364.302 22.4453 363.47 23.5547 362.788 24.664C362.148 25.7733 361.572 26.9253 361.06 28.12C360.761 28.76 360.313 29.72 359.716 31C360.484 30.6587 361.166 30.4453 361.764 30.36C363.428 30.5733 364.665 31.0853 365.476 31.896C366.286 32.7067 366.692 33.752 366.692 35.032C366.692 36.2693 366.35 37.6347 365.668 39.128C364.985 40.5787 364.089 41.944 362.98 43.224C361.913 44.504 360.676 45.592 359.268 46.488C357.86 47.3413 356.452 47.768 355.044 47.768C354.02 47.768 353.166 47.5547 352.484 47.128ZM358.564 33.368C358.308 33.88 358.03 34.4347 357.732 35.032C357.604 35.288 357.497 35.5653 357.412 35.864C357.241 36.4187 357.07 36.9733 356.9 37.528C356.43 39.1493 356.196 40.6213 356.196 41.944C356.196 42.456 356.238 42.8827 356.324 43.224C356.537 43.096 356.75 42.9467 356.964 42.776C357.945 42.0507 358.82 41.2187 359.588 40.28C360.398 39.2987 361.038 38.3173 361.508 37.336C362.02 36.312 362.276 35.4587 362.276 34.776C362.276 33.5813 361.636 32.984 360.356 32.984C359.844 32.984 359.332 33.0693 358.82 33.24C358.734 33.2827 358.649 33.3253 358.564 33.368ZM374.215 49.432C373.532 49.3467 372.807 49.048 372.039 48.536C371.313 48.0667 370.844 47.5333 370.631 46.936C370.631 46.424 370.695 45.7627 370.823 44.952C370.993 44.1413 371.185 43.3307 371.399 42.52C371.612 41.6667 371.825 40.8773 372.039 40.152C372.252 39.384 372.401 38.808 372.487 38.424C372.999 38.424 373.639 38.552 374.407 38.808C375.217 39.064 376.028 39.4267 376.839 39.896C377.692 40.3227 378.481 40.8347 379.207 41.432C379.975 41.9867 380.551 42.5627 380.935 43.16C380.551 44.0133 380.06 44.824 379.463 45.592C378.865 46.36 378.225 47.0213 377.543 47.576C376.903 48.1733 376.284 48.6213 375.687 48.92C375.089 49.2613 374.599 49.432 374.215 49.432ZM380.615 29.08C379.932 28.9947 379.207 28.7173 378.439 28.248C377.713 27.736 377.244 27.1813 377.031 26.584C377.031 26.072 377.095 25.4107 377.223 24.6C377.393 23.7893 377.585 22.9787 377.799 22.168C378.012 21.3147 378.225 20.5253 378.439 19.8C378.652 19.032 378.801 18.456 378.887 18.072C379.399 18.072 380.039 18.2 380.807 18.456C381.617 18.712 382.428 19.0747 383.239 19.544C384.092 19.9707 384.881 20.4827 385.607 21.08C386.375 21.6347 386.951 22.2107 387.335 22.808C386.951 23.6613 386.46 24.472 385.863 25.24C385.265 26.008 384.625 26.6907 383.943 27.288C383.303 27.8427 382.684 28.2907 382.087 28.632C381.489 28.9307 380.999 29.08 380.615 29.08Z" fill="#47BB73"/>
</g>
<defs>
<filter id="filter0_i_173_328" x="0.640137" y="0.151978" width="386.694" height="69.952" filterUnits="userSpaceOnUse" color-interpolation-filters="sRGB">
<feFlood flood-opacity="0" result="BackgroundImageFix"/>
<feBlend mode="normal" in="SourceGraphic" in2="BackgroundImageFix" result="shape"/>
<feColorMatrix in="SourceAlpha" type="matrix" values="0 0 0 0 0 0 0 0 0 0 0 0 0 0 0 0 0 0 127 0" result="hardAlpha"/>
<feOffset/>
<feGaussianBlur stdDeviation="2"/>
<feComposite in2="hardAlpha" operator="arithmetic" k2="-1" k3="1"/>
<feColorMatrix type="matrix" values="0 0 0 0 0.616667 0 0 0 0 1 0 0 0 0 0.765965 0 0 0 1 0"/>
<feBlend mode="normal" in2="shape" result="effect1_innerShadow_173_328"/>
</filter>
</defs>
</svg>
