<svg width="1860" height="1043" viewBox="0 0 1860 1043" fill="none" xmlns="http://www.w3.org/2000/svg">
<g filter="url(#filter0_f_544_203)">
<path d="M1482.35 828.172V822.627C1480.32 822.592 1478.38 822.416 1476.52 822.099C1474.69 821.782 1473.19 821.369 1472.03 820.858V816.581C1473.24 817.144 1474.8 817.637 1476.71 818.059C1478.62 818.482 1480.49 818.711 1482.35 818.746V807.129C1480.02 806.477 1478.09 805.738 1476.55 804.911C1475.03 804.066 1473.9 803.036 1473.14 801.822C1472.38 800.607 1472 799.138 1472 797.413C1472 795.617 1472.42 794.086 1473.27 792.818C1474.13 791.534 1475.34 790.53 1476.9 789.809C1478.45 789.087 1480.26 788.673 1482.35 788.568V784H1485.57V788.515C1487.46 788.568 1489.18 788.779 1490.73 789.149C1492.29 789.501 1493.72 789.958 1495.05 790.521L1493.67 794.191C1492.47 793.716 1491.18 793.311 1489.78 792.977C1488.39 792.642 1486.99 792.414 1485.57 792.29V803.828C1487.94 804.515 1489.91 805.245 1491.5 806.02C1493.11 806.794 1494.32 807.754 1495.13 808.898C1495.94 810.042 1496.34 811.52 1496.34 813.333C1496.34 815.903 1495.4 817.98 1493.51 819.564C1491.63 821.131 1488.98 822.081 1485.57 822.416V828.172H1482.35ZM1485.57 818.508C1487.74 818.297 1489.36 817.778 1490.42 816.95C1491.49 816.106 1492.03 814.997 1492.03 813.624C1492.03 812.638 1491.82 811.828 1491.4 811.195C1490.99 810.561 1490.32 810.015 1489.38 809.558C1488.45 809.083 1487.18 808.634 1485.57 808.211V818.508ZM1482.35 802.719V792.396C1481.02 792.484 1479.91 792.73 1479.01 793.135C1478.11 793.54 1477.43 794.068 1476.97 794.719C1476.53 795.371 1476.31 796.145 1476.31 797.043C1476.31 798.081 1476.51 798.953 1476.9 799.657C1477.3 800.343 1477.94 800.933 1478.83 801.426C1479.73 801.901 1480.9 802.332 1482.35 802.719Z" fill="#60BF84"/>
<path d="M1527.67 825.03H1502.32V821.36L1512.67 810.878C1514.59 808.942 1516.21 807.217 1517.51 805.703C1518.84 804.189 1519.84 802.702 1520.53 801.241C1521.22 799.762 1521.56 798.143 1521.56 796.383C1521.56 794.2 1520.91 792.537 1519.6 791.393C1518.32 790.231 1516.61 789.65 1514.5 789.65C1512.64 789.65 1511 789.967 1509.57 790.601C1508.15 791.234 1506.68 792.132 1505.18 793.294L1502.83 790.337C1503.85 789.474 1504.96 788.708 1506.16 788.04C1507.38 787.371 1508.67 786.843 1510.05 786.455C1511.44 786.068 1512.93 785.875 1514.5 785.875C1516.88 785.875 1518.93 786.288 1520.66 787.116C1522.39 787.943 1523.72 789.122 1524.66 790.653C1525.61 792.185 1526.09 794.007 1526.09 796.119C1526.09 798.161 1525.68 800.062 1524.87 801.822C1524.06 803.564 1522.92 805.298 1521.46 807.023C1519.99 808.73 1518.28 810.543 1516.32 812.462L1507.91 820.832V821.017H1527.67V825.03Z" fill="#60BF84"/>
<path d="M1558.69 825.03H1533.34V821.36L1543.68 810.878C1545.61 808.942 1547.22 807.217 1548.53 805.703C1549.85 804.189 1550.85 802.702 1551.54 801.241C1552.23 799.762 1552.57 798.143 1552.57 796.383C1552.57 794.2 1551.92 792.537 1550.62 791.393C1549.33 790.231 1547.63 789.65 1545.51 789.65C1543.66 789.65 1542.02 789.967 1540.59 790.601C1539.16 791.234 1537.69 792.132 1536.19 793.294L1533.84 790.337C1534.86 789.474 1535.97 788.708 1537.17 788.04C1538.39 787.371 1539.69 786.843 1541.06 786.455C1542.46 786.068 1543.94 785.875 1545.51 785.875C1547.89 785.875 1549.95 786.288 1551.67 787.116C1553.4 787.943 1554.73 789.122 1555.67 790.653C1556.62 792.185 1557.1 794.007 1557.1 796.119C1557.1 798.161 1556.69 800.062 1555.88 801.822C1555.07 803.564 1553.93 805.298 1552.47 807.023C1551 808.73 1549.29 810.543 1547.33 812.462L1538.92 820.832V821.017H1558.69V825.03Z" fill="#60BF84"/>
<path d="M1571.33 818.746L1571.68 819.353C1571.36 820.638 1570.96 822.011 1570.46 823.472C1569.98 824.933 1569.46 826.394 1568.87 827.855C1568.31 829.333 1567.74 830.715 1567.15 832H1563.87C1564.24 830.592 1564.6 829.105 1564.96 827.538C1565.31 825.989 1565.63 824.458 1565.91 822.944C1566.21 821.413 1566.45 820.013 1566.62 818.746H1571.33Z" fill="#60BF84"/>
<path d="M1590.6 801.426C1593.23 801.426 1595.51 801.875 1597.45 802.772C1599.39 803.652 1600.89 804.937 1601.95 806.627C1603.03 808.317 1603.56 810.367 1603.56 812.779C1603.56 815.419 1602.99 817.699 1601.84 819.617C1600.7 821.518 1599.05 822.988 1596.9 824.026C1594.74 825.047 1592.17 825.558 1589.17 825.558C1587.16 825.558 1585.29 825.382 1583.56 825.03C1581.83 824.678 1580.38 824.15 1579.19 823.446V819.274C1580.48 820.048 1582.04 820.664 1583.88 821.122C1585.71 821.58 1587.49 821.809 1589.22 821.809C1591.18 821.809 1592.89 821.501 1594.36 820.884C1595.84 820.251 1596.98 819.3 1597.8 818.033C1598.62 816.748 1599.04 815.138 1599.04 813.201C1599.04 810.631 1598.25 808.651 1596.66 807.261C1595.09 805.853 1592.6 805.149 1589.2 805.149C1588.1 805.149 1586.9 805.237 1585.6 805.413C1584.29 805.589 1583.22 805.782 1582.37 805.993L1580.15 804.541L1581.63 786.429H1600.86V790.442H1585.39L1584.41 802.086C1585.08 801.945 1585.94 801.804 1587 801.663C1588.06 801.505 1589.26 801.426 1590.6 801.426Z" fill="#60BF84"/>
<path d="M1634.73 825.03H1609.39V821.36L1619.73 810.878C1621.65 808.942 1623.27 807.217 1624.57 805.703C1625.9 804.189 1626.9 802.702 1627.59 801.241C1628.28 799.762 1628.62 798.143 1628.62 796.383C1628.62 794.2 1627.97 792.537 1626.66 791.393C1625.38 790.231 1623.67 789.65 1621.56 789.65C1619.7 789.65 1618.06 789.967 1616.64 790.601C1615.21 791.234 1613.74 792.132 1612.24 793.294L1609.89 790.337C1610.91 789.474 1612.02 788.708 1613.22 788.04C1614.44 787.371 1615.74 786.843 1617.11 786.455C1618.51 786.068 1619.99 785.875 1621.56 785.875C1623.94 785.875 1625.99 786.288 1627.72 787.116C1629.45 787.943 1630.78 789.122 1631.72 790.653C1632.67 792.185 1633.15 794.007 1633.15 796.119C1633.15 798.161 1632.74 800.062 1631.93 801.822C1631.12 803.564 1629.98 805.298 1628.52 807.023C1627.05 808.73 1625.34 810.543 1623.38 812.462L1614.97 820.832V821.017H1634.73V825.03Z" fill="#60BF84"/>
<path d="M1656.75 825.03H1652.46V797.677C1652.46 796.638 1652.46 795.749 1652.46 795.01C1652.48 794.253 1652.5 793.567 1652.52 792.95C1652.55 792.317 1652.6 791.674 1652.65 791.023C1652.1 791.586 1651.59 792.07 1651.11 792.475C1650.64 792.862 1650.05 793.347 1649.34 793.927L1644.92 797.465L1642.62 794.482L1653.1 786.429H1656.75V825.03Z" fill="#60BF84"/>
<path d="M1678.4 818.746L1678.74 819.353C1678.42 820.638 1678.02 822.011 1677.52 823.472C1677.05 824.933 1676.52 826.394 1675.93 827.855C1675.37 829.333 1674.8 830.715 1674.21 832H1670.93C1671.3 830.592 1671.67 829.105 1672.02 827.538C1672.37 825.989 1672.69 824.458 1672.97 822.944C1673.27 821.413 1673.51 820.013 1673.69 818.746H1678.4Z" fill="#60BF84"/>
<path d="M1690.44 825.03L1706.31 790.442H1685.22V786.429H1711.02V789.809L1695.25 825.03H1690.44Z" fill="#60BF84"/>
<path d="M1740.37 795.432C1740.37 797.157 1740.03 798.653 1739.36 799.921C1738.69 801.188 1737.76 802.227 1736.56 803.036C1735.36 803.828 1733.95 804.383 1732.32 804.7V804.911C1735.39 805.298 1737.69 806.284 1739.23 807.868C1740.78 809.452 1741.56 811.529 1741.56 814.099C1741.56 816.334 1741.03 818.315 1739.97 820.04C1738.93 821.765 1737.32 823.12 1735.15 824.106C1733 825.074 1730.24 825.558 1726.87 825.558C1724.83 825.558 1722.93 825.391 1721.18 825.056C1719.45 824.739 1717.8 824.202 1716.21 823.446V819.327C1717.81 820.119 1719.56 820.744 1721.45 821.201C1723.33 821.641 1725.16 821.861 1726.92 821.861C1730.45 821.861 1733 821.166 1734.57 819.776C1736.14 818.367 1736.93 816.449 1736.93 814.02C1736.93 812.348 1736.49 811.001 1735.6 809.98C1734.74 808.942 1733.49 808.185 1731.85 807.71C1730.22 807.217 1728.27 806.97 1725.97 806.97H1722.11V803.221H1726C1728.1 803.221 1729.88 802.913 1731.34 802.297C1732.81 801.681 1733.92 800.818 1734.68 799.71C1735.45 798.583 1735.84 797.254 1735.84 795.723C1735.84 793.769 1735.19 792.264 1733.88 791.208C1732.58 790.134 1730.81 789.597 1728.57 789.597C1727.19 789.597 1725.94 789.738 1724.81 790.02C1723.68 790.301 1722.62 790.689 1721.63 791.182C1720.64 791.674 1719.66 792.246 1718.67 792.898L1716.45 789.888C1717.86 788.796 1719.58 787.855 1721.61 787.063C1723.63 786.271 1725.94 785.875 1728.51 785.875C1732.46 785.875 1735.43 786.772 1737.4 788.568C1739.38 790.363 1740.37 792.651 1740.37 795.432Z" fill="#60BF84"/>
<path d="M1763.81 825.03H1759.52V797.677C1759.52 796.638 1759.52 795.749 1759.52 795.01C1759.54 794.253 1759.56 793.567 1759.58 792.95C1759.61 792.317 1759.66 791.674 1759.71 791.023C1759.16 791.586 1758.65 792.07 1758.18 792.475C1757.7 792.862 1757.11 793.347 1756.4 793.927L1751.98 797.465L1749.68 794.482L1760.16 786.429H1763.81V825.03Z" fill="#60BF84"/>
<path d="M1779.77 822.284C1779.77 821.052 1780.07 820.18 1780.67 819.67C1781.27 819.142 1782 818.878 1782.86 818.878C1783.76 818.878 1784.52 819.142 1785.14 819.67C1785.76 820.18 1786.06 821.052 1786.06 822.284C1786.06 823.498 1785.76 824.387 1785.14 824.95C1784.52 825.496 1783.76 825.769 1782.86 825.769C1782 825.769 1781.27 825.496 1780.67 824.95C1780.07 824.387 1779.77 823.498 1779.77 822.284Z" fill="#60BF84"/>
<path d="M1793.1 808.528C1793.1 806.205 1793.26 803.934 1793.58 801.716C1793.91 799.498 1794.47 797.439 1795.25 795.538C1796.02 793.619 1797.08 791.938 1798.42 790.495C1799.76 789.052 1801.43 787.925 1803.42 787.116C1805.43 786.288 1807.84 785.875 1810.65 785.875C1811.44 785.875 1812.3 785.919 1813.21 786.007C1814.13 786.077 1814.89 786.2 1815.49 786.376V790.152C1814.84 789.923 1814.09 789.756 1813.24 789.65C1812.41 789.545 1811.57 789.492 1810.73 789.492C1807.45 789.492 1804.86 790.205 1802.97 791.63C1801.1 793.056 1799.75 794.992 1798.92 797.439C1798.1 799.868 1797.62 802.605 1797.5 805.65H1797.79C1798.33 804.77 1799.03 803.978 1799.88 803.274C1800.72 802.552 1801.75 801.98 1802.95 801.558C1804.16 801.135 1805.58 800.924 1807.18 800.924C1809.44 800.924 1811.41 801.382 1813.08 802.297C1814.77 803.212 1816.08 804.541 1817 806.284C1817.93 808.026 1818.4 810.139 1818.4 812.62C1818.4 815.278 1817.91 817.575 1816.92 819.512C1815.93 821.448 1814.52 822.944 1812.68 824C1810.87 825.039 1808.7 825.558 1806.18 825.558C1804.29 825.558 1802.55 825.197 1800.96 824.475C1799.37 823.754 1797.99 822.68 1796.81 821.254C1795.64 819.828 1794.74 818.059 1794.08 815.947C1793.43 813.817 1793.1 811.344 1793.1 808.528ZM1806.12 821.861C1808.52 821.861 1810.44 821.096 1811.89 819.564C1813.34 818.033 1814.06 815.718 1814.06 812.62C1814.06 810.086 1813.42 808.079 1812.13 806.601C1810.84 805.122 1808.9 804.383 1806.31 804.383C1804.54 804.383 1803.01 804.752 1801.7 805.492C1800.4 806.213 1799.38 807.129 1798.66 808.238C1797.94 809.347 1797.58 810.473 1797.58 811.617C1797.58 812.779 1797.74 813.958 1798.08 815.155C1798.43 816.352 1798.96 817.461 1799.67 818.482C1800.37 819.503 1801.26 820.321 1802.34 820.937C1803.41 821.553 1804.68 821.861 1806.12 821.861Z" fill="#60BF84"/>
<path d="M1851 816.079H1845.21V825.03H1840.92V816.079H1822.21V812.383L1840.63 786.218H1845.21V812.119H1851V816.079ZM1840.92 812.119V799.498C1840.92 798.53 1840.93 797.659 1840.94 796.884C1840.96 796.092 1840.99 795.362 1841.02 794.693C1841.06 794.007 1841.09 793.355 1841.1 792.739C1841.14 792.123 1841.17 791.516 1841.18 790.917H1840.97C1840.64 791.622 1840.25 792.37 1839.81 793.162C1839.38 793.936 1838.95 794.631 1838.51 795.248L1826.58 812.119H1840.92Z" fill="#60BF84"/>
</g>
<g filter="url(#filter1_f_544_203)">
<path d="M138.646 820.81V816.189C136.95 816.16 135.329 816.013 133.781 815.749C132.248 815.485 130.995 815.14 130.022 814.715V811.151C131.039 811.62 132.344 812.031 133.936 812.383C135.528 812.735 137.098 812.926 138.646 812.955V803.274C136.7 802.731 135.086 802.115 133.803 801.426C132.535 800.722 131.585 799.864 130.951 798.851C130.317 797.839 130 796.615 130 795.177C130 793.681 130.354 792.405 131.061 791.349C131.784 790.278 132.793 789.442 134.091 788.84C135.388 788.239 136.906 787.894 138.646 787.806V784H141.343V787.762C142.921 787.806 144.358 787.982 145.655 788.29C146.952 788.584 148.154 788.965 149.259 789.435L148.109 792.493C147.107 792.097 146.024 791.759 144.859 791.481C143.694 791.202 142.523 791.011 141.343 790.909V800.524C143.319 801.096 144.97 801.704 146.296 802.35C147.638 802.995 148.648 803.795 149.326 804.748C150.004 805.702 150.343 806.934 150.343 808.444C150.343 810.586 149.554 812.317 147.977 813.637C146.399 814.942 144.188 815.735 141.343 816.013V820.81H138.646ZM141.343 812.757C143.156 812.581 144.505 812.148 145.39 811.459C146.289 810.755 146.739 809.831 146.739 808.686C146.739 807.865 146.562 807.19 146.208 806.662C145.869 806.134 145.309 805.68 144.527 805.298C143.746 804.902 142.685 804.528 141.343 804.176V812.757ZM138.646 799.6V790.997C137.54 791.07 136.611 791.275 135.86 791.613C135.108 791.95 134.54 792.39 134.157 792.933C133.788 793.476 133.604 794.121 133.604 794.869C133.604 795.735 133.766 796.461 134.091 797.047C134.43 797.619 134.968 798.111 135.705 798.521C136.457 798.917 137.437 799.277 138.646 799.6Z" fill="#60BF84"/>
<path d="M169.005 818.191H165.423V795.397C165.423 794.532 165.423 793.791 165.423 793.175C165.438 792.544 165.452 791.972 165.467 791.459C165.497 790.931 165.533 790.395 165.578 789.853C165.121 790.322 164.693 790.725 164.295 791.063C163.897 791.385 163.403 791.789 162.814 792.273L159.121 795.221L157.197 792.735L165.954 786.024H169.005V818.191Z" fill="#60BF84"/>
<path d="M187.092 812.955L187.38 813.461C187.114 814.532 186.775 815.676 186.363 816.893C185.965 818.111 185.522 819.328 185.036 820.546C184.564 821.778 184.085 822.929 183.599 824H180.857C181.166 822.827 181.469 821.587 181.763 820.282C182.058 818.991 182.324 817.715 182.559 816.453C182.81 815.177 183.009 814.011 183.156 812.955H187.092Z" fill="#60BF84"/>
<path d="M214.157 818.191H192.974V815.133L201.62 806.398C203.226 804.785 204.575 803.347 205.666 802.086C206.772 800.824 207.612 799.585 208.187 798.367C208.762 797.135 209.049 795.786 209.049 794.319C209.049 792.5 208.504 791.114 207.413 790.161C206.337 789.193 204.914 788.708 203.145 788.708C201.598 788.708 200.227 788.972 199.033 789.501C197.839 790.029 196.615 790.777 195.362 791.745L193.394 789.281C194.249 788.562 195.178 787.924 196.18 787.366C197.197 786.809 198.281 786.369 199.431 786.046C200.595 785.724 201.833 785.562 203.145 785.562C205.135 785.562 206.853 785.907 208.297 786.596C209.742 787.286 210.855 788.268 211.636 789.545C212.432 790.821 212.83 792.339 212.83 794.099C212.83 795.801 212.491 797.385 211.813 798.851C211.135 800.304 210.184 801.748 208.961 803.186C207.737 804.609 206.307 806.12 204.671 807.718L197.64 814.693V814.847H214.157V818.191Z" fill="#60BF84"/>
<path d="M241.686 810.733H236.844V818.191H233.261V810.733H217.629V807.652L233.018 785.848H236.844V807.432H241.686V810.733ZM233.261 807.432V796.915C233.261 796.109 233.269 795.382 233.284 794.737C233.298 794.077 233.32 793.468 233.35 792.911C233.379 792.339 233.402 791.796 233.416 791.283C233.446 790.769 233.468 790.263 233.483 789.765H233.306C233.026 790.351 232.701 790.975 232.333 791.635C231.979 792.28 231.618 792.86 231.249 793.373L221.277 807.432H233.261Z" fill="#60BF84"/>
<path d="M258.469 818.191H254.887V795.397C254.887 794.532 254.887 793.791 254.887 793.175C254.901 792.544 254.916 791.972 254.931 791.459C254.96 790.931 254.997 790.395 255.041 789.853C254.584 790.322 254.157 790.725 253.759 791.063C253.361 791.385 252.867 791.789 252.278 792.273L248.585 795.221L246.661 792.735L255.417 786.024H258.469V818.191Z" fill="#60BF84"/>
<path d="M271.802 815.903C271.802 814.876 272.053 814.15 272.554 813.725C273.055 813.285 273.667 813.065 274.389 813.065C275.141 813.065 275.775 813.285 276.291 813.725C276.807 814.15 277.065 814.876 277.065 815.903C277.065 816.915 276.807 817.656 276.291 818.125C275.775 818.58 275.141 818.807 274.389 818.807C273.667 818.807 273.055 818.58 272.554 818.125C272.053 817.656 271.802 816.915 271.802 815.903Z" fill="#60BF84"/>
<path d="M286.794 818.191L300.061 789.369H282.438V786.024H303.997V788.84L290.818 818.191H286.794Z" fill="#60BF84"/>
<path d="M308.861 804.44C308.861 802.504 308.994 800.612 309.259 798.763C309.539 796.915 310.004 795.199 310.652 793.615C311.301 792.016 312.185 790.615 313.306 789.413C314.426 788.21 315.819 787.271 317.485 786.596C319.165 785.907 321.177 785.562 323.521 785.562C324.185 785.562 324.9 785.599 325.666 785.672C326.433 785.731 327.067 785.834 327.568 785.98V789.127C327.022 788.936 326.396 788.796 325.688 788.708C324.995 788.62 324.295 788.576 323.588 788.576C320.846 788.576 318.686 789.171 317.109 790.359C315.546 791.547 314.419 793.16 313.726 795.199C313.033 797.223 312.635 799.504 312.532 802.042H312.775C313.232 801.308 313.814 800.648 314.522 800.062C315.229 799.46 316.084 798.983 317.087 798.631C318.104 798.279 319.283 798.103 320.625 798.103C322.512 798.103 324.155 798.485 325.556 799.248C326.971 800.01 328.062 801.118 328.828 802.57C329.609 804.022 330 805.782 330 807.85C330 810.065 329.587 811.979 328.762 813.593C327.936 815.206 326.757 816.453 325.224 817.333C323.706 818.199 321.892 818.631 319.784 818.631C318.207 818.631 316.755 818.331 315.428 817.729C314.102 817.128 312.945 816.233 311.957 815.045C310.984 813.857 310.225 812.383 309.679 810.623C309.134 808.848 308.861 806.787 308.861 804.44ZM319.74 815.551C321.745 815.551 323.352 814.913 324.561 813.637C325.769 812.361 326.374 810.432 326.374 807.85C326.374 805.738 325.836 804.066 324.76 802.834C323.683 801.602 322.062 800.986 319.895 800.986C318.421 800.986 317.138 801.294 316.048 801.91C314.957 802.511 314.109 803.274 313.505 804.198C312.9 805.122 312.598 806.061 312.598 807.014C312.598 807.982 312.738 808.965 313.018 809.963C313.313 810.96 313.755 811.884 314.345 812.735C314.935 813.586 315.679 814.268 316.578 814.781C317.477 815.294 318.531 815.551 319.74 815.551Z" fill="#60BF84"/>
</g>
<g filter="url(#filter2_f_544_203)">
<path d="M6.47088 96.055V88.8933C3.82953 88.8478 1.30302 88.6205 -1.10864 88.2112C-3.49734 87.802 -5.44964 87.2677 -6.96555 86.6084V81.0836C-5.38074 81.8111 -3.34805 82.4477 -0.867476 82.9934C1.6131 83.5391 4.05921 83.8346 6.47088 83.8801V68.8746C3.43907 68.0334 0.924048 67.0785 -1.07419 66.0099C-3.04946 64.9186 -4.53091 63.5886 -5.51855 62.0198C-6.50618 60.451 -7 58.5526 -7 56.3245C-7 54.0055 -6.44876 52.0275 -5.34629 50.3905C-4.22084 48.7308 -2.64752 47.4349 -0.626309 46.5028C1.3949 45.5706 3.76063 45.0363 6.47088 44.8999V39H10.6741V44.8317C13.1317 44.8999 15.3711 45.1727 17.3923 45.6502C19.4135 46.1049 21.2854 46.696 23.008 47.4235L21.2165 52.1639C19.6547 51.5501 17.9665 51.0271 16.152 50.5952C14.3375 50.1632 12.5115 49.8676 10.6741 49.7085V64.6117C13.7518 65.4984 16.3243 66.4419 18.3914 67.4422C20.4815 68.4426 22.0548 69.6817 23.1114 71.1595C24.1679 72.6373 24.6962 74.5471 24.6962 76.8889C24.6962 80.2083 23.4674 82.8911 21.0098 84.9373C18.5522 86.9608 15.1069 88.1885 10.6741 88.6205V96.055H6.47088ZM10.6741 83.5732C13.4992 83.3003 15.6008 82.6296 16.9789 81.5611C18.3799 80.4697 19.0805 79.0374 19.0805 77.264C19.0805 75.9908 18.8048 74.945 18.2536 74.1265C17.7253 73.308 16.8525 72.6032 15.6352 72.0121C14.4179 71.3982 12.7642 70.8185 10.6741 70.2728V83.5732ZM6.47088 63.1793V49.8449C4.74826 49.9586 3.30126 50.2769 2.12988 50.7998C0.9585 51.3227 0.0742226 52.0048 -0.522952 52.846C-1.09716 53.6872 -1.38426 54.6876 -1.38426 55.8471C-1.38426 57.1885 -1.13161 58.3139 -0.626309 59.2233C-0.0980392 60.11 0.740302 60.8717 1.88871 61.5083C3.0601 62.1221 4.58748 62.6791 6.47088 63.1793Z" fill="#60BF84" fill-opacity="0.25"/>
<path d="M63.6274 53.7668C63.6274 55.9949 63.191 57.9274 62.3182 59.5644C61.4454 61.2013 60.2281 62.5427 58.6662 63.5886C57.1044 64.6117 55.2669 65.3278 53.1539 65.7371V66.0099C57.1503 66.5101 60.1477 67.7833 62.1459 69.8295C64.1671 71.8757 65.1777 74.5585 65.1777 77.8779C65.1777 80.7653 64.4887 83.3231 63.1106 85.5512C61.7555 87.7792 59.6654 89.5299 56.8403 90.8031C54.0381 92.0535 50.4436 92.6788 46.0567 92.6788C43.3924 92.6788 40.9233 92.4628 38.6494 92.0308C36.3985 91.6216 34.2395 90.9281 32.1724 89.9505V84.6304C34.2625 85.6535 36.5363 86.4606 38.9939 87.0517C41.4515 87.6201 43.8287 87.9043 46.1256 87.9043C50.7192 87.9043 54.0381 87.0062 56.0823 85.2101C58.1265 83.3913 59.1486 80.9131 59.1486 77.7756C59.1486 75.6157 58.5744 73.8764 57.426 72.5578C56.3005 71.2164 54.6698 70.2387 52.5337 69.6249C50.4206 68.9883 47.8712 68.67 44.8853 68.67H39.8552V63.8273H44.9197C47.653 63.8273 49.9728 63.4294 51.8791 62.6337C53.7855 61.8379 55.2325 60.7239 56.2201 59.2915C57.2307 57.8365 57.736 56.1199 57.736 54.1419C57.736 51.6183 56.8862 49.6744 55.1866 48.3102C53.4869 46.9234 51.1786 46.2299 48.2616 46.2299C46.4701 46.2299 44.8394 46.4118 43.3694 46.7756C41.8994 47.1393 40.5213 47.6395 39.2351 48.2761C37.9489 48.9127 36.6627 49.6516 35.3764 50.4928L32.4824 46.6051C34.3199 45.1955 36.5593 43.9791 39.2006 42.956C41.842 41.9329 44.8394 41.4213 48.1927 41.4213C53.3376 41.4213 57.1963 42.5809 59.7687 44.8999C62.3412 47.2189 63.6274 50.1746 63.6274 53.7668Z" fill="#60BF84" fill-opacity="0.25"/>
<path d="M88.7776 61.5083C92.1999 61.5083 95.1743 62.088 97.7008 63.2475C100.227 64.3843 102.18 66.044 103.558 68.2266C104.959 70.4092 105.659 73.0579 105.659 76.1727C105.659 79.5831 104.913 82.5273 103.42 85.0055C101.927 87.4609 99.7794 89.3594 96.9773 90.7008C94.1752 92.0194 90.8218 92.6788 86.9172 92.6788C84.2988 92.6788 81.8642 92.4514 79.6133 91.9967C77.3624 91.542 75.4675 90.8599 73.9286 89.9505V84.5622C75.6053 85.5625 77.638 86.3583 80.0267 86.9494C82.4154 87.5405 84.7352 87.8361 86.9861 87.8361C89.5356 87.8361 91.7635 87.4382 93.6699 86.6425C95.5992 85.824 97.0921 84.5963 98.1487 82.9593C99.2282 81.2996 99.7679 79.2193 99.7679 76.7184C99.7679 73.399 98.7344 70.8412 96.6672 69.0451C94.623 67.2263 91.3845 66.3168 86.9516 66.3168C85.5276 66.3168 83.9658 66.4305 82.2661 66.6579C80.5665 66.8852 79.1654 67.1353 78.0629 67.4081L75.1689 65.5325L77.0983 42.1375H102.145V47.3212H81.9905L80.7158 62.3608C81.5886 62.179 82.714 61.9971 84.0921 61.8152C85.4702 61.6106 87.032 61.5083 88.7776 61.5083Z" fill="#60BF84" fill-opacity="0.25"/>
<path d="M122.334 83.8801L122.782 84.6645C122.369 86.3242 121.84 88.0975 121.197 89.9846C120.577 91.8717 119.888 93.7587 119.13 95.6458C118.395 97.5556 117.649 99.3403 116.891 101H112.619C113.101 99.1812 113.572 97.26 114.031 95.2365C114.491 93.2358 114.904 91.2578 115.272 89.3025C115.662 87.3245 115.972 85.5171 116.202 83.8801H122.334Z" fill="#60BF84" fill-opacity="0.25"/>
<path d="M147.416 61.5083C150.838 61.5083 153.812 62.088 156.339 63.2475C158.865 64.3843 160.818 66.044 162.196 68.2266C163.597 70.4092 164.297 73.0579 164.297 76.1727C164.297 79.5831 163.551 82.5273 162.058 85.0055C160.565 87.4609 158.417 89.3594 155.615 90.7008C152.813 92.0194 149.46 92.6788 145.555 92.6788C142.937 92.6788 140.502 92.4514 138.251 91.9967C136 91.542 134.105 90.8599 132.567 89.9505V84.5622C134.243 85.5625 136.276 86.3583 138.665 86.9494C141.053 87.5405 143.373 87.8361 145.624 87.8361C148.174 87.8361 150.401 87.4382 152.308 86.6425C154.237 85.824 155.73 84.5963 156.787 82.9593C157.866 81.2996 158.406 79.2193 158.406 76.7184C158.406 73.399 157.372 70.8412 155.305 69.0451C153.261 67.2263 150.022 66.3168 145.59 66.3168C144.166 66.3168 142.604 66.4305 140.904 66.6579C139.204 66.8852 137.803 67.1353 136.701 67.4081L133.807 65.5325L135.736 42.1375H160.783V47.3212H140.628L139.354 62.3608C140.227 62.179 141.352 61.9971 142.73 61.8152C144.108 61.6106 145.67 61.5083 147.416 61.5083Z" fill="#60BF84" fill-opacity="0.25"/>
<path d="M178.388 91.9967L199.06 47.3212H171.601V42.1375H205.192V46.5028L184.659 91.9967H178.388Z" fill="#60BF84" fill-opacity="0.25"/>
<path d="M247.775 80.4356H240.23V91.9967H234.649V80.4356H210.291V75.6612L234.27 41.8647H240.23V75.3201H247.775V80.4356ZM234.649 75.3201V59.0187C234.649 57.7682 234.66 56.6428 234.683 55.6425C234.706 54.6194 234.741 53.6758 234.787 52.8119C234.833 51.9252 234.867 51.084 234.89 50.2882C234.936 49.4925 234.971 48.7081 234.994 47.9351H234.718C234.282 48.8445 233.776 49.8108 233.202 50.8339C232.651 51.8343 232.088 52.7323 231.514 53.5281L215.976 75.3201H234.649Z" fill="#60BF84" fill-opacity="0.25"/>
<path d="M254.321 88.4499C254.321 86.8585 254.712 85.733 255.493 85.0737C256.274 84.3916 257.227 84.0506 258.352 84.0506C259.524 84.0506 260.511 84.3916 261.315 85.0737C262.119 85.733 262.521 86.8585 262.521 88.4499C262.521 90.0187 262.119 91.1669 261.315 91.8944C260.511 92.5992 259.524 92.9516 258.352 92.9516C257.227 92.9516 256.274 92.5992 255.493 91.8944C254.712 91.1669 254.321 90.0187 254.321 88.4499Z" fill="#60BF84" fill-opacity="0.25"/>
<path d="M302.313 53.7668C302.313 55.9949 301.877 57.9274 301.004 59.5644C300.132 61.2013 298.914 62.5427 297.352 63.5886C295.79 64.6117 293.953 65.3278 291.84 65.7371V66.0099C295.836 66.5101 298.834 67.7833 300.832 69.8295C302.853 71.8757 303.864 74.5585 303.864 77.8779C303.864 80.7653 303.175 83.3231 301.797 85.5512C300.442 87.7792 298.351 89.5299 295.526 90.8031C292.724 92.0535 289.13 92.6788 284.743 92.6788C282.078 92.6788 279.609 92.4628 277.336 92.0308C275.085 91.6216 272.926 90.9281 270.858 89.9505V84.6304C272.949 85.6535 275.222 86.4606 277.68 87.0517C280.138 87.6201 282.515 87.9043 284.812 87.9043C289.405 87.9043 292.724 87.0062 294.768 85.2101C296.813 83.3913 297.835 80.9131 297.835 77.7756C297.835 75.6157 297.26 73.8764 296.112 72.5578C294.987 71.2164 293.356 70.2387 291.22 69.6249C289.107 68.9883 286.557 68.67 283.571 68.67H278.541V63.8273H283.606C286.339 63.8273 288.659 63.4294 290.565 62.6337C292.472 61.8379 293.919 60.7239 294.906 59.2915C295.917 57.8365 296.422 56.1199 296.422 54.1419C296.422 51.6183 295.572 49.6744 293.873 48.3102C292.173 46.9234 289.865 46.2299 286.948 46.2299C285.156 46.2299 283.525 46.4118 282.055 46.7756C280.586 47.1393 279.207 47.6395 277.921 48.2761C276.635 48.9127 275.349 49.6516 274.063 50.4928L271.169 46.6051C273.006 45.1955 275.245 43.9791 277.887 42.956C280.528 41.9329 283.525 41.4213 286.879 41.4213C292.024 41.4213 295.882 42.5809 298.455 44.8999C301.027 47.2189 302.313 50.1746 302.313 53.7668Z" fill="#60BF84" fill-opacity="0.25"/>
<path d="M312.064 70.6821C312.064 67.681 312.27 64.7481 312.684 61.8834C313.12 59.0187 313.844 56.3586 314.854 53.9032C315.865 51.425 317.243 49.2538 318.988 47.3894C320.734 45.5251 322.905 44.07 325.5 43.0242C328.118 41.9556 331.253 41.4213 334.905 41.4213C335.939 41.4213 337.053 41.4782 338.247 41.5919C339.442 41.6828 340.429 41.842 341.21 42.0693V46.9461C340.36 46.6505 339.384 46.4345 338.282 46.2981C337.202 46.1617 336.111 46.0935 335.009 46.0935C330.737 46.0935 327.372 47.0143 324.914 48.8559C322.48 50.6975 320.723 53.1984 319.643 56.3586C318.564 59.4961 317.943 63.0315 317.783 66.9648H318.162C318.874 65.828 319.781 64.8049 320.883 63.8955C321.986 62.9633 323.318 62.2244 324.88 61.6788C326.465 61.1331 328.302 60.8603 330.392 60.8603C333.332 60.8603 335.893 61.4514 338.075 62.6337C340.28 63.8159 341.98 65.5325 343.174 67.7833C344.391 70.0341 345 72.7624 345 75.9681C345 79.4012 344.357 82.3682 343.071 84.8691C341.784 87.37 339.947 89.3025 337.558 90.6667C335.193 92.0081 332.367 92.6788 329.083 92.6788C326.625 92.6788 324.363 92.2127 322.296 91.2805C320.229 90.3484 318.426 88.9615 316.887 87.1199C315.371 85.2783 314.188 82.9934 313.338 80.2651C312.488 77.5141 312.064 74.3198 312.064 70.6821ZM329.014 87.9043C332.138 87.9043 334.641 86.9153 336.525 84.9373C338.408 82.9593 339.35 79.9696 339.35 75.9681C339.35 72.6942 338.511 70.1023 336.835 68.1925C335.158 66.2827 332.632 65.3278 329.255 65.3278C326.958 65.3278 324.96 65.8053 323.261 66.7602C321.561 67.6923 320.24 68.8746 319.299 70.3069C318.357 71.7393 317.886 73.1944 317.886 74.6722C317.886 76.1727 318.104 77.696 318.541 79.242C319 80.788 319.689 82.2204 320.608 83.5391C321.526 84.8577 322.686 85.9149 324.087 86.7107C325.488 87.5064 327.131 87.9043 329.014 87.9043Z" fill="#60BF84" fill-opacity="0.25"/>
</g>
<g filter="url(#filter3_f_544_203)">
<path d="M1321.17 31.0858V28.3135C1320.16 28.2959 1319.19 28.2079 1318.26 28.0495C1317.34 27.8911 1316.6 27.6843 1316.01 27.429V25.2904C1316.62 25.5721 1317.4 25.8185 1318.35 26.0297C1319.31 26.2409 1320.25 26.3553 1321.17 26.3729V20.5644C1320.01 20.2387 1319.04 19.8691 1318.28 19.4554C1317.52 19.033 1316.95 18.5182 1316.57 17.9109C1316.19 17.3036 1316 16.5688 1316 15.7063C1316 14.8086 1316.21 14.0429 1316.63 13.4092C1317.07 12.7668 1317.67 12.2651 1318.45 11.9043C1319.22 11.5435 1320.13 11.3366 1321.17 11.2838V9H1322.79V11.2574C1323.73 11.2838 1324.59 11.3894 1325.37 11.5743C1326.14 11.7503 1326.86 11.9791 1327.52 12.2607L1326.83 14.0957C1326.23 13.8581 1325.59 13.6557 1324.89 13.4884C1324.19 13.3212 1323.49 13.2068 1322.79 13.1452V18.9142C1323.97 19.2574 1324.96 19.6227 1325.75 20.0099C1326.55 20.3971 1327.16 20.8768 1327.56 21.4488C1327.97 22.0209 1328.17 22.7602 1328.17 23.6667C1328.17 24.9516 1327.7 25.9901 1326.75 26.7822C1325.81 27.5655 1324.49 28.0407 1322.79 28.2079V31.0858H1321.17ZM1322.79 26.2541C1323.87 26.1485 1324.68 25.8889 1325.21 25.4752C1325.74 25.0528 1326.01 24.4984 1326.01 23.8119C1326.01 23.319 1325.91 22.9142 1325.7 22.5974C1325.49 22.2805 1325.16 22.0077 1324.69 21.7789C1324.22 21.5413 1323.59 21.3168 1322.79 21.1056V26.2541ZM1321.17 18.3597V13.198C1320.51 13.242 1319.96 13.3652 1319.51 13.5677C1319.06 13.7701 1318.72 14.0341 1318.49 14.3597C1318.27 14.6854 1318.16 15.0726 1318.16 15.5215C1318.16 16.0407 1318.25 16.4763 1318.45 16.8284C1318.65 17.1716 1318.97 17.4664 1319.41 17.7129C1319.86 17.9505 1320.45 18.1661 1321.17 18.3597Z" fill="#60BF84"/>
<path d="M1337.27 17.7129C1338.59 17.7129 1339.73 17.9373 1340.7 18.3861C1341.67 18.8262 1342.42 19.4686 1342.95 20.3135C1343.48 21.1584 1343.75 22.1837 1343.75 23.3894C1343.75 24.7096 1343.47 25.8493 1342.89 26.8086C1342.32 27.7591 1341.5 28.4939 1340.42 29.0132C1339.34 29.5237 1338.06 29.7789 1336.56 29.7789C1335.55 29.7789 1334.62 29.6909 1333.75 29.5149C1332.89 29.3388 1332.16 29.0748 1331.57 28.7228V26.637C1332.21 27.0242 1332.99 27.3322 1333.91 27.5611C1334.83 27.7899 1335.72 27.9043 1336.58 27.9043C1337.56 27.9043 1338.42 27.7503 1339.15 27.4422C1339.89 27.1254 1340.46 26.6502 1340.87 26.0165C1341.28 25.374 1341.49 24.5688 1341.49 23.6007C1341.49 22.3157 1341.09 21.3256 1340.3 20.6304C1339.52 19.9263 1338.27 19.5743 1336.57 19.5743C1336.02 19.5743 1335.42 19.6183 1334.77 19.7063C1334.12 19.7943 1333.58 19.8911 1333.16 19.9967L1332.05 19.2706L1332.79 10.2145H1342.4V12.2211H1334.67L1334.18 18.0429C1334.51 17.9725 1334.94 17.9021 1335.47 17.8317C1336 17.7525 1336.6 17.7129 1337.27 17.7129Z" fill="#60BF84"/>
<path d="M1350.16 26.3729L1350.33 26.6766C1350.17 27.319 1349.97 28.0055 1349.72 28.736C1349.48 29.4664 1349.22 30.1969 1348.93 30.9274C1348.64 31.6667 1348.36 32.3575 1348.07 33H1346.43C1346.61 32.2959 1346.79 31.5523 1346.97 30.769C1347.14 29.9945 1347.3 29.2288 1347.44 28.4719C1347.59 27.7063 1347.71 27.0066 1347.8 26.3729H1350.16Z" fill="#60BF84"/>
<path d="M1366.37 18.4389C1366.37 19.6095 1366.29 20.7492 1366.12 21.8581C1365.96 22.967 1365.69 24.0011 1365.29 24.9604C1364.9 25.9197 1364.37 26.7602 1363.7 27.4818C1363.03 28.2035 1362.19 28.7712 1361.17 29.1848C1360.17 29.5897 1358.97 29.7921 1357.56 29.7921C1357.18 29.7921 1356.75 29.7657 1356.27 29.7129C1355.78 29.6689 1355.39 29.6029 1355.08 29.5149V27.6139C1355.4 27.7283 1355.79 27.8207 1356.23 27.8911C1356.67 27.9527 1357.1 27.9835 1357.52 27.9835C1359.17 27.9835 1360.47 27.6315 1361.41 26.9274C1362.36 26.2145 1363.04 25.2508 1363.45 24.0363C1363.86 22.813 1364.1 21.44 1364.15 19.9175H1363.99C1363.73 20.3399 1363.38 20.7316 1362.95 21.0924C1362.52 21.4444 1362.01 21.7305 1361.4 21.9505C1360.79 22.1617 1360.08 22.2673 1359.27 22.2673C1358.15 22.2673 1357.17 22.0385 1356.33 21.5809C1355.5 21.1232 1354.86 20.4587 1354.39 19.5875C1353.93 18.7162 1353.7 17.6645 1353.7 16.4323C1353.7 15.1034 1353.95 13.9549 1354.45 12.9868C1354.97 12.0099 1355.68 11.2574 1356.6 10.7294C1357.51 10.2013 1358.6 9.93729 1359.84 9.93729C1360.79 9.93729 1361.66 10.1177 1362.46 10.4785C1363.25 10.8394 1363.94 11.3806 1364.52 12.1023C1365.11 12.8152 1365.57 13.6997 1365.88 14.7558C1366.21 15.8119 1366.37 17.0396 1366.37 18.4389ZM1359.84 11.7987C1358.67 11.7987 1357.71 12.1815 1356.98 12.9472C1356.26 13.7129 1355.9 14.8658 1355.9 16.4059C1355.9 17.6821 1356.21 18.6898 1356.84 19.429C1357.46 20.1683 1358.43 20.538 1359.73 20.538C1360.63 20.538 1361.41 20.3575 1362.06 19.9967C1362.72 19.6359 1363.23 19.1782 1363.58 18.6238C1363.94 18.0693 1364.12 17.5016 1364.12 16.9208C1364.12 16.3399 1364.04 15.7503 1363.86 15.1518C1363.69 14.5534 1363.43 14.0033 1363.08 13.5017C1362.73 12.9912 1362.28 12.582 1361.74 12.2739C1361.21 11.9571 1360.57 11.7987 1359.84 11.7987Z" fill="#60BF84"/>
<path d="M1375.29 17.7129C1376.6 17.7129 1377.75 17.9373 1378.72 18.3861C1379.69 18.8262 1380.44 19.4686 1380.96 20.3135C1381.5 21.1584 1381.77 22.1837 1381.77 23.3894C1381.77 24.7096 1381.48 25.8493 1380.91 26.8086C1380.34 27.7591 1379.51 28.4939 1378.44 29.0132C1377.36 29.5237 1376.07 29.7789 1374.58 29.7789C1373.57 29.7789 1372.63 29.6909 1371.77 29.5149C1370.91 29.3388 1370.18 29.0748 1369.59 28.7228V26.637C1370.23 27.0242 1371.01 27.3322 1371.93 27.5611C1372.85 27.7899 1373.74 27.9043 1374.6 27.9043C1375.58 27.9043 1376.44 27.7503 1377.17 27.4422C1377.91 27.1254 1378.48 26.6502 1378.89 26.0165C1379.3 25.374 1379.51 24.5688 1379.51 23.6007C1379.51 22.3157 1379.11 21.3256 1378.32 20.6304C1377.53 19.9263 1376.29 19.5743 1374.59 19.5743C1374.04 19.5743 1373.44 19.6183 1372.79 19.7063C1372.14 19.7943 1371.6 19.8911 1371.18 19.9967L1370.06 19.2706L1370.8 10.2145H1380.42V12.2211H1372.68L1372.19 18.0429C1372.53 17.9725 1372.96 17.9021 1373.49 17.8317C1374.02 17.7525 1374.62 17.7129 1375.29 17.7129Z" fill="#60BF84"/>
<path d="M1398.32 25.0396H1395.42V29.5149H1393.28V25.0396H1383.93V23.1914L1393.13 10.1089H1395.42V23.0594H1398.32V25.0396ZM1393.28 23.0594V16.7492C1393.28 16.2651 1393.28 15.8295 1393.29 15.4422C1393.3 15.0462 1393.32 14.681 1393.33 14.3465C1393.35 14.0033 1393.36 13.6777 1393.37 13.3696C1393.39 13.0616 1393.4 12.758 1393.41 12.4587H1393.31C1393.14 12.8108 1392.94 13.1848 1392.72 13.5809C1392.51 13.9681 1392.3 14.3157 1392.08 14.6238L1386.11 23.0594H1393.28Z" fill="#60BF84"/>
<path d="M1403.68 26.3729L1403.85 26.6766C1403.69 27.319 1403.49 28.0055 1403.24 28.736C1403 29.4664 1402.74 30.1969 1402.45 30.9274C1402.16 31.6667 1401.88 32.3575 1401.59 33H1399.95C1400.13 32.2959 1400.31 31.5523 1400.49 30.769C1400.67 29.9945 1400.82 29.2288 1400.97 28.4719C1401.12 27.7063 1401.23 27.0066 1401.32 26.3729H1403.68Z" fill="#60BF84"/>
<path d="M1419.97 19.8383C1419.97 21.4048 1419.86 22.8042 1419.62 24.0363C1419.38 25.2684 1419 26.3113 1418.49 27.165C1417.98 28.0187 1417.32 28.67 1416.51 29.1188C1415.7 29.5589 1414.72 29.7789 1413.59 29.7789C1412.15 29.7789 1410.96 29.3872 1410.01 28.604C1409.08 27.8207 1408.38 26.6898 1407.91 25.2112C1407.45 23.7239 1407.22 21.9329 1407.22 19.8383C1407.22 17.7789 1407.43 16.0099 1407.84 14.5314C1408.27 13.044 1408.95 11.9043 1409.88 11.1122C1410.82 10.3113 1412.05 9.91089 1413.59 9.91089C1415.04 9.91089 1416.24 10.3069 1417.18 11.099C1418.13 11.8823 1418.83 13.0176 1419.29 14.505C1419.75 15.9835 1419.97 17.7613 1419.97 19.8383ZM1409.43 19.8383C1409.43 21.6337 1409.57 23.1298 1409.84 24.3267C1410.12 25.5237 1410.56 26.4213 1411.16 27.0198C1411.78 27.6095 1412.59 27.9043 1413.59 27.9043C1414.58 27.9043 1415.38 27.6095 1415.99 27.0198C1416.61 26.4301 1417.06 25.5369 1417.33 24.3399C1417.61 23.143 1417.75 21.6425 1417.75 19.8383C1417.75 18.0693 1417.62 16.5908 1417.34 15.4026C1417.07 14.2057 1416.63 13.308 1416.02 12.7096C1415.41 12.1023 1414.6 11.7987 1413.59 11.7987C1412.57 11.7987 1411.76 12.1023 1411.15 12.7096C1410.54 13.308 1410.1 14.2057 1409.83 15.4026C1409.56 16.5908 1409.43 18.0693 1409.43 19.8383Z" fill="#60BF84"/>
<path d="M1435.37 29.5149H1422.7V27.6799L1427.87 22.4389C1428.83 21.4708 1429.64 20.6084 1430.29 19.8515C1430.95 19.0946 1431.46 18.3509 1431.8 17.6205C1432.14 16.8812 1432.32 16.0715 1432.32 15.1914C1432.32 14.1001 1431.99 13.2684 1431.34 12.6964C1430.69 12.1155 1429.84 11.8251 1428.78 11.8251C1427.86 11.8251 1427.04 11.9835 1426.32 12.3003C1425.61 12.6172 1424.88 13.066 1424.13 13.6469L1422.95 12.1683C1423.46 11.7371 1424.02 11.3542 1424.62 11.0198C1425.23 10.6854 1425.87 10.4213 1426.56 10.2277C1427.26 10.0341 1428 9.93729 1428.78 9.93729C1429.98 9.93729 1431 10.1441 1431.87 10.5578C1432.73 10.9714 1433.4 11.5611 1433.86 12.3267C1434.34 13.0924 1434.58 14.0033 1434.58 15.0594C1434.58 16.0803 1434.38 17.0308 1433.97 17.9109C1433.56 18.7822 1433 19.6491 1432.26 20.5116C1431.53 21.3652 1430.68 22.2717 1429.7 23.231L1425.49 27.4158V27.5083H1435.37V29.5149Z" fill="#60BF84"/>
<path d="M1446.38 29.5149H1444.24V15.8383C1444.24 15.319 1444.24 14.8746 1444.24 14.505C1444.24 14.1265 1444.25 13.7833 1444.26 13.4752C1444.28 13.1584 1444.3 12.8372 1444.33 12.5116C1444.05 12.7932 1443.8 13.0352 1443.56 13.2376C1443.32 13.4312 1443.03 13.6733 1442.67 13.9637L1440.47 15.7327L1439.31 14.2409L1444.55 10.2145H1446.38V29.5149Z" fill="#60BF84"/>
<path d="M1454.36 28.1419C1454.36 27.5259 1454.5 27.0902 1454.8 26.835C1455.1 26.571 1455.47 26.4389 1455.9 26.4389C1456.35 26.4389 1456.73 26.571 1457.04 26.835C1457.35 27.0902 1457.5 27.5259 1457.5 28.1419C1457.5 28.7492 1457.35 29.1936 1457.04 29.4752C1456.73 29.7481 1456.35 29.8845 1455.9 29.8845C1455.47 29.8845 1455.1 29.7481 1454.8 29.4752C1454.5 29.1936 1454.36 28.7492 1454.36 28.1419Z" fill="#60BF84"/>
<path d="M1469 29.5149H1466.86V15.8383C1466.86 15.319 1466.86 14.8746 1466.86 14.505C1466.86 14.1265 1466.87 13.7833 1466.88 13.4752C1466.9 13.1584 1466.92 12.8372 1466.95 12.5116C1466.68 12.7932 1466.42 13.0352 1466.18 13.2376C1465.94 13.4312 1465.65 13.6733 1465.29 13.9637L1463.09 15.7327L1461.93 14.2409L1467.17 10.2145H1469V29.5149Z" fill="#60BF84"/>
<path d="M1489 29.5149H1476.33V27.6799L1481.5 22.4389C1482.46 21.4708 1483.27 20.6084 1483.92 19.8515C1484.58 19.0946 1485.08 18.3509 1485.43 17.6205C1485.77 16.8812 1485.94 16.0715 1485.94 15.1914C1485.94 14.1001 1485.62 13.2684 1484.97 12.6964C1484.32 12.1155 1483.47 11.8251 1482.41 11.8251C1481.49 11.8251 1480.67 11.9835 1479.95 12.3003C1479.24 12.6172 1478.51 13.066 1477.76 13.6469L1476.58 12.1683C1477.09 11.7371 1477.65 11.3542 1478.25 11.0198C1478.85 10.6854 1479.5 10.4213 1480.19 10.2277C1480.89 10.0341 1481.63 9.93729 1482.41 9.93729C1483.6 9.93729 1484.63 10.1441 1485.49 10.5578C1486.36 10.9714 1487.02 11.5611 1487.49 12.3267C1487.97 13.0924 1488.21 14.0033 1488.21 15.0594C1488.21 16.0803 1488 17.0308 1487.6 17.9109C1487.19 18.7822 1486.62 19.6491 1485.89 20.5116C1485.16 21.3652 1484.3 22.2717 1483.33 23.231L1479.12 27.4158V27.5083H1489V29.5149Z" fill="#60BF84"/>
</g>
<g filter="url(#filter4_f_544_203)">
<path d="M1293.79 232.847V229.728C1292.66 229.708 1291.57 229.609 1290.53 229.431C1289.51 229.252 1288.67 229.02 1288.01 228.733V226.327C1288.7 226.644 1289.57 226.921 1290.64 227.158C1291.7 227.396 1292.75 227.525 1293.79 227.545V221.01C1292.49 220.644 1291.41 220.228 1290.55 219.762C1289.7 219.287 1289.06 218.708 1288.64 218.025C1288.21 217.342 1288 216.515 1288 215.545C1288 214.535 1288.24 213.673 1288.71 212.96C1289.19 212.238 1289.87 211.673 1290.74 211.267C1291.61 210.861 1292.63 210.629 1293.79 210.569V208H1295.6V210.54C1296.65 210.569 1297.62 210.688 1298.49 210.896C1299.36 211.094 1300.16 211.351 1300.9 211.668L1300.13 213.733C1299.46 213.465 1298.73 213.238 1297.95 213.05C1297.17 212.861 1296.39 212.733 1295.6 212.663V219.153C1296.92 219.54 1298.03 219.95 1298.92 220.386C1299.81 220.822 1300.49 221.361 1300.94 222.005C1301.4 222.649 1301.63 223.48 1301.63 224.5C1301.63 225.946 1301.1 227.114 1300.04 228.005C1298.98 228.886 1297.5 229.421 1295.6 229.609V232.847H1293.79ZM1295.6 227.411C1296.81 227.292 1297.72 227 1298.31 226.535C1298.91 226.059 1299.21 225.436 1299.21 224.663C1299.21 224.109 1299.09 223.653 1298.86 223.297C1298.63 222.941 1298.25 222.634 1297.73 222.376C1297.21 222.109 1296.5 221.856 1295.6 221.619V227.411ZM1293.79 218.53V212.723C1293.05 212.772 1292.43 212.911 1291.92 213.139C1291.42 213.366 1291.04 213.663 1290.78 214.03C1290.54 214.396 1290.41 214.832 1290.41 215.337C1290.41 215.921 1290.52 216.411 1290.74 216.807C1290.97 217.193 1291.33 217.525 1291.82 217.802C1292.32 218.069 1292.98 218.312 1293.79 218.53Z" fill="#60BF84"/>
<path d="M1319.16 231.079H1304.97V229.015L1310.76 223.119C1311.84 222.03 1312.74 221.059 1313.48 220.208C1314.22 219.356 1314.78 218.52 1315.16 217.698C1315.55 216.866 1315.74 215.955 1315.74 214.965C1315.74 213.738 1315.38 212.802 1314.65 212.158C1313.92 211.505 1312.97 211.178 1311.79 211.178C1310.75 211.178 1309.83 211.356 1309.03 211.713C1308.23 212.069 1307.41 212.574 1306.57 213.228L1305.26 211.564C1305.83 211.079 1306.45 210.649 1307.12 210.272C1307.8 209.896 1308.53 209.599 1309.3 209.381C1310.08 209.163 1310.91 209.054 1311.79 209.054C1313.12 209.054 1314.27 209.287 1315.24 209.752C1316.21 210.218 1316.95 210.881 1317.47 211.743C1318.01 212.604 1318.27 213.629 1318.27 214.817C1318.27 215.965 1318.05 217.035 1317.59 218.025C1317.14 219.005 1316.5 219.98 1315.68 220.95C1314.86 221.911 1313.9 222.931 1312.81 224.01L1308.1 228.718V228.822H1319.16V231.079Z" fill="#60BF84"/>
<path d="M1336.52 231.079H1322.33V229.015L1328.12 223.119C1329.2 222.03 1330.1 221.059 1330.83 220.208C1331.57 219.356 1332.14 218.52 1332.52 217.698C1332.91 216.866 1333.1 215.955 1333.1 214.965C1333.1 213.738 1332.73 212.802 1332 212.158C1331.28 211.505 1330.33 211.178 1329.15 211.178C1328.11 211.178 1327.19 211.356 1326.39 211.713C1325.59 212.069 1324.77 212.574 1323.93 213.228L1322.61 211.564C1323.19 211.079 1323.81 210.649 1324.48 210.272C1325.16 209.896 1325.89 209.599 1326.66 209.381C1327.44 209.163 1328.27 209.054 1329.15 209.054C1330.48 209.054 1331.63 209.287 1332.6 209.752C1333.56 210.218 1334.31 210.881 1334.83 211.743C1335.37 212.604 1335.63 213.629 1335.63 214.817C1335.63 215.965 1335.41 217.035 1334.95 218.025C1334.5 219.005 1333.86 219.98 1333.04 220.95C1332.22 221.911 1331.26 222.931 1330.17 224.01L1325.46 228.718V228.822H1336.52V231.079Z" fill="#60BF84"/>
<path d="M1343.6 227.545L1343.79 227.886C1343.62 228.609 1343.39 229.381 1343.11 230.203C1342.85 231.025 1342.55 231.847 1342.22 232.668C1341.91 233.5 1341.59 234.277 1341.26 235H1339.42C1339.63 234.208 1339.83 233.371 1340.03 232.49C1340.23 231.619 1340.41 230.757 1340.56 229.906C1340.73 229.045 1340.87 228.257 1340.96 227.545H1343.6Z" fill="#60BF84"/>
<path d="M1356.69 231.079H1354.29V215.693C1354.29 215.109 1354.29 214.609 1354.29 214.193C1354.3 213.767 1354.31 213.381 1354.32 213.035C1354.34 212.678 1354.37 212.317 1354.4 211.95C1354.09 212.267 1353.81 212.54 1353.54 212.767C1353.27 212.985 1352.94 213.257 1352.55 213.584L1350.07 215.574L1348.79 213.896L1354.65 209.366H1356.69V231.079Z" fill="#60BF84"/>
<path d="M1371.74 217.802C1373.21 217.802 1374.49 218.054 1375.58 218.559C1376.66 219.054 1377.5 219.777 1378.1 220.728C1378.7 221.678 1379 222.832 1379 224.188C1379 225.673 1378.68 226.955 1378.04 228.035C1377.4 229.104 1376.47 229.931 1375.27 230.515C1374.06 231.089 1372.62 231.376 1370.94 231.376C1369.82 231.376 1368.77 231.277 1367.8 231.079C1366.83 230.881 1366.02 230.584 1365.36 230.188V227.842C1366.08 228.277 1366.95 228.624 1367.98 228.881C1369.01 229.139 1370 229.267 1370.97 229.267C1372.07 229.267 1373.03 229.094 1373.85 228.748C1374.68 228.391 1375.32 227.856 1375.77 227.144C1376.24 226.421 1376.47 225.515 1376.47 224.426C1376.47 222.98 1376.02 221.866 1375.13 221.084C1374.26 220.292 1372.86 219.896 1370.96 219.896C1370.35 219.896 1369.67 219.946 1368.94 220.045C1368.21 220.144 1367.61 220.252 1367.14 220.371L1365.89 219.554L1366.72 209.366H1377.49V211.624H1368.82L1368.28 218.173C1368.65 218.094 1369.14 218.015 1369.73 217.936C1370.32 217.847 1370.99 217.802 1371.74 217.802Z" fill="#60BF84"/>
<path d="M1389.1 217.802C1390.57 217.802 1391.85 218.054 1392.94 218.559C1394.02 219.054 1394.86 219.777 1395.46 220.728C1396.06 221.678 1396.36 222.832 1396.36 224.188C1396.36 225.673 1396.04 226.955 1395.4 228.035C1394.75 229.104 1393.83 229.931 1392.63 230.515C1391.42 231.089 1389.98 231.376 1388.3 231.376C1387.18 231.376 1386.13 231.277 1385.16 231.079C1384.19 230.881 1383.38 230.584 1382.72 230.188V227.842C1383.44 228.277 1384.31 228.624 1385.34 228.881C1386.37 229.139 1387.36 229.267 1388.33 229.267C1389.43 229.267 1390.38 229.094 1391.2 228.748C1392.03 228.391 1392.68 227.856 1393.13 227.144C1393.59 226.421 1393.83 225.515 1393.83 224.426C1393.83 222.98 1393.38 221.866 1392.49 221.084C1391.61 220.292 1390.22 219.896 1388.32 219.896C1387.7 219.896 1387.03 219.946 1386.3 220.045C1385.57 220.144 1384.97 220.252 1384.49 220.371L1383.25 219.554L1384.08 209.366H1394.85V211.624H1386.18L1385.64 218.173C1386.01 218.094 1386.49 218.015 1387.09 217.936C1387.68 217.847 1388.35 217.802 1389.1 217.802Z" fill="#60BF84"/>
<path d="M1400.34 229.535C1400.34 228.842 1400.51 228.351 1400.85 228.064C1401.18 227.767 1401.59 227.619 1402.08 227.619C1402.58 227.619 1403 227.767 1403.35 228.064C1403.7 228.351 1403.87 228.842 1403.87 229.535C1403.87 230.218 1403.7 230.718 1403.35 231.035C1403 231.342 1402.58 231.495 1402.08 231.495C1401.59 231.495 1401.18 231.342 1400.85 231.035C1400.51 230.718 1400.34 230.218 1400.34 229.535Z" fill="#60BF84"/>
<path d="M1420.97 214.431C1420.97 215.401 1420.79 216.243 1420.41 216.955C1420.04 217.668 1419.51 218.252 1418.84 218.708C1418.17 219.153 1417.38 219.465 1416.47 219.644V219.762C1418.19 219.98 1419.48 220.535 1420.34 221.426C1421.21 222.317 1421.64 223.485 1421.64 224.931C1421.64 226.188 1421.35 227.302 1420.75 228.272C1420.17 229.243 1419.27 230.005 1418.06 230.559C1416.85 231.104 1415.31 231.376 1413.42 231.376C1412.28 231.376 1411.21 231.282 1410.24 231.094C1409.27 230.916 1408.34 230.614 1407.45 230.188V227.871C1408.35 228.317 1409.33 228.668 1410.38 228.926C1411.44 229.173 1412.46 229.297 1413.45 229.297C1415.43 229.297 1416.85 228.906 1417.73 228.124C1418.61 227.332 1419.05 226.252 1419.05 224.886C1419.05 223.946 1418.8 223.188 1418.31 222.614C1417.82 222.03 1417.12 221.604 1416.21 221.337C1415.3 221.059 1414.2 220.921 1412.92 220.921H1410.76V218.812H1412.93C1414.11 218.812 1415.1 218.639 1415.92 218.292C1416.74 217.946 1417.37 217.46 1417.79 216.837C1418.22 216.203 1418.44 215.455 1418.44 214.594C1418.44 213.495 1418.08 212.649 1417.35 212.054C1416.62 211.45 1415.62 211.149 1414.37 211.149C1413.6 211.149 1412.9 211.228 1412.27 211.386C1411.63 211.545 1411.04 211.762 1410.49 212.04C1409.94 212.317 1409.38 212.639 1408.83 213.005L1407.59 211.312C1408.38 210.698 1409.34 210.168 1410.47 209.723C1411.61 209.277 1412.9 209.054 1414.34 209.054C1416.55 209.054 1418.21 209.559 1419.32 210.569C1420.42 211.579 1420.97 212.866 1420.97 214.431Z" fill="#60BF84"/>
<path d="M1438.33 214.431C1438.33 215.401 1438.15 216.243 1437.77 216.955C1437.4 217.668 1436.87 218.252 1436.2 218.708C1435.53 219.153 1434.74 219.465 1433.83 219.644V219.762C1435.55 219.98 1436.84 220.535 1437.7 221.426C1438.57 222.317 1439 223.485 1439 224.931C1439 226.188 1438.7 227.302 1438.11 228.272C1437.53 229.243 1436.63 230.005 1435.42 230.559C1434.21 231.104 1432.67 231.376 1430.78 231.376C1429.63 231.376 1428.57 231.282 1427.6 231.094C1426.63 230.916 1425.7 230.614 1424.81 230.188V227.871C1425.71 228.317 1426.69 228.668 1427.74 228.926C1428.8 229.173 1429.82 229.297 1430.81 229.297C1432.78 229.297 1434.21 228.906 1435.09 228.124C1435.97 227.332 1436.41 226.252 1436.41 224.886C1436.41 223.946 1436.16 223.188 1435.67 222.614C1435.18 222.03 1434.48 221.604 1433.56 221.337C1432.66 221.059 1431.56 220.921 1430.28 220.921H1428.11V218.812H1430.29C1431.47 218.812 1432.46 218.639 1433.28 218.292C1434.1 217.946 1434.72 217.46 1435.15 216.837C1435.58 216.203 1435.8 215.455 1435.8 214.594C1435.8 213.495 1435.44 212.649 1434.7 212.054C1433.97 211.45 1432.98 211.149 1431.73 211.149C1430.96 211.149 1430.26 211.228 1429.62 211.386C1428.99 211.545 1428.4 211.762 1427.85 212.04C1427.29 212.317 1426.74 212.639 1426.19 213.005L1424.94 211.312C1425.73 210.698 1426.7 210.168 1427.83 209.723C1428.97 209.277 1430.26 209.054 1431.7 209.054C1433.91 209.054 1435.57 209.559 1436.67 210.569C1437.78 211.579 1438.33 212.866 1438.33 214.431Z" fill="#60BF84"/>
</g>
<g filter="url(#filter5_f_544_203)">
<path d="M-24.4617 1027.89V1023.38C-26.1359 1023.36 -27.7373 1023.21 -29.2659 1022.96C-30.7799 1022.7 -32.0173 1022.36 -32.9782 1021.95V1018.47C-31.9737 1018.93 -30.6853 1019.33 -29.113 1019.67C-27.5407 1020.02 -25.9903 1020.2 -24.4617 1020.23V1010.79C-26.3834 1010.26 -27.9775 1009.66 -29.244 1008.99C-30.496 1008.3 -31.435 1007.47 -32.061 1006.48C-32.687 1005.49 -33 1004.3 -33 1002.9C-33 1001.44 -32.6506 1000.19 -31.9518 999.165C-31.2385 998.121 -30.2413 997.306 -28.9601 996.719C-27.679 996.133 -26.1796 995.797 -24.4617 995.711V992H-21.7976V995.668C-20.2399 995.711 -18.8205 995.883 -17.5394 996.183C-16.2583 996.469 -15.0718 996.841 -13.9799 997.299L-15.1155 1000.28C-16.1054 999.894 -17.1754 999.565 -18.3255 999.294C-19.4756 999.022 -20.6329 998.836 -21.7976 998.736V1008.11C-19.8468 1008.67 -18.2163 1009.26 -16.9061 1009.89C-15.5813 1010.52 -14.5841 1011.3 -13.9144 1012.23C-13.2447 1013.16 -12.9099 1014.36 -12.9099 1015.83C-12.9099 1017.92 -13.6888 1019.61 -15.2465 1020.9C-16.8042 1022.17 -18.9879 1022.94 -21.7976 1023.21V1027.89H-24.4617ZM-21.7976 1020.04C-20.007 1019.87 -18.6749 1019.44 -17.8014 1018.77C-16.9134 1018.09 -16.4694 1017.18 -16.4694 1016.07C-16.4694 1015.27 -16.644 1014.61 -16.9934 1014.1C-17.3283 1013.58 -17.8815 1013.14 -18.6531 1012.77C-19.4246 1012.38 -20.4728 1012.01 -21.7976 1011.67V1020.04ZM-24.4617 1007.21V998.822C-25.5536 998.893 -26.4707 999.094 -27.2132 999.422C-27.9556 999.751 -28.5161 1000.18 -28.8946 1000.71C-29.2586 1001.24 -29.4406 1001.87 -29.4406 1002.6C-29.4406 1003.44 -29.2804 1004.15 -28.9601 1004.72C-28.6253 1005.28 -28.0939 1005.76 -27.366 1006.16C-26.6236 1006.54 -25.6555 1006.89 -24.4617 1007.21Z" fill="#60BF84"/>
<path d="M5.52056 1025.34H1.98296V1003.11C1.98296 1002.27 1.98296 1001.55 1.98296 1000.95C1.99752 1000.33 2.01208 999.773 2.02663 999.272C2.05575 998.757 2.09214 998.235 2.13582 997.706C1.68452 998.164 1.26234 998.557 0.86927 998.886C0.476204 999.201 -0.0114899 999.594 -0.593811 1000.07L-4.2406 1002.94L-6.14042 1000.52L2.50705 993.974H5.52056V1025.34Z" fill="#60BF84"/>
<path d="M37.359 1001.29C37.359 1002.69 37.0824 1003.91 36.5292 1004.94C35.976 1005.97 35.2044 1006.81 34.2145 1007.47C33.2245 1008.11 32.0599 1008.56 30.7205 1008.82V1008.99C33.2536 1009.3 35.1534 1010.11 36.42 1011.39C37.7011 1012.68 38.3417 1014.37 38.3417 1016.46C38.3417 1018.27 37.9049 1019.88 37.0314 1021.28C36.1725 1022.68 34.8477 1023.78 33.0571 1024.59C31.281 1025.37 29.0027 1025.77 26.2221 1025.77C24.5334 1025.77 22.9684 1025.63 21.5271 1025.36C20.1004 1025.1 18.732 1024.66 17.4218 1024.05V1020.7C18.7465 1021.35 20.1878 1021.85 21.7455 1022.23C23.3032 1022.58 24.81 1022.76 26.2658 1022.76C29.1774 1022.76 31.281 1022.2 32.5767 1021.07C33.8723 1019.92 34.5202 1018.36 34.5202 1016.39C34.5202 1015.03 34.1562 1013.94 33.4283 1013.11C32.715 1012.27 31.6814 1011.65 30.3275 1011.26C28.9881 1010.86 27.3722 1010.66 25.4796 1010.66H22.2914V1007.62H25.5015C27.2339 1007.62 28.7042 1007.37 29.9126 1006.87C31.1209 1006.37 32.038 1005.67 32.664 1004.76C33.3046 1003.85 33.6248 1002.77 33.6248 1001.52C33.6248 999.937 33.0862 998.715 32.0089 997.856C30.9316 996.984 29.4685 996.548 27.6197 996.548C26.4841 996.548 25.4505 996.662 24.5188 996.891C23.5871 997.12 22.7136 997.435 21.8984 997.835C21.0831 998.235 20.2679 998.7 19.4526 999.229L17.6183 996.784C18.7829 995.897 20.2023 995.132 21.8765 994.488C23.5507 993.845 25.4505 993.523 27.576 993.523C30.837 993.523 33.2827 994.252 34.9132 995.711C36.5437 997.17 37.359 999.029 37.359 1001.29Z" fill="#60BF84"/>
<path d="M48.9763 1020.23L49.2602 1020.72C48.9981 1021.77 48.6633 1022.88 48.2557 1024.07C47.8626 1025.26 47.4259 1026.44 46.9455 1027.63C46.4796 1028.83 46.0065 1029.96 45.526 1031H42.8183C43.124 1029.86 43.4224 1028.65 43.7136 1027.37C44.0047 1026.12 44.2668 1024.87 44.4997 1023.64C44.7472 1022.4 44.9437 1021.26 45.0893 1020.23H48.9763Z" fill="#60BF84"/>
<path d="M77.299 1018.06H72.5166V1025.34H68.979V1018.06H53.5402V1015.06L68.7388 993.802H72.5166V1014.85H77.299V1018.06ZM68.979 1014.85V1004.59C68.979 1003.81 68.9863 1003.1 69.0009 1002.47C69.0154 1001.83 69.0373 1001.23 69.0664 1000.69C69.0955 1000.13 69.1173 999.601 69.1319 999.101C69.161 998.6 69.1829 998.107 69.1974 997.62H69.0227C68.7461 998.193 68.4258 998.8 68.0619 999.444C67.7125 1000.07 67.3558 1000.64 66.9919 1001.14L57.1434 1014.85H68.979Z" fill="#60BF84"/>
<path d="M101.298 1025.34H80.378V1022.35L88.9163 1013.84C90.5031 1012.27 91.8352 1010.86 92.9125 1009.63C94.0043 1008.4 94.8341 1007.2 95.4019 1006.01C95.9696 1004.81 96.2535 1003.49 96.2535 1002.06C96.2535 1000.29 95.7149 998.936 94.6376 998.007C93.5748 997.063 92.17 996.591 90.423 996.591C88.8944 996.591 87.5405 996.848 86.3613 997.363C85.1821 997.878 83.9738 998.607 82.7364 999.551L80.7929 997.149C81.6373 996.448 82.5544 995.826 83.5444 995.282C84.5489 994.739 85.6189 994.31 86.7544 993.995C87.9045 993.68 89.1274 993.523 90.423 993.523C92.3884 993.523 94.0844 993.859 95.5111 994.531C96.9377 995.204 98.0369 996.162 98.8085 997.406C99.5946 998.65 99.9877 1000.13 99.9877 1001.85C99.9877 1003.51 99.6528 1005.05 98.9832 1006.48C98.3135 1007.9 97.3745 1009.3 96.1662 1010.71C94.9579 1012.09 93.5457 1013.57 91.9298 1015.13L84.9856 1021.93V1022.08H101.298V1025.34Z" fill="#60BF84"/>
<path d="M119.466 1025.34H115.929V1003.11C115.929 1002.27 115.929 1001.55 115.929 1000.95C115.943 1000.33 115.958 999.773 115.972 999.272C116.001 998.757 116.038 998.235 116.082 997.706C115.63 998.164 115.208 998.557 114.815 998.886C114.422 999.201 113.934 999.594 113.352 1000.07L109.705 1002.94L107.805 1000.52L116.453 993.974H119.466V1025.34Z" fill="#60BF84"/>
<path d="M132.634 1023.11C132.634 1022.1 132.882 1021.4 133.377 1020.98C133.871 1020.55 134.476 1020.34 135.189 1020.34C135.931 1020.34 136.557 1020.55 137.067 1020.98C137.577 1021.4 137.831 1022.1 137.831 1023.11C137.831 1024.09 137.577 1024.81 137.067 1025.27C136.557 1025.72 135.931 1025.94 135.189 1025.94C134.476 1025.94 133.871 1025.72 133.377 1025.27C132.882 1024.81 132.634 1024.09 132.634 1023.11Z" fill="#60BF84"/>
<path d="M164.407 1009.61C164.407 1012.16 164.21 1014.43 163.817 1016.43C163.424 1018.44 162.806 1020.13 161.961 1021.52C161.117 1022.91 160.025 1023.96 158.686 1024.69C157.346 1025.41 155.738 1025.77 153.86 1025.77C151.487 1025.77 149.521 1025.13 147.964 1023.86C146.421 1022.58 145.263 1020.75 144.492 1018.34C143.735 1015.93 143.356 1013.02 143.356 1009.61C143.356 1006.27 143.698 1003.39 144.382 1000.99C145.081 998.572 146.202 996.719 147.745 995.432C149.288 994.131 151.327 993.48 153.86 993.48C156.262 993.48 158.242 994.124 159.799 995.411C161.357 996.684 162.514 998.529 163.271 1000.95C164.028 1003.35 164.407 1006.24 164.407 1009.61ZM147.003 1009.61C147.003 1012.53 147.228 1014.96 147.68 1016.91C148.131 1018.85 148.859 1020.31 149.863 1021.28C150.883 1022.24 152.215 1022.72 153.86 1022.72C155.505 1022.72 156.83 1022.24 157.834 1021.28C158.853 1020.32 159.588 1018.87 160.04 1016.93C160.505 1014.98 160.738 1012.54 160.738 1009.61C160.738 1006.74 160.513 1004.33 160.061 1002.4C159.61 1000.46 158.882 999.001 157.878 998.028C156.873 997.041 155.534 996.548 153.86 996.548C152.186 996.548 150.846 997.041 149.842 998.028C148.837 999.001 148.109 1000.46 147.658 1002.4C147.221 1004.33 147.003 1006.74 147.003 1009.61Z" fill="#60BF84"/>
<path d="M190 1009.61C190 1012.16 189.803 1014.43 189.41 1016.43C189.017 1018.44 188.399 1020.13 187.554 1021.52C186.71 1022.91 185.618 1023.96 184.279 1024.69C182.939 1025.41 181.331 1025.77 179.453 1025.77C177.08 1025.77 175.114 1025.13 173.557 1023.86C172.014 1022.58 170.856 1020.75 170.085 1018.34C169.328 1015.93 168.949 1013.02 168.949 1009.61C168.949 1006.27 169.291 1003.39 169.975 1000.99C170.674 998.572 171.795 996.719 173.338 995.432C174.881 994.131 176.92 993.48 179.453 993.48C181.855 993.48 183.835 994.124 185.392 995.411C186.95 996.684 188.107 998.529 188.864 1000.95C189.621 1003.35 190 1006.24 190 1009.61ZM172.596 1009.61C172.596 1012.53 172.822 1014.96 173.273 1016.91C173.724 1018.85 174.452 1020.31 175.457 1021.28C176.476 1022.24 177.808 1022.72 179.453 1022.72C181.098 1022.72 182.423 1022.24 183.427 1021.28C184.446 1020.32 185.181 1018.87 185.633 1016.93C186.098 1014.98 186.331 1012.54 186.331 1009.61C186.331 1006.74 186.106 1004.33 185.654 1002.4C185.203 1000.46 184.475 999.001 183.471 998.028C182.466 997.041 181.127 996.548 179.453 996.548C177.779 996.548 176.439 997.041 175.435 998.028C174.43 999.001 173.702 1000.46 173.251 1002.4C172.814 1004.33 172.596 1006.74 172.596 1009.61Z" fill="#60BF84"/>
</g>
<g filter="url(#filter6_f_544_203)">
<path d="M34.3808 529.715L42.1396 514.445H45.7411L37.0974 530.774H42.5306V533.379H36.0478V537.064H42.5306V539.669H36.0478V545.409H32.7139V539.669H26.2105V537.064H32.7139V533.379H26.2105V530.774H31.5614L23 514.445H26.6427L34.3808 529.715Z" fill="#60BF84"/>
<path d="M67.1651 521.667C67.1651 523.051 66.9044 524.251 66.383 525.267C65.8617 526.284 65.1345 527.117 64.2015 527.766C63.2686 528.402 62.171 528.847 60.9087 529.101V529.27C63.296 529.581 65.0865 530.371 66.2802 531.642C67.4875 532.913 68.0912 534.579 68.0912 536.641C68.0912 538.434 67.6796 540.022 66.8564 541.406C66.0469 542.79 64.7984 543.877 63.1108 544.667C61.4369 545.444 59.2897 545.832 56.6692 545.832C55.0777 545.832 53.6027 545.698 52.2445 545.43C50.8999 545.176 49.6102 544.745 48.3754 544.138V540.834C49.6239 541.469 50.9822 541.971 52.4503 542.338C53.9183 542.691 55.3383 542.867 56.7104 542.867C59.4544 542.867 61.4369 542.309 62.658 541.194C63.8791 540.064 64.4897 538.525 64.4897 536.577C64.4897 535.236 64.1467 534.156 63.4607 533.337C62.7884 532.504 61.8142 531.896 60.5383 531.515C59.276 531.12 57.7531 530.922 55.9695 530.922H52.9648V527.915H55.9901C57.6227 527.915 59.0085 527.668 60.1473 527.173C61.286 526.679 62.1504 525.987 62.7404 525.098C63.344 524.194 63.6459 523.128 63.6459 521.9C63.6459 520.333 63.1382 519.125 62.123 518.278C61.1077 517.417 59.7288 516.986 57.9863 516.986C56.9162 516.986 55.942 517.099 55.0639 517.325C54.1859 517.551 53.3626 517.862 52.5943 518.257C51.826 518.652 51.0577 519.111 50.2893 519.634L48.5606 517.219C49.6582 516.344 50.9959 515.588 52.5737 514.953C54.1516 514.318 55.942 514 57.9452 514C61.0185 514 63.3235 514.72 64.8601 516.16C66.3968 517.6 67.1651 519.436 67.1651 521.667Z" fill="#60BF84"/>
<path d="M78.1138 540.368L78.3813 540.855C78.1343 541.886 77.8188 542.987 77.4346 544.159C77.0642 545.331 76.6526 546.503 76.1998 547.675C75.7608 548.861 75.3149 549.969 74.8621 551H72.3101C72.5983 549.87 72.8795 548.677 73.1539 547.421C73.4283 546.178 73.6753 544.95 73.8948 543.736C74.1281 542.507 74.3133 541.385 74.4505 540.368H78.1138Z" fill="#60BF84"/>
<path d="M103.304 545.409H83.5881V542.465L91.6349 534.057C93.1304 532.504 94.3858 531.12 95.4011 529.906C96.4301 528.691 97.2122 527.498 97.7473 526.326C98.2824 525.14 98.5499 523.841 98.5499 522.429C98.5499 520.678 98.0423 519.344 97.027 518.426C96.0254 517.495 94.7014 517.029 93.055 517.029C91.6144 517.029 90.3384 517.283 89.2271 517.791C88.1157 518.299 86.977 519.019 85.8108 519.951L83.9791 517.579C84.7749 516.887 85.6393 516.273 86.5722 515.737C87.5189 515.2 88.5273 514.777 89.5975 514.466C90.6814 514.155 91.8339 514 93.055 514C94.9072 514 96.5056 514.332 97.8502 514.995C99.1947 515.659 100.231 516.605 100.958 517.833C101.699 519.062 102.069 520.523 102.069 522.218C102.069 523.855 101.754 525.38 101.122 526.792C100.491 528.19 99.6063 529.581 98.4676 530.965C97.3288 532.334 95.9979 533.788 94.475 535.327L87.9305 542.041V542.189H103.304V545.409Z" fill="#60BF84"/>
<path d="M126.313 521.667C126.313 523.051 126.052 524.251 125.531 525.267C125.009 526.284 124.282 527.117 123.349 527.766C122.416 528.402 121.318 528.847 120.056 529.101V529.27C122.444 529.581 124.234 530.371 125.428 531.642C126.635 532.913 127.239 534.579 127.239 536.641C127.239 538.434 126.827 540.022 126.004 541.406C125.194 542.79 123.946 543.877 122.258 544.667C120.584 545.444 118.437 545.832 115.817 545.832C114.225 545.832 112.75 545.698 111.392 545.43C110.047 545.176 108.758 544.745 107.523 544.138V540.834C108.771 541.469 110.13 541.971 111.598 542.338C113.066 542.691 114.486 542.867 115.858 542.867C118.602 542.867 120.584 542.309 121.806 541.194C123.027 540.064 123.637 538.525 123.637 536.577C123.637 535.236 123.294 534.156 122.608 533.337C121.936 532.504 120.962 531.896 119.686 531.515C118.424 531.12 116.901 530.922 115.117 530.922H112.112V527.915H115.138C116.77 527.915 118.156 527.668 119.295 527.173C120.434 526.679 121.298 525.987 121.888 525.098C122.492 524.194 122.793 523.128 122.793 521.9C122.793 520.333 122.286 519.125 121.27 518.278C120.255 517.417 118.876 516.986 117.134 516.986C116.064 516.986 115.09 517.099 114.211 517.325C113.333 517.551 112.51 517.862 111.742 518.257C110.973 518.652 110.205 519.111 109.437 519.634L107.708 517.219C108.806 516.344 110.143 515.588 111.721 514.953C113.299 514.318 115.09 514 117.093 514C120.166 514 122.471 514.72 124.008 516.16C125.544 517.6 126.313 519.436 126.313 521.667Z" fill="#60BF84"/>
<path d="M132.137 532.172C132.137 530.308 132.26 528.487 132.507 526.707C132.768 524.928 133.2 523.276 133.804 521.752C134.407 520.213 135.231 518.864 136.273 517.706C137.316 516.549 138.613 515.645 140.163 514.995C141.727 514.332 143.6 514 145.781 514C146.399 514 147.064 514.035 147.778 514.106C148.491 514.162 149.081 514.261 149.548 514.402V517.431C149.04 517.247 148.457 517.113 147.798 517.029C147.153 516.944 146.502 516.902 145.843 516.902C143.291 516.902 141.281 517.473 139.813 518.617C138.359 519.761 137.309 521.314 136.664 523.276C136.02 525.225 135.649 527.421 135.553 529.863H135.779C136.205 529.157 136.747 528.522 137.405 527.957C138.064 527.378 138.86 526.919 139.793 526.58C140.739 526.242 141.837 526.072 143.085 526.072C144.842 526.072 146.371 526.439 147.675 527.173C148.992 527.908 150.007 528.974 150.721 530.371C151.448 531.769 151.811 533.464 151.811 535.454C151.811 537.587 151.427 539.429 150.659 540.982C149.891 542.535 148.793 543.736 147.366 544.583C145.953 545.416 144.265 545.832 142.303 545.832C140.835 545.832 139.484 545.543 138.249 544.964C137.014 544.385 135.937 543.524 135.018 542.38C134.112 541.236 133.406 539.817 132.898 538.123C132.391 536.415 132.137 534.431 132.137 532.172ZM142.262 542.867C144.128 542.867 145.624 542.253 146.749 541.025C147.874 539.796 148.436 537.94 148.436 535.454C148.436 533.421 147.936 531.812 146.934 530.626C145.932 529.44 144.423 528.847 142.406 528.847C141.034 528.847 139.841 529.143 138.825 529.736C137.81 530.315 137.021 531.049 136.459 531.939C135.896 532.828 135.615 533.732 135.615 534.65C135.615 535.582 135.745 536.528 136.006 537.488C136.28 538.448 136.692 539.337 137.241 540.156C137.789 540.975 138.482 541.632 139.319 542.126C140.156 542.62 141.137 542.867 142.262 542.867Z" fill="#60BF84"/>
<path d="M161.381 540.368L161.649 540.855C161.402 541.886 161.086 542.987 160.702 544.159C160.332 545.331 159.92 546.503 159.467 547.675C159.028 548.861 158.582 549.969 158.13 551H155.578C155.866 549.87 156.147 548.677 156.421 547.421C156.696 546.178 156.943 544.95 157.162 543.736C157.396 542.507 157.581 541.385 157.718 540.368H161.381Z" fill="#60BF84"/>
<path d="M188.074 538.229H183.567V545.409H180.233V538.229H165.682V535.264L180.006 514.275H183.567V535.052H188.074V538.229ZM180.233 535.052V524.928C180.233 524.152 180.24 523.453 180.253 522.832C180.267 522.196 180.288 521.61 180.315 521.074C180.342 520.523 180.363 520.001 180.377 519.507C180.404 519.012 180.425 518.525 180.438 518.045H180.274C180.013 518.61 179.711 519.21 179.368 519.845C179.039 520.467 178.703 521.024 178.36 521.519L169.078 535.052H180.233Z" fill="#60BF84"/>
<path d="M209.58 521.667C209.58 523.051 209.319 524.251 208.798 525.267C208.277 526.284 207.549 527.117 206.617 527.766C205.684 528.402 204.586 528.847 203.324 529.101V529.27C205.711 529.581 207.501 530.371 208.695 531.642C209.902 532.913 210.506 534.579 210.506 536.641C210.506 538.434 210.095 540.022 209.271 541.406C208.462 542.79 207.213 543.877 205.526 544.667C203.852 545.444 201.705 545.832 199.084 545.832C197.493 545.832 196.018 545.698 194.659 545.43C193.315 545.176 192.025 544.745 190.79 544.138V540.834C192.039 541.469 193.397 541.971 194.865 542.338C196.333 542.691 197.753 542.867 199.125 542.867C201.869 542.867 203.852 542.309 205.073 541.194C206.294 540.064 206.905 538.525 206.905 536.577C206.905 535.236 206.562 534.156 205.876 533.337C205.203 532.504 204.229 531.896 202.953 531.515C201.691 531.12 200.168 530.922 198.384 530.922H195.38V527.915H198.405C200.038 527.915 201.423 527.668 202.562 527.173C203.701 526.679 204.565 525.987 205.155 525.098C205.759 524.194 206.061 523.128 206.061 521.9C206.061 520.333 205.553 519.125 204.538 518.278C203.523 517.417 202.144 516.986 200.401 516.986C199.331 516.986 198.357 517.099 197.479 517.325C196.601 517.551 195.778 517.862 195.009 518.257C194.241 518.652 193.473 519.111 192.704 519.634L190.976 517.219C192.073 516.344 193.411 515.588 194.989 514.953C196.566 514.318 198.357 514 200.36 514C203.433 514 205.738 514.72 207.275 516.16C208.812 517.6 209.58 519.436 209.58 521.667Z" fill="#60BF84"/>
<path d="M236.314 538.229H231.807V545.409H228.473V538.229H213.922V535.264L228.246 514.275H231.807V535.052H236.314V538.229ZM228.473 535.052V524.928C228.473 524.152 228.48 523.453 228.493 522.832C228.507 522.196 228.528 521.61 228.555 521.074C228.582 520.523 228.603 520.001 228.617 519.507C228.644 519.012 228.665 518.525 228.678 518.045H228.514C228.253 518.61 227.951 519.21 227.608 519.845C227.279 520.467 226.943 521.024 226.6 521.519L217.318 535.052H228.473Z" fill="#60BF84"/>
<path d="M240.224 543.206C240.224 542.218 240.457 541.519 240.924 541.109C241.39 540.686 241.96 540.474 242.632 540.474C243.332 540.474 243.922 540.686 244.402 541.109C244.882 541.519 245.122 542.218 245.122 543.206C245.122 544.18 244.882 544.893 244.402 545.345C243.922 545.783 243.332 546.002 242.632 546.002C241.96 546.002 241.39 545.783 240.924 545.345C240.457 544.893 240.224 544.18 240.224 543.206Z" fill="#60BF84"/>
<path d="M250.596 532.172C250.596 530.308 250.72 528.487 250.967 526.707C251.228 524.928 251.66 523.276 252.263 521.752C252.867 520.213 253.69 518.864 254.733 517.706C255.776 516.549 257.072 515.645 258.623 514.995C260.187 514.332 262.06 514 264.241 514C264.858 514 265.524 514.035 266.237 514.106C266.951 514.162 267.541 514.261 268.007 514.402V517.431C267.5 517.247 266.916 517.113 266.258 517.029C265.613 516.944 264.961 516.902 264.303 516.902C261.751 516.902 259.741 517.473 258.273 518.617C256.818 519.761 255.769 521.314 255.124 523.276C254.479 525.225 254.109 527.421 254.013 529.863H254.239C254.664 529.157 255.206 528.522 255.865 527.957C256.523 527.378 257.319 526.919 258.252 526.58C259.199 526.242 260.297 526.072 261.545 526.072C263.301 526.072 264.831 526.439 266.134 527.173C267.452 527.908 268.467 528.974 269.18 530.371C269.907 531.769 270.271 533.464 270.271 535.454C270.271 537.587 269.887 539.429 269.119 540.982C268.35 542.535 267.253 543.736 265.826 544.583C264.413 545.416 262.725 545.832 260.763 545.832C259.295 545.832 257.944 545.543 256.709 544.964C255.474 544.385 254.397 543.524 253.478 542.38C252.572 541.236 251.865 539.817 251.358 538.123C250.85 536.415 250.596 534.431 250.596 532.172ZM260.722 542.867C262.588 542.867 264.083 542.253 265.208 541.025C266.333 539.796 266.896 537.94 266.896 535.454C266.896 533.421 266.395 531.812 265.394 530.626C264.392 529.44 262.883 528.847 260.866 528.847C259.494 528.847 258.3 529.143 257.285 529.736C256.27 530.315 255.481 531.049 254.918 531.939C254.356 532.828 254.074 533.732 254.074 534.65C254.074 535.582 254.205 536.528 254.465 537.488C254.74 538.448 255.151 539.337 255.7 540.156C256.249 540.975 256.942 541.632 257.779 542.126C258.616 542.62 259.597 542.867 260.722 542.867Z" fill="#60BF84"/>
<path d="M283.916 526.475C285.96 526.475 287.737 526.835 289.246 527.555C290.755 528.261 291.921 529.291 292.745 530.647C293.582 532.002 294 533.647 294 535.582C294 537.699 293.554 539.528 292.662 541.067C291.77 542.592 290.488 543.771 288.814 544.604C287.14 545.423 285.137 545.832 282.804 545.832C281.24 545.832 279.786 545.691 278.441 545.409C277.097 545.126 275.965 544.703 275.046 544.138V540.792C276.047 541.413 277.261 541.907 278.688 542.274C280.115 542.641 281.501 542.825 282.846 542.825C284.368 542.825 285.699 542.578 286.838 542.084C287.991 541.575 288.882 540.813 289.514 539.796C290.158 538.766 290.481 537.474 290.481 535.92C290.481 533.859 289.863 532.271 288.629 531.155C287.407 530.026 285.473 529.461 282.825 529.461C281.974 529.461 281.041 529.531 280.026 529.673C279.011 529.814 278.174 529.969 277.515 530.139L275.787 528.974L276.939 514.445H291.901V517.664H279.861L279.1 527.004C279.621 526.891 280.294 526.778 281.117 526.665C281.94 526.538 282.873 526.475 283.916 526.475Z" fill="#60BF84"/>
</g>
<g filter="url(#filter7_f_544_203)">
<path d="M1590.79 350.935L1602.24 328.649H1607.55L1594.8 352.481H1602.82V356.283H1593.25V361.661H1602.82V365.463H1593.25V373.84H1588.33V365.463H1578.74V361.661H1588.33V356.283H1578.74V352.481H1586.63L1574 328.649H1579.37L1590.79 350.935Z" fill="#60BF84"/>
<path d="M1630.48 373.84H1625.56V341.817C1625.56 340.601 1625.56 339.56 1625.56 338.695C1625.58 337.809 1625.6 337.005 1625.62 336.284C1625.66 335.542 1625.71 334.79 1625.77 334.027C1625.15 334.687 1624.56 335.254 1624.01 335.728C1623.47 336.181 1622.79 336.748 1621.98 337.428L1616.91 341.57L1614.27 338.077L1626.29 328.649H1630.48V373.84Z" fill="#60BF84"/>
<path d="M1655.32 366.483L1655.72 367.194C1655.35 368.698 1654.89 370.306 1654.32 372.016C1653.77 373.726 1653.16 375.437 1652.5 377.147C1651.85 378.878 1651.19 380.496 1650.52 382H1646.76C1647.18 380.351 1647.6 378.61 1648 376.776C1648.41 374.963 1648.77 373.17 1649.1 371.398C1649.44 369.605 1649.71 367.967 1649.92 366.483H1655.32Z" fill="#60BF84"/>
<path d="M1694.71 363.361H1688.06V373.84H1683.14V363.361H1661.67V359.034L1682.8 328.402H1688.06V358.725H1694.71V363.361ZM1683.14 358.725V343.95C1683.14 342.816 1683.15 341.796 1683.17 340.89C1683.19 339.962 1683.22 339.107 1683.26 338.324C1683.3 337.52 1683.33 336.758 1683.35 336.037C1683.39 335.315 1683.42 334.604 1683.44 333.904H1683.2C1682.81 334.728 1682.37 335.604 1681.86 336.531C1681.37 337.438 1680.88 338.252 1680.37 338.973L1666.68 358.725H1683.14Z" fill="#60BF84"/>
<path d="M1726.44 339.189C1726.44 341.209 1726.05 342.961 1725.28 344.444C1724.51 345.928 1723.44 347.144 1722.07 348.092C1720.69 349.019 1719.07 349.668 1717.21 350.039V350.286C1720.73 350.74 1723.37 351.894 1725.13 353.748C1726.91 355.603 1727.8 358.034 1727.8 361.043C1727.8 363.66 1727.2 365.978 1725.98 367.998C1724.79 370.017 1722.95 371.604 1720.46 372.758C1717.99 373.891 1714.82 374.458 1710.95 374.458C1708.6 374.458 1706.43 374.262 1704.42 373.871C1702.44 373.5 1700.54 372.871 1698.71 371.985V367.163C1700.56 368.09 1702.56 368.822 1704.73 369.358C1706.89 369.873 1708.99 370.131 1711.01 370.131C1715.06 370.131 1717.99 369.317 1719.79 367.689C1721.59 366.04 1722.49 363.794 1722.49 360.95C1722.49 358.993 1721.98 357.416 1720.97 356.221C1719.98 355.005 1718.54 354.119 1716.66 353.563C1714.8 352.986 1712.55 352.697 1709.92 352.697H1705.49V348.308H1709.95C1712.36 348.308 1714.4 347.947 1716.08 347.226C1717.76 346.505 1719.04 345.495 1719.91 344.197C1720.8 342.878 1721.25 341.322 1721.25 339.529C1721.25 337.242 1720.5 335.48 1719 334.244C1717.5 332.987 1715.47 332.358 1712.89 332.358C1711.32 332.358 1709.88 332.523 1708.58 332.853C1707.29 333.183 1706.07 333.636 1704.94 334.213C1703.81 334.79 1702.67 335.46 1701.54 336.222L1698.99 332.698C1700.61 331.421 1702.58 330.318 1704.91 329.391C1707.24 328.464 1709.88 328 1712.83 328C1717.37 328 1720.77 329.051 1723.04 331.153C1725.3 333.255 1726.44 335.934 1726.44 339.189Z" fill="#60BF84"/>
<path d="M1748.61 346.206C1751.62 346.206 1754.24 346.732 1756.47 347.782C1758.7 348.813 1760.42 350.317 1761.63 352.295C1762.87 354.274 1763.48 356.674 1763.48 359.497C1763.48 362.588 1762.83 365.257 1761.51 367.503C1760.2 369.729 1758.3 371.449 1755.83 372.665C1753.36 373.86 1750.41 374.458 1746.97 374.458C1744.66 374.458 1742.51 374.252 1740.53 373.84C1738.54 373.428 1736.87 372.809 1735.52 371.985V367.101C1737 368.008 1738.79 368.729 1740.89 369.265C1743 369.801 1745.04 370.069 1747.03 370.069C1749.27 370.069 1751.24 369.708 1752.92 368.987C1754.62 368.245 1755.93 367.132 1756.86 365.649C1757.82 364.144 1758.29 362.259 1758.29 359.992C1758.29 356.983 1757.38 354.665 1755.56 353.037C1753.76 351.389 1750.9 350.564 1747 350.564C1745.74 350.564 1744.36 350.667 1742.87 350.873C1741.37 351.08 1740.13 351.306 1739.16 351.554L1736.61 349.853L1738.31 328.649H1760.39V333.347H1742.62L1741.5 346.979C1742.27 346.814 1743.26 346.649 1744.48 346.484C1745.69 346.299 1747.07 346.206 1748.61 346.206Z" fill="#60BF84"/>
<path d="M1771.65 370.625C1771.65 369.183 1772 368.163 1772.69 367.565C1773.37 366.947 1774.21 366.638 1775.21 366.638C1776.24 366.638 1777.11 366.947 1777.82 367.565C1778.53 368.163 1778.88 369.183 1778.88 370.625C1778.88 372.047 1778.53 373.088 1777.82 373.747C1777.11 374.386 1776.24 374.705 1775.21 374.705C1774.21 374.705 1773.37 374.386 1772.69 373.747C1772 373.088 1771.65 372.047 1771.65 370.625Z" fill="#60BF84"/>
<path d="M1786.96 354.521C1786.96 351.801 1787.14 349.143 1787.5 346.546C1787.89 343.95 1788.53 341.539 1789.42 339.313C1790.31 337.067 1791.52 335.099 1793.06 333.409C1794.6 331.72 1796.51 330.401 1798.8 329.453C1801.11 328.484 1803.87 328 1807.09 328C1808 328 1808.98 328.052 1810.04 328.155C1811.09 328.237 1811.96 328.381 1812.65 328.587V333.007C1811.9 332.74 1811.04 332.544 1810.07 332.42C1809.11 332.297 1808.15 332.235 1807.18 332.235C1803.42 332.235 1800.45 333.069 1798.28 334.738C1796.14 336.408 1794.59 338.674 1793.64 341.539C1792.69 344.382 1792.14 347.587 1792 351.152H1792.33C1792.96 350.121 1793.76 349.194 1794.73 348.37C1795.7 347.525 1796.88 346.855 1798.25 346.361C1799.65 345.866 1801.27 345.619 1803.11 345.619C1805.7 345.619 1807.96 346.155 1809.88 347.226C1811.83 348.298 1813.33 349.853 1814.38 351.894C1815.45 353.934 1815.99 356.406 1815.99 359.312C1815.99 362.424 1815.42 365.113 1814.29 367.38C1813.15 369.646 1811.53 371.398 1809.43 372.634C1807.34 373.85 1804.85 374.458 1801.96 374.458C1799.79 374.458 1797.8 374.035 1795.98 373.191C1794.15 372.346 1792.57 371.089 1791.21 369.42C1789.87 367.75 1788.83 365.679 1788.08 363.207C1787.33 360.713 1786.96 357.818 1786.96 354.521ZM1801.9 370.131C1804.65 370.131 1806.86 369.234 1808.52 367.441C1810.18 365.649 1811.01 362.939 1811.01 359.312C1811.01 356.345 1810.27 353.995 1808.79 352.264C1807.31 350.533 1805.09 349.668 1802.11 349.668C1800.09 349.668 1798.32 350.101 1796.83 350.966C1795.33 351.811 1794.16 352.883 1793.33 354.181C1792.5 355.479 1792.09 356.798 1792.09 358.137C1792.09 359.497 1792.28 360.878 1792.67 362.279C1793.07 363.681 1793.68 364.979 1794.49 366.174C1795.3 367.369 1796.32 368.327 1797.56 369.049C1798.79 369.77 1800.24 370.131 1801.9 370.131Z" fill="#60BF84"/>
<path d="M1836.12 346.206C1839.14 346.206 1841.76 346.732 1843.99 347.782C1846.21 348.813 1847.93 350.317 1849.15 352.295C1850.38 354.274 1851 356.674 1851 359.497C1851 362.588 1850.34 365.257 1849.03 367.503C1847.71 369.729 1845.82 371.449 1843.35 372.665C1840.88 373.86 1837.92 374.458 1834.48 374.458C1832.17 374.458 1830.03 374.252 1828.04 373.84C1826.06 373.428 1824.39 372.809 1823.03 371.985V367.101C1824.51 368.008 1826.3 368.729 1828.41 369.265C1830.51 369.801 1832.56 370.069 1834.54 370.069C1836.79 370.069 1838.75 369.708 1840.43 368.987C1842.13 368.245 1843.45 367.132 1844.38 365.649C1845.33 364.144 1845.81 362.259 1845.81 359.992C1845.81 356.983 1844.9 354.665 1843.07 353.037C1841.27 351.389 1838.42 350.564 1834.51 350.564C1833.26 350.564 1831.88 350.667 1830.38 350.873C1828.88 351.08 1827.65 351.306 1826.68 351.554L1824.13 349.853L1825.83 328.649H1847.9V333.347H1830.14L1829.01 346.979C1829.78 346.814 1830.78 346.649 1831.99 346.484C1833.21 346.299 1834.58 346.206 1836.12 346.206Z" fill="#60BF84"/>
</g>
<defs>
<filter id="filter0_f_544_203" x="1465" y="777" width="393" height="62" filterUnits="userSpaceOnUse" color-interpolation-filters="sRGB">
<feFlood flood-opacity="0" result="BackgroundImageFix"/>
<feBlend mode="normal" in="SourceGraphic" in2="BackgroundImageFix" result="shape"/>
<feGaussianBlur stdDeviation="3.5" result="effect1_foregroundBlur_544_203"/>
</filter>
<filter id="filter1_f_544_203" x="123" y="777" width="214" height="54" filterUnits="userSpaceOnUse" color-interpolation-filters="sRGB">
<feFlood flood-opacity="0" result="BackgroundImageFix"/>
<feBlend mode="normal" in="SourceGraphic" in2="BackgroundImageFix" result="shape"/>
<feGaussianBlur stdDeviation="3.5" result="effect1_foregroundBlur_544_203"/>
</filter>
<filter id="filter2_f_544_203" x="-21" y="25" width="380" height="90" filterUnits="userSpaceOnUse" color-interpolation-filters="sRGB">
<feFlood flood-opacity="0" result="BackgroundImageFix"/>
<feBlend mode="normal" in="SourceGraphic" in2="BackgroundImageFix" result="shape"/>
<feGaussianBlur stdDeviation="7" result="effect1_foregroundBlur_544_203"/>
</filter>
<filter id="filter3_f_544_203" x="1307" y="0" width="191" height="42" filterUnits="userSpaceOnUse" color-interpolation-filters="sRGB">
<feFlood flood-opacity="0" result="BackgroundImageFix"/>
<feBlend mode="normal" in="SourceGraphic" in2="BackgroundImageFix" result="shape"/>
<feGaussianBlur stdDeviation="4.5" result="effect1_foregroundBlur_544_203"/>
</filter>
<filter id="filter4_f_544_203" x="1280" y="200" width="167" height="43" filterUnits="userSpaceOnUse" color-interpolation-filters="sRGB">
<feFlood flood-opacity="0" result="BackgroundImageFix"/>
<feBlend mode="normal" in="SourceGraphic" in2="BackgroundImageFix" result="shape"/>
<feGaussianBlur stdDeviation="4" result="effect1_foregroundBlur_544_203"/>
</filter>
<filter id="filter5_f_544_203" x="-45" y="980" width="247" height="63" filterUnits="userSpaceOnUse" color-interpolation-filters="sRGB">
<feFlood flood-opacity="0" result="BackgroundImageFix"/>
<feBlend mode="normal" in="SourceGraphic" in2="BackgroundImageFix" result="shape"/>
<feGaussianBlur stdDeviation="6" result="effect1_foregroundBlur_544_203"/>
</filter>
<filter id="filter6_f_544_203" x="15" y="506" width="287" height="53" filterUnits="userSpaceOnUse" color-interpolation-filters="sRGB">
<feFlood flood-opacity="0" result="BackgroundImageFix"/>
<feBlend mode="normal" in="SourceGraphic" in2="BackgroundImageFix" result="shape"/>
<feGaussianBlur stdDeviation="4" result="effect1_foregroundBlur_544_203"/>
</filter>
<filter id="filter7_f_544_203" x="1565" y="319" width="295" height="72" filterUnits="userSpaceOnUse" color-interpolation-filters="sRGB">
<feFlood flood-opacity="0" result="BackgroundImageFix"/>
<feBlend mode="normal" in="SourceGraphic" in2="BackgroundImageFix" result="shape"/>
<feGaussianBlur stdDeviation="4.5" result="effect1_foregroundBlur_544_203"/>
</filter>
</defs>
</svg>
