<svg width="268" height="62" viewBox="0 0 268 62" fill="none" xmlns="http://www.w3.org/2000/svg">
<path d="M156.312 38.5751C155.259 39.3037 154.25 40.1083 153.145 40.7471C150.076 42.5289 146.823 42.0662 144.254 39.5972C141.95 37.3803 140.472 34.6351 139.198 31.7586C138.995 31.2994 138.76 30.8505 138.39 30.0977C137.938 30.8297 137.606 31.3373 137.306 31.8622C136.612 33.0743 136.132 33.2469 135.086 32.3802C132.596 30.3152 130.735 27.8428 129.816 24.6452C129.005 21.8275 129.457 19.0132 129.429 16.1989C129.423 15.4841 129.761 14.7693 129.94 14.051C129.816 13.9785 129.688 13.906 129.564 13.83C129.246 14.165 128.87 14.4585 128.621 14.8383C126.608 17.8978 125.413 21.3233 124.561 24.8248C123.538 29.0238 122.706 33.2849 122.043 37.5564C121.591 40.4674 121.587 43.4474 121.349 46.3929C121.27 47.3633 121.097 48.3267 120.707 49.3315C118.597 44.6111 116.487 39.8907 114.253 34.8975C113.117 36.1821 112.115 37.0074 111.515 38.0606C110.486 39.8666 108.838 39.832 107.177 39.87C106.148 39.8942 105.113 39.763 104.08 39.7595C71.6553 39.7491 39.227 39.7491 6.80222 39.7422C5.71103 39.7422 4.75452 39.8182 3.8498 40.6677C2.83804 41.6173 1.42917 41.4066 0.593511 40.4847C-0.200706 39.6076 -0.197253 38.3057 0.600417 37.4356C1.43953 36.5239 2.72409 36.4652 3.88433 37.1766C4.36432 37.4701 4.97552 37.7118 5.52457 37.7118C39.4169 37.736 73.3093 37.7291 107.202 37.7429C108.099 37.7429 108.718 37.4563 109.305 36.7656C110.941 34.8423 112.654 32.9845 114.45 30.9782C116.183 34.5004 117.83 37.843 119.478 41.1856C119.609 41.1408 119.74 41.0959 119.871 41.0475C119.923 40.8127 120.009 40.5779 120.023 40.3396C120.213 36.9625 120.244 33.5681 120.624 30.2151C120.921 27.6045 121.508 25.0043 122.223 22.4732C123.407 18.2604 125.127 14.2582 127.565 10.5841C130.638 5.95346 134.709 2.51071 139.699 0.121147C139.837 0.0555374 140.017 0.0797092 140.41 0.0348186C139.226 1.35391 138.138 2.47617 137.151 3.67786C133.577 8.0357 131.284 12.9737 130.793 18.623C130.438 22.7218 132.368 27.9706 135.883 29.8939C136.829 28.3987 137.786 26.8966 138.618 25.5844C140.269 28.8338 141.864 32.1454 143.632 35.3637C144.24 36.4687 145.172 37.4494 146.122 38.2988C148.995 40.8749 151.795 40.1324 154.199 37.1973C155.217 35.9542 155.974 34.4935 156.94 32.9879C157.386 34.2552 157.828 35.3602 158.163 36.4963C158.443 37.439 158.985 37.8258 159.958 37.7463C160.687 37.6876 161.423 37.7325 162.158 37.7325C195.273 37.7325 228.389 37.736 261.504 37.7394C262.613 37.7394 263.673 37.8154 264.633 36.9279C265.358 36.258 266.853 36.7104 267.499 37.5495C268.221 38.4888 268.158 39.6525 267.34 40.4812C266.456 41.3756 265.082 41.6346 264.343 40.7506C263.338 39.5523 262.091 39.6732 260.831 39.6525C259.626 39.6352 258.421 39.7422 257.216 39.7422C225.823 39.7491 194.434 39.7491 163.042 39.7457C161.668 39.7457 160.286 39.8113 158.923 39.6835C158.073 39.6041 157.248 39.2243 156.416 38.9791C156.384 38.8444 156.35 38.7063 156.319 38.5716L156.312 38.5751Z" fill="#5ACD00"/>
<path d="M61.2056 17.8944C60.812 21.527 60.3872 25.1563 60.0454 28.7959C59.9591 29.7248 59.6241 30.0839 58.6987 30.0701C57.7767 30.0562 57.3071 29.7904 57.2138 28.7579C56.8789 25.032 56.4507 21.3164 55.8671 17.5629C55.836 17.9772 55.7808 18.3916 55.7808 18.806C55.798 22.0795 55.8153 25.3531 55.8602 28.6232C55.874 29.4934 55.6323 30.0079 54.6551 30.0597C53.5811 30.1184 53.481 29.5037 53.4845 28.6715C53.4983 23.8475 53.4914 19.0235 53.4914 14.1995C53.4914 11.658 53.4879 9.11654 53.4983 6.57504C53.4983 5.80499 53.3843 4.94171 54.6205 5.00732C55.6461 5.05912 56.7684 4.82776 56.9134 6.38512C57.2276 9.81061 57.5868 13.2327 57.9217 16.6581C58.1427 18.9234 58.3499 21.1921 58.6676 23.4712C58.8437 21.9725 59.0474 20.4738 59.189 18.9717C59.5792 14.8625 59.9452 10.7499 60.3182 6.64065C60.4425 5.28012 62.1518 4.35468 63.2602 5.1489C63.5986 5.39062 63.7022 6.12959 63.7057 6.64065C63.7368 11.1193 63.723 15.598 63.7195 20.0767C63.7195 22.9635 63.7091 25.8469 63.723 28.7337C63.7264 29.5141 63.6159 30.1011 62.618 30.0562C61.6925 30.0114 61.3265 29.5797 61.3541 28.6646C61.437 25.9988 61.4853 23.3296 61.5337 20.6603C61.5509 19.7314 61.5337 18.806 61.5337 17.8771C61.4197 17.884 61.3058 17.8875 61.1918 17.8944H61.2056Z" fill="#2C2C2C"/>
<path d="M170.688 15.2182C170.688 19.0512 170.688 22.8841 170.688 26.7171C170.688 29.1274 169.4 30.4637 167.086 30.4637C164.738 30.4637 163.388 29.1515 163.384 26.7965C163.371 19.0857 163.371 11.3783 163.384 3.66752C163.388 1.37465 164.845 -0.0238635 167.131 0.00030834C169.331 0.0244802 170.677 1.41609 170.681 3.71932C170.691 7.55228 170.681 11.3852 170.684 15.2182H170.688ZM165.905 15.2009C165.905 16.2334 165.905 17.2694 165.905 18.3018C165.905 21.1023 165.888 23.8993 165.912 26.6998C165.922 27.8704 166.558 28.5369 167.311 28.1225C167.742 27.8842 168.126 27.128 168.129 26.6031C168.181 19.0235 168.164 11.4439 168.16 3.86435C168.16 3.69169 168.143 3.51904 168.126 3.34983C168.046 2.56598 167.532 2.36224 166.848 2.42095C165.857 2.51073 165.905 3.26696 165.905 3.95758C165.898 7.70422 165.905 11.4509 165.905 15.1975V15.2009Z" fill="#2C2C2C"/>
<path d="M233.565 17.4178C234.131 14.2617 234.687 11.1021 235.274 7.94936C235.405 7.23456 235.485 6.43689 235.868 5.86367C236.155 5.43549 236.894 5.30427 237.429 5.04183C237.626 5.45966 237.995 5.87749 237.999 6.29531C238.033 13.7886 238.019 21.2853 238.03 28.7786C238.03 29.4934 237.967 30.0769 237.025 30.0528C236.127 30.0321 235.661 29.6315 235.675 28.7164C235.726 25.3151 235.782 21.9138 235.83 18.5159C235.837 18.0083 235.83 17.5007 235.561 16.9655C235.167 19.1098 234.773 21.2542 234.373 23.3952C234.034 25.2115 233.699 27.0278 233.351 28.8442C233.188 29.6902 232.677 30.0977 231.793 30.0459C230.788 29.9872 230.799 29.2758 230.799 28.5645C230.799 21.2439 230.799 13.9198 230.799 6.59919C230.799 5.7877 230.83 4.97622 231.983 5.02111C233.061 5.06255 233.337 5.73591 233.316 6.68206C233.257 9.73807 233.209 12.7941 233.178 15.8501C233.171 16.3784 233.264 16.9067 233.313 17.4351C233.396 17.4282 233.478 17.4247 233.561 17.4178H233.565Z" fill="#2C2C2C"/>
<path d="M256.083 17.6665C256.083 21.2819 256.083 24.9007 256.083 28.5162C256.083 29.2655 256.165 30.0252 255.047 30.0528C253.973 30.077 253.572 29.4968 253.569 28.5369C253.555 25.6535 253.538 22.7667 253.569 19.8834C253.579 19.0028 253.396 18.5228 252.364 18.5574C251.5 18.585 251.262 18.9096 251.272 19.7245C251.307 22.5664 251.3 25.4083 251.262 28.2503C251.255 28.7406 251.176 29.4071 250.858 29.6626C250.499 29.9561 249.801 30.0321 249.321 29.9147C249.059 29.8491 248.783 29.193 248.783 28.8028C248.752 21.3544 248.758 13.906 248.758 6.45762C248.758 5.72902 248.793 5.03494 249.794 5.02458C250.765 5.01422 251.241 5.546 251.248 6.45417C251.279 9.33753 251.283 12.2243 251.272 15.1077C251.272 15.9088 251.293 16.5373 252.391 16.5442C253.455 16.5511 253.569 15.9951 253.558 15.156C253.534 12.4453 253.534 9.73118 253.565 7.02048C253.572 6.52669 253.617 5.89131 253.917 5.58399C254.242 5.25249 254.922 5.04185 255.375 5.13853C255.675 5.20069 256.031 5.89131 256.034 6.30223C256.086 10.0903 256.065 13.8784 256.065 17.6699H256.072L256.083 17.6665Z" fill="#2C2C2C"/>
<path d="M40.6562 17.5594C40.6562 20.612 40.6251 23.6645 40.6631 26.7171C40.708 30.1978 37.5863 31.0645 35.2693 30.1771C34.1021 29.7316 33.3494 28.8407 33.3459 27.5286C33.3321 20.8675 33.3148 14.203 33.3701 7.5419C33.3839 5.81879 35.031 4.60329 36.9959 4.65164C39.1541 4.70343 40.5906 5.96382 40.632 8.02188C40.6941 10.9432 40.6527 13.868 40.6562 16.7928C40.6562 17.0518 40.6562 17.3073 40.6562 17.5663V17.5594ZM38.1423 17.5974C38.1423 14.6312 38.1319 11.6615 38.1492 8.69524C38.1527 7.78707 38.0318 7.01357 36.875 7.05156C35.8287 7.08609 35.663 7.79052 35.663 8.66071C35.6733 14.5966 35.6733 20.5325 35.6699 26.4684C35.6699 27.3594 35.7907 28.1708 36.9026 28.1985C38.0629 28.2295 38.1457 27.3766 38.1457 26.503C38.1457 23.5367 38.1457 20.5671 38.1423 17.6008V17.5974Z" fill="#2C2C2C"/>
<path d="M95.5263 17.549C95.5263 13.8473 95.5228 10.1456 95.5297 6.44727C95.5297 5.78081 95.3847 4.97969 96.4897 5.02113C97.4462 5.05566 97.8847 5.52874 97.8813 6.4887C97.8709 9.24429 97.8744 11.9964 97.8916 14.752C97.8951 15.5704 97.6119 16.5166 99.0415 16.5476C100.589 16.5822 100.233 15.5393 100.24 14.7037C100.26 12.1656 100.247 9.62414 100.25 7.08609C100.25 6.74078 100.133 6.27116 100.312 6.08124C100.706 5.6565 101.21 5.18688 101.742 5.06947C102.519 4.90027 102.733 5.56327 102.75 6.22972C102.764 6.83056 102.761 7.43486 102.761 8.0357C102.761 14.7935 102.761 21.5478 102.754 28.3055C102.754 29.1032 102.94 30.0459 101.652 30.0528C100.361 30.0632 100.24 29.2137 100.243 28.2192C100.257 25.4222 100.219 22.6251 100.267 19.8281C100.281 18.8854 99.9877 18.5401 99.0105 18.5574C98.0539 18.5712 97.8675 18.989 97.8744 19.8247C97.9089 22.6631 97.9089 25.505 97.864 28.3435C97.8571 28.8511 97.7017 29.5141 97.3564 29.8111C97.056 30.0701 96.3481 30.0459 95.9165 29.8836C95.6816 29.7973 95.5435 29.1653 95.5435 28.7786C95.5159 25.0354 95.5263 21.2922 95.5263 17.5456V17.549Z" fill="#2C2C2C"/>
<path d="M181.433 17.5007C181.433 13.8438 181.433 10.1835 181.433 6.52668C181.433 5.80152 181.302 4.96587 182.462 5.01766C183.447 5.06255 183.792 5.63232 183.788 6.55085C183.775 9.34787 183.802 12.1449 183.778 14.9419C183.771 15.8397 183.778 16.5442 185.011 16.5476C186.226 16.5545 186.154 15.8259 186.15 15.0144C186.14 12.3901 186.147 9.7657 186.147 7.13788C186.147 6.83746 186.03 6.42999 186.181 6.25388C186.585 5.79116 187.048 5.21104 187.587 5.07637C188.416 4.87263 188.654 5.56671 188.654 6.29877C188.657 9.00947 188.671 11.7202 188.671 14.4309C188.671 19.0788 188.671 23.7267 188.671 28.3746C188.671 29.2171 188.747 30.0908 187.487 30.0459C186.295 30.0044 186.137 29.2344 186.14 28.2744C186.157 25.4774 186.126 22.6804 186.157 19.8833C186.168 19.0201 186.033 18.5366 184.976 18.547C183.954 18.5573 183.761 18.9752 183.775 19.873C183.816 22.7114 183.809 25.5534 183.771 28.3953C183.764 28.8718 183.657 29.5175 183.343 29.7731C183.012 30.039 182.338 30.0562 181.889 29.9216C181.654 29.8525 181.461 29.2309 181.458 28.858C181.427 25.0699 181.44 21.2853 181.44 17.4972H181.433V17.5007Z" fill="#2C2C2C"/>
<path d="M20.9983 9.58614C20.9983 11.3507 21.0086 13.1152 20.9983 14.8798C20.9776 17.4869 20.0349 18.6161 17.4588 18.8612C16.3918 18.9648 16.0776 19.3516 16.0983 20.3771C16.1536 23.0878 16.0983 25.802 16.1259 28.5127C16.1363 29.5072 15.791 30.1633 14.7274 30.0044C14.3717 29.9526 13.8849 29.4761 13.8123 29.1204C13.6673 28.4195 13.764 27.6667 13.764 26.9346C13.764 18.6713 13.764 10.4045 13.764 2.14122C13.764 0.387033 13.7709 0.387033 15.57 0.380127C20.2731 0.359408 21.0017 1.09147 21.0017 5.84296C21.0017 7.09299 21.0017 8.33957 21.0017 9.5896L20.9983 9.58614ZM16.1156 9.57578C16.1156 11.4646 16.1294 13.3535 16.1087 15.2389C16.1018 15.9641 16.195 16.5235 17.1135 16.5235C17.9872 16.5235 18.4982 16.223 18.4775 15.2562C18.4499 13.8853 18.4775 12.5109 18.4775 11.1366C18.4775 8.69178 18.4637 6.24352 18.4706 3.79871C18.4706 2.85601 17.963 2.53142 17.0893 2.5038C16.119 2.47617 16.1121 3.09083 16.1156 3.7849C16.1259 5.7152 16.119 7.64549 16.1156 9.57924V9.57578Z" fill="#2C2C2C"/>
<path d="M83.2473 26.9622C83.2784 27.5631 83.4096 28.1812 83.3129 28.7613C83.2404 29.2102 82.9607 29.8974 82.643 29.9803C81.9213 30.1736 81.1547 29.9975 81.0304 28.9996C80.9268 28.1501 80.8198 27.3007 80.7231 26.4512C80.6264 25.6017 79.9807 25.4912 79.4006 25.6811C79.0691 25.7916 78.741 26.3096 78.6581 26.6998C78.52 27.3628 78.7203 28.119 78.5027 28.7406C78.3301 29.2448 77.8225 29.8318 77.339 29.9837C76.4689 30.2531 75.9025 29.9423 76.0165 28.7855C76.4136 24.811 76.7209 20.8295 77.0697 16.8515C77.3667 13.4709 77.7016 10.0938 77.9675 6.7097C78.0435 5.75319 78.1851 5.05221 79.3833 4.9935C80.5781 4.9348 81.3792 5.15235 81.4793 6.55086C81.6313 8.69179 81.8695 10.8293 82.0491 12.9668C82.4462 17.6319 82.833 22.3005 83.2232 26.9657C83.2301 26.9657 83.2335 26.9657 83.2404 26.9657L83.2473 26.9622ZM79.8322 11.6995C79.7942 11.696 79.7528 11.6926 79.7148 11.6891C79.4696 15.2355 79.2348 18.7818 78.9689 22.3247C78.8791 23.5057 79.3729 23.775 80.5643 23.3606C80.3225 19.4759 80.0774 15.5911 79.8356 11.7029L79.8322 11.6995Z" fill="#2C2C2C"/>
<path d="M199.217 17.5767C199.217 13.9578 199.207 10.3424 199.221 6.7235C199.227 5.16269 199.39 5.02112 200.926 5.01421C201.962 5.01076 203.009 4.93133 204.024 5.06255C204.445 5.1178 204.804 5.63232 205.194 5.93619C204.825 6.3851 204.538 7.02392 204.062 7.23456C203.43 7.51081 202.242 7.2173 202.024 7.59369C201.638 8.25323 201.762 9.23737 201.748 10.0868C201.717 11.7651 201.783 13.4467 201.721 15.1249C201.683 16.1712 202.018 16.6823 203.112 16.5304C203.24 16.5131 203.402 16.4786 203.495 16.5373C203.948 16.8135 204.379 17.1174 204.821 17.4144C204.459 17.8702 204.179 18.4676 203.71 18.7404C203.192 19.0442 202.121 18.875 201.962 19.2238C201.645 19.911 201.759 20.8088 201.748 21.6203C201.727 23.2985 201.772 24.9801 201.731 26.6584C201.71 27.5044 202.042 27.8393 202.87 27.7737C203.254 27.7426 203.768 27.6321 204.007 27.8221C204.483 28.2054 204.808 28.7751 205.194 29.2689C204.78 29.5348 204.383 29.9906 203.944 30.0321C202.836 30.1426 201.707 30.039 200.584 30.0735C199.597 30.1046 199.2 29.6971 199.21 28.6922C199.245 24.9905 199.224 21.2853 199.224 17.5836H199.217V17.5767Z" fill="#2C2C2C"/>
<path d="M218.234 5.01423C218.793 5.01423 219.352 5.0384 219.912 5.00733C220.627 4.96934 221.127 5.19725 221.103 5.98456C221.082 6.66137 220.886 7.20351 220.022 7.31056C217.771 7.59371 217.771 7.62479 217.771 9.92457C217.771 15.9848 217.771 22.0485 217.781 28.1087C217.781 29.117 217.729 30.1426 216.352 29.9976C215.965 29.9561 215.43 29.4347 215.323 29.0341C215.147 28.3918 215.264 27.6701 215.264 26.983C215.264 20.4497 215.264 13.9129 215.264 7.37962C215.264 5.79579 216.039 5.00502 217.588 5.00733C217.802 5.00733 218.02 5.00733 218.234 5.00733V5.01423Z" fill="#2C2C2C"/>
<path d="M12.8522 55.8061C14.3267 56.9215 14.7859 57.9402 14.375 59.2834C13.9468 60.6819 12.8867 61.3795 11.4744 61.4589C10.1035 61.5349 8.71882 61.5349 7.35138 61.4485C7.05787 61.4313 6.56062 60.9064 6.55716 60.606C6.49846 57.6363 6.49846 54.6632 6.55371 51.6935C6.55716 51.4138 7.01643 50.9131 7.28232 50.9027C8.77407 50.8336 10.2934 50.7197 11.7645 50.9234C14.085 51.248 14.7929 53.3717 13.3218 55.2398C13.1906 55.4056 13.0525 55.5713 12.8557 55.813L12.8522 55.8061ZM9.91014 56.5244C9.40253 56.8352 8.51854 57.0942 8.46329 57.4705C8.35279 58.2544 7.83827 59.4906 8.95708 59.8256C9.82382 60.0846 10.9357 59.8774 11.8197 59.5562C12.1788 59.425 12.4827 58.3891 12.3688 57.8573C12.1098 56.6625 11.0048 56.7765 9.90669 56.5209L9.91014 56.5244ZM9.70986 55.15C11.2741 55.1397 12.3239 54.4698 12.1685 53.572C11.9406 52.2598 10.808 52.3979 9.84799 52.2943C8.74644 52.1769 8.34243 52.6396 8.33207 53.7584C8.32171 54.9083 8.73608 55.34 9.70986 55.15Z" fill="#2C2C2C"/>
<path d="M98.7384 55.851C100.216 56.8524 100.665 57.7779 100.316 59.1902C99.9884 60.4989 99.0319 61.269 97.7508 61.3968C96.2625 61.5452 94.7535 61.5072 93.2549 61.4416C92.9682 61.4278 92.471 60.8995 92.4675 60.5991C92.4088 57.6363 92.4123 54.6735 92.4675 51.7108C92.471 51.4241 92.9095 50.9096 93.1685 50.8993C94.6568 50.8268 96.1727 50.7128 97.6369 50.9096C100.03 51.2342 100.731 53.3924 99.1701 55.2813C99.0388 55.4401 98.9214 55.6093 98.7453 55.851H98.7384ZM95.8758 59.9706C96.1727 59.9464 96.4732 59.9326 96.7701 59.8981C97.7094 59.7876 98.4863 59.4078 98.4311 58.3338C98.3758 57.2634 97.661 56.7765 96.6044 56.7868C96.3489 56.7868 96.0899 56.773 95.8343 56.773C94.2977 56.773 94.3081 56.8317 94.2459 58.4927C94.1976 59.7393 94.7604 60.1053 95.8758 59.9741V59.9706ZM95.5305 55.1535C97.0947 55.1639 98.0927 54.5492 98.0996 53.6514C98.1065 52.7847 97.257 52.3496 95.6962 52.2805C94.6603 52.2356 94.2252 52.5637 94.2355 53.6583C94.2459 54.6942 94.4186 55.3711 95.5305 55.157V55.1535Z" fill="#2C2C2C"/>
<path d="M229.169 57.5776C230.54 55.7233 231.907 53.8655 233.278 52.0112C233.506 51.7004 233.706 51.3447 234 51.1099C234.621 50.6161 235.343 50.9096 235.353 51.7004C235.391 54.6701 235.398 57.6397 235.326 60.6094C235.319 60.9029 234.687 61.4209 234.373 61.4002C234.031 61.3795 233.475 60.8684 233.447 60.5335C233.34 59.166 233.409 57.7813 233.392 56.407C233.389 55.9615 233.323 55.5195 233.257 54.708C231.641 56.8179 230.267 58.617 228.886 60.4161C228.679 60.6889 228.502 61.0204 228.233 61.2034C227.636 61.6074 227.007 61.6903 226.997 60.7165C226.962 57.7054 226.962 54.6908 227.024 51.6797C227.031 51.4 227.653 50.8613 227.857 50.92C228.23 51.0236 228.758 51.469 228.772 51.7936C228.858 53.6756 228.813 55.561 228.813 57.4464C228.931 57.4913 229.048 57.5327 229.165 57.5776H229.169Z" fill="#2C2C2C"/>
<path d="M128.196 57.5845C128.811 56.7903 129.436 56.0064 130.033 55.2019C130.955 53.9587 131.829 52.6776 132.799 51.476C133.041 51.1755 133.587 50.9787 133.973 51.0063C134.156 51.0201 134.429 51.6693 134.436 52.0354C134.474 54.7875 134.45 57.5431 134.46 60.2987C134.46 60.9755 134.367 61.4796 133.511 61.49C132.582 61.5038 132.471 60.9479 132.478 60.2262C132.492 58.9347 132.485 57.6432 132.471 56.3518C132.468 55.9408 132.416 55.5265 132.354 54.7046C130.824 56.704 129.581 58.4202 128.234 60.05C127.765 60.6198 127.036 60.9755 126.428 61.4278C126.304 60.7476 126.09 60.0708 126.076 59.3905C126.031 57.0666 126.042 54.7426 126.069 52.4187C126.076 51.7557 125.769 50.8268 127.002 50.8682C128.207 50.9062 127.882 51.8282 127.896 52.4877C127.934 54.1452 127.91 55.8062 127.91 57.4637C128.006 57.5051 128.103 57.5465 128.2 57.588L128.196 57.5845Z" fill="#2C2C2C"/>
<path d="M31.9859 55.9443C31.9376 59.2489 30.836 60.9651 28.5881 61.5901C25.8912 62.3429 23.3082 60.9617 22.7626 58.2337C22.4898 56.8835 22.5244 55.3814 22.8041 54.0278C23.2668 51.7971 25.1798 50.5609 27.4969 50.6541C29.8105 50.7439 31.3471 52.1424 31.8478 54.6459C31.9583 55.1881 31.9618 55.7544 31.9825 55.9408L31.9859 55.9443ZM30.0176 56.0824C29.9797 55.7889 29.9417 55.1432 29.807 54.5182C29.5169 53.1852 28.3981 52.2736 27.1688 52.3047C25.8843 52.3392 24.9001 53.0747 24.724 54.4974C24.5721 55.7337 24.5859 57.0493 24.8311 58.2648C25.1315 59.7462 26.6129 60.4057 28.0563 59.9499C29.4237 59.5183 29.9658 58.541 30.0176 56.0824Z" fill="#2C2C2C"/>
<path d="M108.424 56.0721C108.5 51.9456 111.079 49.8564 114.795 50.9442C116.041 51.3102 116.901 52.1217 117.35 53.2992C117.992 54.9843 118.113 56.7109 117.568 58.472C116.881 60.6923 115.251 61.8906 112.968 61.787C110.651 61.6799 109.001 60.2676 108.593 57.992C108.479 57.3635 108.479 56.7143 108.424 56.0721ZM115.917 55.9477C115.869 55.6301 115.838 54.9325 115.648 54.2799C115.302 53.0955 114.46 52.3599 113.217 52.322C112.05 52.284 111.114 52.8296 110.724 53.9795C110.492 54.6597 110.361 55.4021 110.333 56.1204C110.237 58.5203 111.418 60.126 113.203 60.1191C114.954 60.1122 115.896 58.7897 115.921 55.9443L115.917 55.9477Z" fill="#2C2C2C"/>
<path d="M163.702 60.3643C162.607 61.3933 161.364 61.7352 159.962 61.5314C158.498 61.3208 157.483 60.2503 157.348 58.7793C157.217 57.3531 158.087 56.0962 159.575 55.7267C160.445 55.5092 161.367 55.4988 162.244 55.2916C162.756 55.1708 163.57 54.936 163.643 54.6114C163.836 53.7723 163.667 52.7363 162.628 52.5499C161.702 52.3841 160.708 52.5775 159.744 52.65C159.199 52.6914 158.532 53.2474 158.253 52.3081C157.97 51.3654 158.778 51.141 159.351 51.0754C160.739 50.9165 162.165 50.775 163.543 50.9165C164.779 51.0443 165.501 52.025 165.535 53.2716C165.604 55.7647 165.587 58.2579 165.57 60.751C165.563 61.6488 164.955 61.5798 164.41 61.2759C164.14 61.1274 163.995 60.751 163.705 60.3574L163.702 60.3643ZM162.376 56.6867C161.575 56.8904 160.801 56.9422 160.204 57.2944C159.789 57.5396 159.354 58.2337 159.409 58.6619C159.468 59.1073 160.045 59.7013 160.508 59.8325C161.547 60.1295 162.614 59.905 163.246 58.9347C163.543 58.4789 163.698 57.7986 163.602 57.2772C163.553 57.0113 162.8 56.8766 162.376 56.6867Z" fill="#2C2C2C"/>
<path d="M198.882 60.3539C197.791 61.4244 196.538 61.7317 195.143 61.5314C193.678 61.3208 192.66 60.2365 192.532 58.7689C192.404 57.329 193.264 56.1031 194.773 55.7302C195.643 55.5161 196.565 55.5023 197.439 55.2951C197.95 55.1742 198.851 54.7322 198.824 54.6356C198.627 53.9139 198.382 52.795 197.895 52.65C196.949 52.3669 195.826 52.5844 194.79 52.6949C194.241 52.7536 193.571 53.1335 193.482 52.2943C193.444 51.9352 193.958 51.2135 194.293 51.1686C195.761 50.9683 197.266 50.7888 198.727 50.92C199.949 51.0305 200.685 52.025 200.716 53.275C200.782 55.7647 200.768 58.2613 200.747 60.751C200.74 61.6488 200.132 61.5798 199.583 61.2725C199.314 61.124 199.172 60.751 198.875 60.3436L198.882 60.3539ZM197.618 56.6902C196.797 56.9008 195.995 56.9733 195.336 57.3186C194.949 57.5224 194.559 58.1785 194.59 58.5997C194.625 59.0314 195.084 59.608 195.505 59.8014C196.527 60.2676 198.005 59.7634 198.547 58.7862C198.793 58.3442 198.903 57.7019 198.779 57.2288C198.71 56.9699 198.029 56.8663 197.615 56.6902H197.618Z" fill="#2C2C2C"/>
<path d="M74.2793 56.1584C74.3207 51.9559 76.9796 49.7149 80.6469 51.0098C81.6241 51.3551 82.622 52.3047 83.1055 53.237C84.0931 55.1432 83.9446 57.2461 83.1676 59.242C82.4977 60.9651 80.3913 62.0287 78.3816 61.7593C76.1958 61.4658 74.7109 60.0155 74.3933 57.8297C74.3138 57.2806 74.3173 56.7178 74.2793 56.1618V56.1584ZM81.7588 55.9477C81.7208 55.6818 81.6862 55.0327 81.5274 54.4145C81.2201 53.2198 80.4189 52.4566 79.1931 52.3323C78.1399 52.2253 77.1661 52.6362 76.7379 53.6341C76.3926 54.4387 76.2061 55.3642 76.182 56.2447C76.1129 58.5928 77.3008 60.1226 79.0411 60.1226C80.785 60.1226 81.7346 58.7966 81.7657 55.9477H81.7588Z" fill="#2C2C2C"/>
<path d="M175.742 56.1722C175.742 54.7944 175.749 53.4166 175.739 52.0388C175.735 51.3827 175.78 50.8302 176.675 50.8509C177.565 50.8716 177.586 51.4518 177.59 52.0871C177.59 52.1735 177.583 52.2598 177.59 52.3461C177.673 53.2267 177.538 54.7495 177.88 54.8669C178.967 55.2329 180.235 55.1155 181.429 55.081C181.63 55.0741 181.947 54.5665 181.979 54.266C182.058 53.4546 181.92 52.6155 182.061 51.8212C182.124 51.4621 182.645 50.9303 182.952 50.9338C183.298 50.9372 183.93 51.4483 183.936 51.7522C184.012 54.7184 184.012 57.6915 183.936 60.6578C183.93 60.934 183.287 61.3657 182.907 61.4071C182.642 61.4347 182.099 60.9444 182.061 60.6371C181.944 59.7047 181.985 58.7482 182.017 57.802C182.037 57.0838 181.74 56.8524 181.025 56.8144C177.635 56.6383 177.638 56.6176 177.59 60.0397C177.59 60.2123 177.655 60.4437 177.569 60.5438C177.293 60.8753 177.006 61.3208 176.637 61.4313C176.008 61.6177 175.725 61.2172 175.739 60.5576C175.766 59.0935 175.746 57.6294 175.746 56.1687L175.742 56.1722Z" fill="#2C2C2C"/>
<path d="M63.5058 55.2019C63.5058 53.9173 63.5162 52.9297 63.5024 51.9421C63.492 51.2826 63.7303 50.737 64.4382 50.9062C64.8388 51.0029 65.4189 51.5381 65.4292 51.8869C65.5087 54.7702 65.4672 57.6536 65.4741 60.5404C65.4741 61.2932 65.0149 61.6074 64.4002 61.4244C64.0411 61.3173 63.6025 60.8374 63.5542 60.4748C63.4299 59.5873 63.4886 58.6722 63.5127 57.7675C63.5438 56.5313 62.5873 56.7143 61.9796 56.8697C61.0127 57.1183 59.5002 55.9167 59.1204 57.7503C58.9408 58.617 59.0617 59.5528 59.0893 60.4575C59.1135 61.1689 58.8027 61.6074 58.1155 61.4209C57.7668 61.3277 57.2833 60.8304 57.2764 60.5059C57.2143 57.6225 57.2143 54.7357 57.2799 51.8523C57.2868 51.5139 57.7529 50.996 58.0983 50.8993C58.7889 50.7094 59.0548 51.1859 59.0893 51.8731C59.1446 52.9194 58.9719 54.6632 59.4381 54.8669C60.5638 55.3573 62.0072 55.1293 63.5093 55.2019H63.5058Z" fill="#2C2C2C"/>
<path d="M48.2121 56.2654C48.2121 57.512 48.2293 58.7586 48.2052 60.0051C48.1948 60.6509 48.4296 61.4451 47.3039 61.4762C46.1644 61.5107 46.3681 60.7337 46.3646 60.0707C46.3577 57.9643 46.3543 55.8579 46.3646 53.755C46.3646 53.0747 46.3992 52.4601 45.4116 52.467C44.4896 52.4739 43.6919 52.4635 43.5711 53.6928C43.4019 55.3952 43.1912 57.0976 42.9081 58.7862C42.8045 59.4008 42.5904 60.1329 42.1622 60.5266C41.6131 61.0273 40.8224 61.3035 40.0903 61.5383C39.859 61.6108 39.2063 61.1792 39.227 61.0583C39.2961 60.6509 39.4929 60.05 39.7968 59.9326C40.812 59.5459 41.1366 58.8 41.2264 57.8469C41.4094 55.927 41.627 54.0071 41.7409 52.0837C41.7893 51.2204 42.069 50.8267 42.9599 50.8475C44.3342 50.882 45.7155 50.8785 47.0898 50.844C47.9358 50.8233 48.2362 51.21 48.2224 52.0112C48.1948 53.4304 48.2155 54.8462 48.2155 56.2654H48.2121Z" fill="#2C2C2C"/>
<path d="M217.433 56.224C217.433 57.6467 217.419 59.0659 217.439 60.4886C217.45 61.2034 217.125 61.6316 216.445 61.4313C216.096 61.3277 215.64 60.8201 215.63 60.4817C215.558 58.244 215.589 56.003 215.595 53.7653C215.595 53.0885 215.64 52.4566 214.642 52.4773C213.738 52.4946 212.909 52.4359 212.788 53.6894C212.619 55.4401 212.464 57.2047 212.097 58.9174C211.842 60.1156 211.383 61.4175 209.832 61.5383C209.376 61.5729 208.893 61.2137 208.42 61.0342C208.707 60.6198 208.997 60.2089 209.276 59.7945C209.666 59.2213 210.288 58.6826 210.388 58.061C210.696 56.1549 210.882 54.2212 210.958 52.2909C210.999 51.248 211.289 50.7922 212.374 50.844C213.62 50.9027 214.877 50.8993 216.124 50.844C217.16 50.7957 217.491 51.2446 217.45 52.2287C217.395 53.5616 217.436 54.898 217.436 56.2343H217.433V56.224Z" fill="#2C2C2C"/>
<path d="M244.083 52.4981C243.652 51.911 244.056 51.2549 244.884 51.1444C246.342 50.9511 247.868 50.7991 249.301 51.0305C250.858 51.2791 251.442 53.2681 250.561 54.6701C250.337 55.0258 250.057 55.3469 249.757 55.7509C251.024 56.6142 251.794 57.7054 251.242 59.2351C250.658 60.8512 249.339 61.4969 247.706 61.5418C246.849 61.566 245.982 61.5487 245.14 61.4175C243.914 61.2276 243.783 60.865 244.328 59.7082C245.492 59.7703 246.642 59.8981 247.785 59.867C248.676 59.8429 249.363 59.4009 249.398 58.3753C249.436 57.3428 248.607 57.1563 247.882 56.9077C247.647 56.8248 247.371 56.8628 247.115 56.8283C246.507 56.742 245.61 57.1563 245.63 55.9788C245.651 54.9429 246.445 55.2364 247.039 55.1397C247.492 55.0637 248.034 55.0119 248.344 54.7357C248.679 54.4353 248.976 53.869 248.942 53.4477C248.914 53.1093 248.389 52.574 248.047 52.543C246.842 52.4325 245.623 52.4981 244.083 52.4981Z" fill="#2C2C2C"/>
<path d="M130.524 49.8944C129.333 49.7528 128.124 49.5284 127.506 48.3233C127.333 47.9883 127.551 47.4565 127.589 47.018C128.017 47.1285 128.618 47.1008 128.846 47.3771C130.02 48.8136 130.89 48.8205 132.099 47.3771C132.323 47.1112 132.851 47.0974 133.242 46.9696C133.3 47.3909 133.539 47.8916 133.387 48.2162C132.844 49.3799 131.76 49.777 130.524 49.8979V49.8944Z" fill="#2C2C2C"/>
</svg>
