<svg width="1920" height="2092" viewBox="0 0 1920 2092" fill="none" xmlns="http://www.w3.org/2000/svg">
<g filter="url(#filter0_f_601_204)">
<path d="M10.4015 822.841C75.6474 828.536 299.035 1148.92 293.34 1214.17C287.645 1279.41 230.136 1327.69 164.89 1321.99C99.6442 1316.3 -380.383 1221.1 -374.688 1155.86C-368.993 1090.61 -54.8443 817.146 10.4015 822.841Z" fill="#72D297" fill-opacity="0.3"/>
</g>
<g filter="url(#filter1_f_601_204)">
<path d="M8.53829 693.889V689.384C6.86411 689.356 5.26273 689.213 3.73414 688.955C2.2201 688.698 0.982667 688.362 0.0218371 687.947V684.472C1.02634 684.93 2.31473 685.33 3.887 685.673C5.45926 686.017 7.00969 686.202 8.53829 686.231V676.792C6.61663 676.263 5.02252 675.662 3.75597 674.99C2.50398 674.304 1.56499 673.467 0.938993 672.48C0.312998 671.493 0 670.299 0 668.898C0 667.439 0.349393 666.195 1.04818 665.165C1.76152 664.121 2.75875 663.306 4.03986 662.719C5.32096 662.133 6.82044 661.797 8.53829 661.711V658H11.2024V661.668C12.7601 661.711 14.1795 661.883 15.4606 662.183C16.7417 662.469 17.9282 662.841 19.0201 663.299L17.8845 666.281C16.8946 665.894 15.8246 665.565 14.6745 665.294C13.5244 665.022 12.3671 664.836 11.2024 664.736V674.111C13.1532 674.668 14.7837 675.262 16.0939 675.891C17.4187 676.52 18.4159 677.3 19.0856 678.229C19.7553 679.159 20.0901 680.36 20.0901 681.833C20.0901 683.921 19.3112 685.609 17.7535 686.896C16.1958 688.169 14.0121 688.941 11.2024 689.213V693.889H8.53829ZM11.2024 686.038C12.993 685.866 14.3251 685.444 15.1986 684.772C16.0866 684.086 16.5306 683.185 16.5306 682.069C16.5306 681.268 16.356 680.611 16.0066 680.096C15.6717 679.581 15.1185 679.138 14.3469 678.766C13.5754 678.38 12.5272 678.015 11.2024 677.672V686.038ZM8.53829 673.21V664.822C7.44644 664.893 6.52928 665.094 5.78682 665.422C5.04436 665.751 4.48388 666.18 4.10537 666.71C3.74142 667.239 3.55944 667.868 3.55944 668.597C3.55944 669.441 3.71958 670.149 4.03986 670.721C4.37469 671.279 4.90606 671.758 5.63396 672.158C6.37642 672.545 7.34453 672.895 8.53829 673.21Z" fill="#60BF84"/>
<path d="M38.5206 691.337H34.983V669.112C34.983 668.268 34.983 667.546 34.983 666.946C34.9975 666.331 35.0121 665.773 35.0266 665.272C35.0558 664.757 35.0921 664.235 35.1358 663.706C34.6845 664.164 34.2623 664.557 33.8693 664.886C33.4762 665.201 32.9885 665.594 32.4062 666.066L28.7594 668.941L26.8596 666.517L35.507 659.974H38.5206V691.337Z" fill="#60BF84"/>
<path d="M70.359 667.289C70.359 668.69 70.0824 669.906 69.5292 670.936C68.976 671.965 68.2044 672.809 67.2145 673.467C66.2245 674.111 65.0599 674.561 63.7205 674.818V674.99C66.2536 675.305 68.1534 676.106 69.42 677.393C70.7011 678.68 71.3417 680.367 71.3417 682.455C71.3417 684.272 70.9049 685.881 70.0314 687.282C69.1725 688.684 67.8477 689.785 66.0571 690.586C64.281 691.372 62.0027 691.766 59.2221 691.766C57.5334 691.766 55.9684 691.63 54.5271 691.358C53.1004 691.101 51.732 690.664 50.4218 690.05V686.703C51.7465 687.347 53.1878 687.854 54.7455 688.226C56.3032 688.584 57.81 688.762 59.2658 688.762C62.1774 688.762 64.281 688.197 65.5767 687.068C66.8723 685.924 67.5202 684.365 67.5202 682.391C67.5202 681.032 67.1562 679.938 66.4283 679.109C65.715 678.265 64.6814 677.65 63.3275 677.264C61.9881 676.864 60.3722 676.663 58.4796 676.663H55.2914V673.617H58.5015C60.2339 673.617 61.7042 673.367 62.9126 672.866C64.1209 672.366 65.038 671.665 65.664 670.764C66.3046 669.849 66.6248 668.769 66.6248 667.525C66.6248 665.937 66.0862 664.715 65.0089 663.856C63.9316 662.984 62.4685 662.548 60.6197 662.548C59.4841 662.548 58.4505 662.662 57.5188 662.891C56.5871 663.12 55.7136 663.435 54.8984 663.835C54.0831 664.235 53.2679 664.7 52.4526 665.229L50.6183 662.784C51.7829 661.897 53.2023 661.132 54.8765 660.488C56.5507 659.845 58.4505 659.523 60.576 659.523C63.837 659.523 66.2827 660.252 67.9132 661.711C69.5437 663.17 70.359 665.029 70.359 667.289Z" fill="#60BF84"/>
<path d="M81.9763 686.231L82.2602 686.724C81.9981 687.768 81.6633 688.884 81.2557 690.071C80.8626 691.258 80.4259 692.445 79.9455 693.632C79.4796 694.833 79.0065 695.956 78.526 697H75.8183C76.124 695.856 76.4224 694.647 76.7136 693.375C77.0047 692.116 77.2668 690.872 77.4997 689.642C77.7472 688.398 77.9437 687.261 78.0893 686.231H81.9763Z" fill="#60BF84"/>
<path d="M110.299 684.064H105.517V691.337H101.979V684.064H86.5402V681.061L101.739 659.802H105.517V680.847H110.299V684.064ZM101.979 680.847V670.592C101.979 669.806 101.986 669.098 102.001 668.469C102.015 667.825 102.037 667.232 102.066 666.688C102.096 666.13 102.117 665.601 102.132 665.101C102.161 664.6 102.183 664.107 102.197 663.62H102.023C101.746 664.193 101.426 664.8 101.062 665.444C100.712 666.073 100.356 666.638 99.9919 667.139L90.1434 680.847H101.979Z" fill="#60BF84"/>
<path d="M134.298 691.337H113.378V688.355L121.916 679.838C123.503 678.265 124.835 676.864 125.912 675.634C127.004 674.404 127.834 673.195 128.402 672.008C128.97 670.807 129.254 669.491 129.254 668.061C129.254 666.288 128.715 664.936 127.638 664.007C126.575 663.063 125.17 662.591 123.423 662.591C121.894 662.591 120.541 662.848 119.361 663.363C118.182 663.878 116.974 664.607 115.736 665.551L113.793 663.149C114.637 662.448 115.554 661.826 116.544 661.282C117.549 660.739 118.619 660.31 119.754 659.995C120.904 659.68 122.127 659.523 123.423 659.523C125.388 659.523 127.084 659.859 128.511 660.531C129.938 661.204 131.037 662.162 131.808 663.406C132.595 664.65 132.988 666.13 132.988 667.847C132.988 669.506 132.653 671.05 131.983 672.48C131.313 673.896 130.374 675.305 129.166 676.706C127.958 678.094 126.546 679.567 124.93 681.125L117.986 687.926V688.076H134.298V691.337Z" fill="#60BF84"/>
<path d="M152.466 691.337H148.929V669.112C148.929 668.268 148.929 667.546 148.929 666.946C148.943 666.331 148.958 665.773 148.972 665.272C149.001 664.757 149.038 664.235 149.082 663.706C148.63 664.164 148.208 664.557 147.815 664.886C147.422 665.201 146.934 665.594 146.352 666.066L142.705 668.941L140.805 666.517L149.453 659.974H152.466V691.337Z" fill="#60BF84"/>
<path d="M165.634 689.106C165.634 688.105 165.882 687.397 166.377 686.982C166.871 686.553 167.476 686.338 168.189 686.338C168.931 686.338 169.557 686.553 170.067 686.982C170.577 687.397 170.831 688.105 170.831 689.106C170.831 690.092 170.577 690.815 170.067 691.272C169.557 691.716 168.931 691.937 168.189 691.937C167.476 691.937 166.871 691.716 166.377 691.272C165.882 690.815 165.634 690.092 165.634 689.106Z" fill="#60BF84"/>
<path d="M197.407 675.612C197.407 678.158 197.21 680.432 196.817 682.434C196.424 684.436 195.806 686.131 194.961 687.518C194.117 688.905 193.025 689.964 191.686 690.693C190.346 691.408 188.738 691.766 186.86 691.766C184.487 691.766 182.521 691.129 180.964 689.856C179.421 688.584 178.263 686.746 177.492 684.343C176.735 681.926 176.356 679.016 176.356 675.612C176.356 672.266 176.698 669.391 177.382 666.988C178.081 664.572 179.202 662.719 180.745 661.432C182.288 660.131 184.327 659.48 186.86 659.48C189.262 659.48 191.242 660.124 192.799 661.411C194.357 662.684 195.514 664.529 196.271 666.946C197.028 669.348 197.407 672.237 197.407 675.612ZM180.003 675.612C180.003 678.53 180.228 680.961 180.68 682.906C181.131 684.851 181.859 686.31 182.863 687.282C183.883 688.24 185.215 688.719 186.86 688.719C188.505 688.719 189.83 688.24 190.834 687.282C191.853 686.324 192.588 684.872 193.04 682.927C193.505 680.982 193.738 678.544 193.738 675.612C193.738 672.738 193.513 670.335 193.061 668.404C192.61 666.459 191.882 665.001 190.878 664.028C189.873 663.041 188.534 662.548 186.86 662.548C185.186 662.548 183.846 663.041 182.842 664.028C181.837 665.001 181.109 666.459 180.658 668.404C180.221 670.335 180.003 672.738 180.003 675.612Z" fill="#60BF84"/>
<path d="M223 675.612C223 678.158 222.803 680.432 222.41 682.434C222.017 684.436 221.399 686.131 220.554 687.518C219.71 688.905 218.618 689.964 217.279 690.693C215.939 691.408 214.331 691.766 212.453 691.766C210.08 691.766 208.114 691.129 206.557 689.856C205.014 688.584 203.856 686.746 203.085 684.343C202.328 681.926 201.949 679.016 201.949 675.612C201.949 672.266 202.291 669.391 202.975 666.988C203.674 664.572 204.795 662.719 206.338 661.432C207.881 660.131 209.92 659.48 212.453 659.48C214.855 659.48 216.835 660.124 218.392 661.411C219.95 662.684 221.107 664.529 221.864 666.946C222.621 669.348 223 672.237 223 675.612ZM205.596 675.612C205.596 678.53 205.822 680.961 206.273 682.906C206.724 684.851 207.452 686.31 208.457 687.282C209.476 688.24 210.808 688.719 212.453 688.719C214.098 688.719 215.423 688.24 216.427 687.282C217.446 686.324 218.181 684.872 218.633 682.927C219.098 680.982 219.331 678.544 219.331 675.612C219.331 672.738 219.106 670.335 218.654 668.404C218.203 666.459 217.475 665.001 216.471 664.028C215.466 663.041 214.127 662.548 212.453 662.548C210.779 662.548 209.439 663.041 208.435 664.028C207.43 665.001 206.702 666.459 206.251 668.404C205.814 670.335 205.596 672.738 205.596 675.612Z" fill="#60BF84"/>
</g>
<g filter="url(#filter2_f_601_204)">
<path d="M1667.09 1527.53V1521.06C1664.72 1521.02 1662.45 1520.82 1660.29 1520.45C1658.14 1520.08 1656.39 1519.6 1655.03 1519V1514.01C1656.45 1514.67 1658.28 1515.24 1660.51 1515.74C1662.73 1516.23 1664.93 1516.5 1667.09 1516.54V1502.98C1664.37 1502.22 1662.11 1501.36 1660.32 1500.4C1658.55 1499.41 1657.22 1498.21 1656.33 1496.79C1655.44 1495.38 1655 1493.66 1655 1491.65C1655 1489.55 1655.49 1487.77 1656.48 1486.29C1657.49 1484.79 1658.91 1483.62 1660.72 1482.78C1662.54 1481.93 1664.66 1481.45 1667.09 1481.33V1476H1670.87V1481.27C1673.07 1481.33 1675.08 1481.58 1676.9 1482.01C1678.71 1482.42 1680.39 1482.95 1681.94 1483.61L1680.33 1487.89C1678.93 1487.34 1677.41 1486.86 1675.78 1486.47C1674.16 1486.08 1672.52 1485.82 1670.87 1485.67V1499.13C1673.63 1499.93 1675.94 1500.79 1677.79 1501.69C1679.67 1502.59 1681.08 1503.71 1682.03 1505.05C1682.98 1506.38 1683.45 1508.11 1683.45 1510.22C1683.45 1513.22 1682.35 1515.64 1680.15 1517.49C1677.94 1519.32 1674.85 1520.43 1670.87 1520.82V1527.53H1667.09ZM1670.87 1516.26C1673.4 1516.01 1675.29 1515.41 1676.53 1514.44C1677.78 1513.46 1678.41 1512.16 1678.41 1510.56C1678.41 1509.41 1678.17 1508.47 1677.67 1507.73C1677.2 1506.99 1676.41 1506.35 1675.32 1505.82C1674.23 1505.26 1672.74 1504.74 1670.87 1504.25V1516.26ZM1667.09 1497.84V1485.8C1665.55 1485.9 1664.25 1486.19 1663.2 1486.66C1662.14 1487.13 1661.35 1487.75 1660.81 1488.51C1660.3 1489.27 1660.04 1490.17 1660.04 1491.22C1660.04 1492.43 1660.27 1493.44 1660.72 1494.27C1661.2 1495.07 1661.95 1495.76 1662.98 1496.33C1664.03 1496.88 1665.4 1497.39 1667.09 1497.84Z" fill="#60BF84"/>
<path d="M1718.4 1489.34C1718.4 1491.35 1718.01 1493.1 1717.23 1494.57C1716.45 1496.05 1715.35 1497.26 1713.95 1498.21C1712.55 1499.13 1710.9 1499.78 1709 1500.15V1500.4C1712.59 1500.85 1715.28 1502 1717.07 1503.85C1718.89 1505.69 1719.8 1508.12 1719.8 1511.12C1719.8 1513.72 1719.18 1516.03 1717.94 1518.05C1716.72 1520.06 1714.85 1521.64 1712.31 1522.79C1709.8 1523.92 1706.57 1524.48 1702.63 1524.48C1700.24 1524.48 1698.02 1524.29 1695.98 1523.9C1693.96 1523.53 1692.02 1522.9 1690.17 1522.02V1517.21C1692.04 1518.14 1694.08 1518.87 1696.29 1519.4C1698.5 1519.91 1700.63 1520.17 1702.69 1520.17C1706.82 1520.17 1709.8 1519.36 1711.63 1517.74C1713.47 1516.1 1714.38 1513.86 1714.38 1511.02C1714.38 1509.07 1713.87 1507.5 1712.84 1506.31C1711.83 1505.1 1710.36 1504.22 1708.45 1503.66C1706.55 1503.09 1704.26 1502.8 1701.58 1502.8H1697.06V1498.42H1701.61C1704.06 1498.42 1706.15 1498.07 1707.86 1497.35C1709.57 1496.63 1710.87 1495.62 1711.75 1494.33C1712.66 1493.01 1713.12 1491.46 1713.12 1489.68C1713.12 1487.4 1712.35 1485.64 1710.83 1484.41C1709.3 1483.16 1707.23 1482.53 1704.61 1482.53C1703 1482.53 1701.54 1482.69 1700.22 1483.02C1698.9 1483.35 1697.66 1483.8 1696.51 1484.38C1695.35 1484.95 1694.2 1485.62 1693.04 1486.38L1690.44 1482.87C1692.09 1481.6 1694.1 1480.5 1696.48 1479.57C1698.85 1478.65 1701.54 1478.19 1704.55 1478.19C1709.17 1478.19 1712.63 1479.23 1714.94 1481.33C1717.25 1483.42 1718.4 1486.09 1718.4 1489.34Z" fill="#60BF84"/>
<path d="M1740.98 1496.33C1744.05 1496.33 1746.72 1496.85 1748.99 1497.9C1751.26 1498.93 1753.01 1500.43 1754.25 1502.4C1755.51 1504.37 1756.14 1506.76 1756.14 1509.58C1756.14 1512.66 1755.47 1515.31 1754.13 1517.55C1752.79 1519.77 1750.86 1521.49 1748.34 1522.7C1745.83 1523.89 1742.82 1524.48 1739.31 1524.48C1736.96 1524.48 1734.78 1524.28 1732.76 1523.87C1730.73 1523.46 1729.03 1522.84 1727.65 1522.02V1517.15C1729.16 1518.06 1730.98 1518.78 1733.13 1519.31C1735.27 1519.84 1737.35 1520.11 1739.37 1520.11C1741.66 1520.11 1743.66 1519.75 1745.37 1519.03C1747.11 1518.29 1748.45 1517.18 1749.39 1515.71C1750.36 1514.21 1750.85 1512.33 1750.85 1510.07C1750.85 1507.07 1749.92 1504.76 1748.06 1503.14C1746.23 1501.49 1743.32 1500.67 1739.34 1500.67C1738.06 1500.67 1736.66 1500.78 1735.14 1500.98C1733.61 1501.19 1732.35 1501.41 1731.36 1501.66L1728.77 1499.96L1730.5 1478.83H1752.98V1483.52H1734.89L1733.74 1497.1C1734.53 1496.94 1735.54 1496.77 1736.78 1496.61C1738.01 1496.42 1739.42 1496.33 1740.98 1496.33Z" fill="#60BF84"/>
<path d="M1771.11 1516.54L1771.51 1517.25C1771.14 1518.74 1770.66 1520.35 1770.09 1522.05C1769.53 1523.76 1768.91 1525.46 1768.23 1527.16C1767.57 1528.89 1766.9 1530.5 1766.22 1532H1762.38C1762.82 1530.36 1763.24 1528.62 1763.65 1526.79C1764.07 1524.99 1764.44 1523.2 1764.77 1521.43C1765.12 1519.65 1765.4 1518.02 1765.6 1516.54H1771.11Z" fill="#60BF84"/>
<path d="M1793.62 1496.33C1796.7 1496.33 1799.37 1496.85 1801.63 1497.9C1803.9 1498.93 1805.65 1500.43 1806.89 1502.4C1808.15 1504.37 1808.78 1506.76 1808.78 1509.58C1808.78 1512.66 1808.11 1515.31 1806.77 1517.55C1805.43 1519.77 1803.5 1521.49 1800.98 1522.7C1798.47 1523.89 1795.46 1524.48 1791.95 1524.48C1789.6 1524.48 1787.42 1524.28 1785.4 1523.87C1783.38 1523.46 1781.67 1522.84 1780.29 1522.02V1517.15C1781.8 1518.06 1783.62 1518.78 1785.77 1519.31C1787.91 1519.84 1789.99 1520.11 1792.01 1520.11C1794.3 1520.11 1796.3 1519.75 1798.01 1519.03C1799.75 1518.29 1801.09 1517.18 1802.04 1515.71C1803 1514.21 1803.49 1512.33 1803.49 1510.07C1803.49 1507.07 1802.56 1504.76 1800.71 1503.14C1798.87 1501.49 1795.96 1500.67 1791.98 1500.67C1790.71 1500.67 1789.3 1500.78 1787.78 1500.98C1786.25 1501.19 1784.99 1501.41 1784 1501.66L1781.41 1499.96L1783.14 1478.83H1805.62V1483.52H1787.53L1786.39 1497.1C1787.17 1496.94 1788.18 1496.77 1789.42 1496.61C1790.65 1496.42 1792.06 1496.33 1793.62 1496.33Z" fill="#60BF84"/>
<path d="M1821.43 1523.87L1839.99 1483.52H1815.34V1478.83H1845.49V1482.78L1827.06 1523.87H1821.43Z" fill="#60BF84"/>
<path d="M1883.72 1513.43H1876.95V1523.87H1871.93V1513.43H1850.07V1509.11L1871.59 1478.59H1876.95V1508.81H1883.72V1513.43ZM1871.93 1508.81V1494.08C1871.93 1492.95 1871.95 1491.94 1871.97 1491.03C1871.99 1490.11 1872.02 1489.26 1872.06 1488.48C1872.1 1487.67 1872.13 1486.91 1872.15 1486.2C1872.19 1485.48 1872.22 1484.77 1872.24 1484.07H1872C1871.6 1484.89 1871.15 1485.76 1870.64 1486.69C1870.14 1487.59 1869.64 1488.4 1869.12 1489.12L1855.17 1508.81H1871.93Z" fill="#60BF84"/>
<path d="M1889.6 1520.66C1889.6 1519.23 1889.95 1518.21 1890.65 1517.61C1891.35 1517 1892.2 1516.69 1893.21 1516.69C1894.27 1516.69 1895.15 1517 1895.87 1517.61C1896.6 1518.21 1896.96 1519.23 1896.96 1520.66C1896.96 1522.08 1896.6 1523.12 1895.87 1523.78C1895.15 1524.41 1894.27 1524.73 1893.21 1524.73C1892.2 1524.73 1891.35 1524.41 1890.65 1523.78C1889.95 1523.12 1889.6 1522.08 1889.6 1520.66Z" fill="#60BF84"/>
<path d="M1932.68 1489.34C1932.68 1491.35 1932.29 1493.1 1931.5 1494.57C1930.72 1496.05 1929.63 1497.26 1928.23 1498.21C1926.82 1499.13 1925.17 1499.78 1923.28 1500.15V1500.4C1926.86 1500.85 1929.56 1502 1931.35 1503.85C1933.16 1505.69 1934.07 1508.12 1934.07 1511.12C1934.07 1513.72 1933.45 1516.03 1932.22 1518.05C1931 1520.06 1929.12 1521.64 1926.59 1522.79C1924.07 1523.92 1920.84 1524.48 1916.91 1524.48C1914.51 1524.48 1912.3 1524.29 1910.26 1523.9C1908.24 1523.53 1906.3 1522.9 1904.44 1522.02V1517.21C1906.32 1518.14 1908.36 1518.87 1910.57 1519.4C1912.77 1519.91 1914.91 1520.17 1916.97 1520.17C1921.09 1520.17 1924.07 1519.36 1925.91 1517.74C1927.74 1516.1 1928.66 1513.86 1928.66 1511.02C1928.66 1509.07 1928.14 1507.5 1927.11 1506.31C1926.1 1505.1 1924.64 1504.22 1922.72 1503.66C1920.82 1503.09 1918.53 1502.8 1915.85 1502.8H1911.34V1498.42H1915.88C1918.34 1498.42 1920.42 1498.07 1922.13 1497.35C1923.84 1496.63 1925.14 1495.62 1926.03 1494.33C1926.94 1493.01 1927.39 1491.46 1927.39 1489.68C1927.39 1487.4 1926.63 1485.64 1925.1 1484.41C1923.58 1483.16 1921.5 1482.53 1918.88 1482.53C1917.28 1482.53 1915.81 1482.69 1914.49 1483.02C1913.17 1483.35 1911.94 1483.8 1910.78 1484.38C1909.63 1484.95 1908.47 1485.62 1907.32 1486.38L1904.72 1482.87C1906.37 1481.6 1908.38 1480.5 1910.75 1479.57C1913.12 1478.65 1915.81 1478.19 1918.82 1478.19C1923.44 1478.19 1926.91 1479.23 1929.22 1481.33C1931.52 1483.42 1932.68 1486.09 1932.68 1489.34Z" fill="#60BF84"/>
<path d="M1941.43 1504.62C1941.43 1501.91 1941.62 1499.26 1941.99 1496.67C1942.38 1494.08 1943.03 1491.68 1943.94 1489.46C1944.84 1487.22 1946.08 1485.26 1947.65 1483.58C1949.22 1481.89 1951.16 1480.58 1953.49 1479.63C1955.84 1478.67 1958.66 1478.19 1961.94 1478.19C1962.87 1478.19 1963.87 1478.24 1964.94 1478.34C1966.01 1478.42 1966.9 1478.57 1967.6 1478.77V1483.18C1966.83 1482.91 1965.96 1482.72 1964.97 1482.59C1964 1482.47 1963.02 1482.41 1962.03 1482.41C1958.2 1482.41 1955.17 1483.24 1952.97 1484.9C1950.78 1486.57 1949.21 1488.82 1948.24 1491.68C1947.27 1494.51 1946.71 1497.71 1946.57 1501.26H1946.91C1947.55 1500.23 1948.36 1499.31 1949.35 1498.49C1950.34 1497.64 1951.54 1496.98 1952.94 1496.48C1954.36 1495.99 1956.01 1495.74 1957.89 1495.74C1960.53 1495.74 1962.82 1496.28 1964.78 1497.35C1966.76 1498.41 1968.29 1499.96 1969.36 1502C1970.45 1504.03 1971 1506.5 1971 1509.39C1971 1512.49 1970.42 1515.17 1969.27 1517.43C1968.11 1519.69 1966.46 1521.43 1964.32 1522.67C1962.2 1523.88 1959.66 1524.48 1956.71 1524.48C1954.5 1524.48 1952.47 1524.06 1950.62 1523.22C1948.76 1522.38 1947.14 1521.13 1945.76 1519.46C1944.4 1517.8 1943.34 1515.74 1942.58 1513.27C1941.81 1510.79 1941.43 1507.9 1941.43 1504.62ZM1956.65 1520.17C1959.45 1520.17 1961.7 1519.28 1963.39 1517.49C1965.08 1515.71 1965.93 1513 1965.93 1509.39C1965.93 1506.43 1965.18 1504.09 1963.67 1502.37C1962.16 1500.64 1959.9 1499.78 1956.87 1499.78C1954.8 1499.78 1953.01 1500.21 1951.48 1501.07C1949.96 1501.92 1948.77 1502.98 1947.93 1504.28C1947.08 1505.57 1946.66 1506.89 1946.66 1508.22C1946.66 1509.58 1946.85 1510.95 1947.25 1512.35C1947.66 1513.74 1948.28 1515.04 1949.1 1516.23C1949.93 1517.42 1950.97 1518.37 1952.23 1519.09C1953.48 1519.81 1954.96 1520.17 1956.65 1520.17Z" fill="#60BF84"/>
</g>
<g filter="url(#filter3_f_601_204)">
<path d="M1449.33 753.661L1460.46 732.613H1465.63L1453.23 755.121H1461.03V758.712H1451.72V763.791H1461.03V767.382H1451.72V775.293H1446.94V767.382H1437.61V763.791H1446.94V758.712H1437.61V755.121H1445.29L1433 732.613H1438.23L1449.33 753.661Z" fill="#60BF84"/>
<path d="M1497.97 775.293H1469.68V771.235L1481.23 759.646C1483.37 757.505 1485.17 755.598 1486.63 753.924C1488.11 752.25 1489.23 750.606 1490 748.99C1490.76 747.355 1491.15 745.565 1491.15 743.619C1491.15 741.205 1490.42 739.366 1488.96 738.101C1487.53 736.817 1485.63 736.175 1483.26 736.175C1481.2 736.175 1479.36 736.525 1477.77 737.226C1476.18 737.926 1474.54 738.919 1472.87 740.203L1470.24 736.934C1471.38 735.98 1472.62 735.133 1473.96 734.394C1475.32 733.654 1476.77 733.07 1478.3 732.642C1479.86 732.214 1481.51 732 1483.26 732C1485.92 732 1488.21 732.457 1490.14 733.372C1492.07 734.287 1493.56 735.591 1494.6 737.284C1495.67 738.977 1496.2 740.991 1496.2 743.327C1496.2 745.584 1495.75 747.686 1494.84 749.633C1493.93 751.559 1492.66 753.476 1491.03 755.384C1489.4 757.271 1487.49 759.276 1485.3 761.397L1475.91 770.651V770.856H1497.97V775.293Z" fill="#60BF84"/>
<path d="M1522.54 775.293H1517.76V745.049C1517.76 743.901 1517.76 742.918 1517.76 742.101C1517.78 741.264 1517.8 740.505 1517.82 739.824C1517.85 739.123 1517.9 738.413 1517.96 737.693C1517.35 738.315 1516.78 738.851 1516.25 739.298C1515.72 739.726 1515.06 740.262 1514.27 740.904L1509.34 744.816L1506.77 741.517L1518.46 732.613H1522.54V775.293Z" fill="#60BF84"/>
<path d="M1546.7 768.345L1547.08 769.017C1546.73 770.437 1546.27 771.955 1545.72 773.571C1545.19 775.186 1544.6 776.801 1543.95 778.417C1543.32 780.052 1542.68 781.579 1542.03 783H1538.37C1538.78 781.443 1539.19 779.799 1539.58 778.066C1539.97 776.354 1540.33 774.661 1540.64 772.987C1540.98 771.294 1541.24 769.746 1541.44 768.345H1546.7Z" fill="#60BF84"/>
<path d="M1585 765.397H1578.53V775.293H1573.75V765.397H1552.87V761.31L1573.42 732.38H1578.53V761.018H1585V765.397ZM1573.75 761.018V747.064C1573.75 745.993 1573.76 745.03 1573.78 744.173C1573.8 743.298 1573.83 742.49 1573.87 741.75C1573.91 740.991 1573.94 740.271 1573.96 739.59C1573.99 738.909 1574.02 738.238 1574.04 737.576H1573.81C1573.43 738.354 1573 739.181 1572.51 740.057C1572.04 740.914 1571.55 741.682 1571.06 742.363L1557.74 761.018H1573.75Z" fill="#60BF84"/>
<path d="M1615.86 742.568C1615.86 744.475 1615.49 746.129 1614.74 747.531C1613.99 748.932 1612.95 750.08 1611.61 750.975C1610.27 751.851 1608.69 752.464 1606.88 752.815V753.048C1610.31 753.476 1612.88 754.566 1614.59 756.318C1616.32 758.069 1617.19 760.366 1617.19 763.207C1617.19 765.679 1616.6 767.868 1615.42 769.776C1614.26 771.683 1612.46 773.181 1610.04 774.271C1607.64 775.342 1604.56 775.877 1600.8 775.877C1598.52 775.877 1596.4 775.692 1594.45 775.322C1592.52 774.972 1590.67 774.378 1588.9 773.542V768.987C1590.69 769.863 1592.64 770.554 1594.75 771.06C1596.85 771.547 1598.89 771.79 1600.86 771.79C1604.8 771.79 1607.64 771.021 1609.39 769.484C1611.15 767.927 1612.02 765.805 1612.02 763.12C1612.02 761.271 1611.53 759.782 1610.54 758.653C1609.58 757.505 1608.18 756.668 1606.35 756.143C1604.54 755.598 1602.35 755.325 1599.8 755.325H1595.48V751.18H1599.82C1602.17 751.18 1604.16 750.839 1605.79 750.158C1607.42 749.477 1608.66 748.523 1609.51 747.297C1610.38 746.052 1610.81 744.582 1610.81 742.889C1610.81 740.729 1610.08 739.065 1608.63 737.897C1607.17 736.71 1605.19 736.116 1602.69 736.116C1601.15 736.116 1599.76 736.272 1598.5 736.583C1597.24 736.895 1596.05 737.323 1594.95 737.868C1593.85 738.413 1592.75 739.045 1591.64 739.765L1589.16 736.437C1590.74 735.231 1592.66 734.189 1594.92 733.314C1597.19 732.438 1599.76 732 1602.63 732C1607.04 732 1610.35 732.993 1612.55 734.978C1614.76 736.963 1615.86 739.493 1615.86 742.568Z" fill="#60BF84"/>
<path d="M1637.42 749.195C1640.35 749.195 1642.9 749.691 1645.07 750.683C1647.23 751.657 1648.91 753.077 1650.09 754.946C1651.29 756.814 1651.89 759.081 1651.89 761.748C1651.89 764.667 1651.25 767.187 1649.97 769.309C1648.69 771.41 1646.85 773.035 1644.45 774.184C1642.05 775.313 1639.17 775.877 1635.82 775.877C1633.58 775.877 1631.49 775.682 1629.56 775.293C1627.63 774.904 1626.01 774.32 1624.69 773.542V768.929C1626.13 769.785 1627.87 770.467 1629.92 770.973C1631.97 771.479 1633.95 771.732 1635.88 771.732C1638.07 771.732 1639.98 771.391 1641.61 770.71C1643.27 770.009 1644.55 768.958 1645.45 767.557C1646.38 766.136 1646.84 764.355 1646.84 762.215C1646.84 759.373 1645.95 757.184 1644.18 755.646C1642.43 754.089 1639.65 753.311 1635.85 753.311C1634.63 753.311 1633.29 753.408 1631.84 753.603C1630.38 753.797 1629.18 754.011 1628.23 754.245L1625.75 752.639L1627.41 732.613H1648.88V737.05H1631.6L1630.51 749.924C1631.26 749.769 1632.22 749.613 1633.4 749.457C1634.58 749.282 1635.92 749.195 1637.42 749.195Z" fill="#60BF84"/>
<path d="M1659.83 772.257C1659.83 770.895 1660.17 769.931 1660.84 769.367C1661.51 768.783 1662.32 768.491 1663.29 768.491C1664.29 768.491 1665.14 768.783 1665.83 769.367C1666.52 769.931 1666.86 770.895 1666.86 772.257C1666.86 773.6 1666.52 774.583 1665.83 775.205C1665.14 775.809 1664.29 776.11 1663.29 776.11C1662.32 776.11 1661.51 775.809 1660.84 775.205C1660.17 774.583 1659.83 773.6 1659.83 772.257Z" fill="#60BF84"/>
<path d="M1674.72 757.048C1674.72 754.479 1674.89 751.968 1675.25 749.516C1675.62 747.064 1676.24 744.786 1677.11 742.685C1677.98 740.563 1679.16 738.705 1680.65 737.109C1682.15 735.513 1684.01 734.267 1686.23 733.372C1688.48 732.457 1691.17 732 1694.3 732C1695.18 732 1696.14 732.049 1697.16 732.146C1698.19 732.224 1699.03 732.36 1699.7 732.555V736.729C1698.97 736.476 1698.14 736.291 1697.19 736.175C1696.27 736.058 1695.33 735.999 1694.39 735.999C1690.72 735.999 1687.84 736.788 1685.73 738.364C1683.65 739.94 1682.14 742.081 1681.21 744.786C1680.29 747.472 1679.76 750.499 1679.62 753.865H1679.94C1680.55 752.892 1681.33 752.017 1682.28 751.238C1683.22 750.44 1684.36 749.808 1685.7 749.341C1687.06 748.873 1688.64 748.64 1690.43 748.64C1692.95 748.64 1695.14 749.146 1697.01 750.158C1698.9 751.17 1700.36 752.639 1701.38 754.566C1702.43 756.493 1702.95 758.828 1702.95 761.572C1702.95 764.511 1702.4 767.051 1701.3 769.192C1700.19 771.333 1698.62 772.987 1696.57 774.155C1694.54 775.303 1692.12 775.877 1689.31 775.877C1687.2 775.877 1685.26 775.478 1683.49 774.68C1681.72 773.882 1680.17 772.695 1678.85 771.118C1677.55 769.542 1676.54 767.586 1675.81 765.251C1675.08 762.896 1674.72 760.161 1674.72 757.048ZM1689.25 771.79C1691.92 771.79 1694.07 770.943 1695.69 769.25C1697.3 767.557 1698.11 764.998 1698.11 761.572C1698.11 758.77 1697.39 756.551 1695.95 754.916C1694.51 753.282 1692.35 752.464 1689.45 752.464C1687.49 752.464 1685.77 752.873 1684.32 753.69C1682.86 754.488 1681.73 755.5 1680.92 756.726C1680.11 757.952 1679.71 759.198 1679.71 760.463C1679.71 761.748 1679.9 763.052 1680.27 764.375C1680.66 765.698 1681.25 766.924 1682.04 768.053C1682.83 769.182 1683.82 770.087 1685.02 770.768C1686.23 771.449 1687.63 771.79 1689.25 771.79Z" fill="#60BF84"/>
<path d="M1722.53 749.195C1725.46 749.195 1728.01 749.691 1730.18 750.683C1732.34 751.657 1734.02 753.077 1735.2 754.946C1736.4 756.814 1737 759.081 1737 761.748C1737 764.667 1736.36 767.187 1735.08 769.309C1733.8 771.41 1731.96 773.035 1729.56 774.184C1727.16 775.313 1724.28 775.877 1720.93 775.877C1718.69 775.877 1716.6 775.682 1714.67 775.293C1712.74 774.904 1711.12 774.32 1709.8 773.542V768.929C1711.24 769.785 1712.98 770.467 1715.03 770.973C1717.08 771.479 1719.06 771.732 1720.99 771.732C1723.18 771.732 1725.09 771.391 1726.72 770.71C1728.38 770.009 1729.66 768.958 1730.56 767.557C1731.49 766.136 1731.95 764.355 1731.95 762.215C1731.95 759.373 1731.06 757.184 1729.29 755.646C1727.54 754.089 1724.76 753.311 1720.96 753.311C1719.74 753.311 1718.4 753.408 1716.95 753.603C1715.49 753.797 1714.29 754.011 1713.35 754.245L1710.86 752.639L1712.52 732.613H1733.99V737.05H1716.71L1715.62 749.924C1716.37 749.769 1717.33 749.613 1718.51 749.457C1719.69 749.282 1721.03 749.195 1722.53 749.195Z" fill="#60BF84"/>
</g>
<defs>
<filter id="filter0_f_601_204" x="-1196.74" y="0.75293" width="2312.19" height="2143.7" filterUnits="userSpaceOnUse" color-interpolation-filters="sRGB">
<feFlood flood-opacity="0" result="BackgroundImageFix"/>
<feBlend mode="normal" in="SourceGraphic" in2="BackgroundImageFix" result="shape"/>
<feGaussianBlur stdDeviation="411" result="effect1_foregroundBlur_601_204"/>
</filter>
<filter id="filter1_f_601_204" x="-12" y="646" width="247" height="63" filterUnits="userSpaceOnUse" color-interpolation-filters="sRGB">
<feFlood flood-opacity="0" result="BackgroundImageFix"/>
<feBlend mode="normal" in="SourceGraphic" in2="BackgroundImageFix" result="shape"/>
<feGaussianBlur stdDeviation="6" result="effect1_foregroundBlur_601_204"/>
</filter>
<filter id="filter2_f_601_204" x="1648" y="1469" width="330" height="70" filterUnits="userSpaceOnUse" color-interpolation-filters="sRGB">
<feFlood flood-opacity="0" result="BackgroundImageFix"/>
<feBlend mode="normal" in="SourceGraphic" in2="BackgroundImageFix" result="shape"/>
<feGaussianBlur stdDeviation="3.5" result="effect1_foregroundBlur_601_204"/>
</filter>
<filter id="filter3_f_601_204" x="1424" y="723" width="322" height="69" filterUnits="userSpaceOnUse" color-interpolation-filters="sRGB">
<feFlood flood-opacity="0" result="BackgroundImageFix"/>
<feBlend mode="normal" in="SourceGraphic" in2="BackgroundImageFix" result="shape"/>
<feGaussianBlur stdDeviation="4.5" result="effect1_foregroundBlur_601_204"/>
</filter>
</defs>
</svg>
