<svg width="336" height="74" viewBox="0 0 336 74" fill="none" xmlns="http://www.w3.org/2000/svg">
<g filter="url(#filter0_i_64_12)">
<path d="M33.4 33.04C32.0773 33.2107 30.8187 33.3813 29.624 33.552C28.344 33.7653 27.064 33.872 25.784 33.872C24.4613 33.872 23.3947 33.5093 22.584 32.784C21.816 32.016 21.432 30.9707 21.432 29.648C21.432 29.4347 21.4747 29.1147 21.56 28.688C21.6453 28.2613 21.7307 27.9413 21.816 27.728C22.5413 27.856 23.224 27.9413 23.864 27.984C24.504 27.984 25.336 27.984 26.36 27.984C28.536 27.984 30.584 27.92 32.504 27.792C33.4853 27.7067 34.424 27.6213 35.32 27.536C35.9173 25.0613 36.216 22.5013 36.216 19.856C36.216 16.5707 35.7253 14.2027 34.744 12.752C33.7627 11.2587 32.888 10.3413 32.12 10C31.2667 9.70133 30.2853 9.616 29.176 9.744C28.152 9.872 27.0427 10.1707 25.848 10.64C24.696 11.0667 23.544 11.6213 22.392 12.304C21.24 12.9867 20.152 13.7973 19.128 14.736C18.104 15.632 17.2293 16.5707 16.504 17.552C15.608 17.1253 14.84 16.4 14.2 15.376C13.6027 14.3093 13.24 13.072 13.112 11.664C13.0693 11.408 13.0267 11.1947 12.984 11.024C12.984 10.8533 13.0053 10.6613 13.048 10.448C13.6027 9.89333 14.4133 9.36 15.48 8.848C16.5467 8.29333 17.6987 7.78133 18.936 7.312C20.1733 6.84266 21.432 6.45866 22.712 6.16C23.992 5.81866 25.1227 5.60533 26.104 5.52C27.8533 5.30666 29.368 5.392 30.648 5.776C30.9467 5.86133 31.4587 6.096 32.184 6.48C32.952 6.82133 34.1253 7.696 35.704 9.104C37.3253 10.4693 38.712 12.4107 39.864 14.928C41.016 17.4453 41.592 20.24 41.592 23.312C41.592 27.4933 40.824 31.4827 39.288 35.28C37.752 39.0773 35.6613 42.4267 33.016 45.328C30.4133 48.2293 27.384 50.5333 23.928 52.24C22.9467 52.752 21.4533 53.2427 19.448 53.712C17.4427 54.224 14.8827 54.5867 11.768 54.8C11.256 54.8427 10.744 54.8427 10.232 54.8C8.14133 54.7147 6.17867 54.5227 4.344 54.224C2.89333 53.584 1.89067 52.496 1.336 50.96C0.781334 49.424 0.696 47.6747 1.08 45.712C1.08 45.584 1.10133 45.456 1.144 45.328C1.18667 45.2 1.22933 45.0507 1.272 44.88C2.50933 45.5627 4.152 46.096 6.2 46.48C8.33333 46.864 10.3813 47.1627 12.344 47.376C14.3067 47.5893 16.9307 47.1627 20.216 46.096C23.544 45.0293 26.3813 43.152 28.728 40.464C30.6053 38.288 32.1627 35.8133 33.4 33.04ZM79.0125 30.352C78.3298 30.3947 77.4978 30.8427 76.5165 31.696C75.5352 32.5067 74.4685 33.5733 73.3165 34.896C72.2072 36.176 71.0338 37.6053 69.7965 39.184C68.6018 40.7627 67.4285 42.3413 66.2765 43.92C65.1672 45.456 64.1218 46.9067 63.1405 48.272C62.1592 49.6373 61.3272 50.7253 60.6445 51.536C59.7058 51.152 58.8952 50.5973 58.2125 49.872C57.5298 49.104 57.0392 48.1653 56.7405 47.056C56.9538 45.7333 57.2525 44.368 57.6365 42.96C58.0205 41.5093 58.5112 40.016 59.1085 38.48C59.7485 36.944 60.5165 35.344 61.4125 33.68C62.3512 31.9733 63.4818 30.1813 64.8045 28.304C64.1645 28.3467 63.2898 28.816 62.1805 29.712C61.0712 30.5653 59.8765 31.696 58.5965 33.104C57.3165 34.4693 55.9938 36.0267 54.6285 37.776C53.2632 39.4827 51.9832 41.168 50.7885 42.832C49.2098 45.0507 47.8872 46.992 46.8205 48.656C45.7965 50.32 45.0498 51.3013 44.5805 51.6C43.4712 50.7893 42.7032 49.9147 42.2765 48.976C41.8498 48.0373 41.5298 46.992 41.3165 45.84C41.3592 44.816 41.5085 43.536 41.7645 42C42.0632 40.464 42.4685 38.8853 42.9805 37.264C43.9618 34.1493 45.2205 31.056 46.7565 27.984C48.3352 24.912 49.8498 22.096 51.3005 19.536C52.4952 19.792 53.5618 20.1973 54.5005 20.752C55.4818 21.3067 56.5058 22.1173 57.5725 23.184C57.1458 24.5067 56.4845 25.9147 55.5885 27.408C54.6925 28.8587 53.7538 30.3947 52.7725 32.016C51.7912 33.6373 50.8952 35.3013 50.0845 37.008C49.2738 38.7147 48.7405 40.4427 48.4845 42.192C49.6792 40.4853 51.0872 38.5227 52.7085 36.304C54.3725 34.0853 56.0578 31.9947 57.7645 30.032C59.5138 28.0693 61.2418 26.4053 62.9485 25.04C64.6552 23.6747 66.1912 22.992 67.5565 22.992C68.0685 22.992 68.6232 23.0773 69.2205 23.248C69.8178 23.4187 70.3725 23.632 70.8845 23.888C71.3965 24.144 71.8232 24.4 72.1645 24.656C72.5058 24.8693 72.6978 25.04 72.7405 25.168C72.5272 26.0213 72.0152 27.1947 71.2045 28.688C70.4365 30.1387 69.6045 31.6747 68.7085 33.296C67.8125 34.9173 66.9805 36.496 66.2125 38.032C65.4445 39.5253 64.9965 40.72 64.8685 41.616C66.9592 38.7573 68.9218 36.176 70.7565 33.872C72.5912 31.5253 74.3192 29.52 75.9405 27.856C77.5618 26.192 79.0552 24.912 80.4205 24.016C81.8285 23.12 83.1512 22.672 84.3885 22.672C85.2418 22.672 86.0312 22.9067 86.7565 23.376C87.5245 23.8027 88.0578 24.4427 88.3565 25.296C87.9725 26.576 87.3325 28.112 86.4365 29.904C85.5832 31.696 84.7085 33.5947 83.8125 35.6C82.9165 37.5627 82.1058 39.504 81.3805 41.424C80.6978 43.344 80.3565 45.072 80.3565 46.608C80.3565 47.504 80.4845 48.1013 80.7405 48.4C80.9965 48.656 81.3592 48.784 81.8285 48.784C82.3405 48.784 82.8098 48.6987 83.2365 48.528C83.7058 48.3147 84.0472 48.208 84.2605 48.208C84.5165 48.3787 84.6658 48.592 84.7085 48.848C84.7512 49.104 84.7725 49.3387 84.7725 49.552C83.9192 50.2347 83.0445 50.7893 82.1485 51.216C81.2525 51.6853 80.2498 51.92 79.1405 51.92C78.1165 51.92 77.2632 51.7493 76.5805 51.408C75.9405 51.0667 75.4072 50.5973 74.9805 50C74.5538 49.4027 74.2552 48.72 74.0845 47.952C73.9138 47.184 73.8285 46.352 73.8285 45.456C73.8285 44.0053 74.0205 42.576 74.4045 41.168C74.7885 39.7173 75.2365 38.352 75.7485 37.072C76.3032 35.7493 76.8792 34.5333 77.4765 33.424C78.0738 32.272 78.5858 31.248 79.0125 30.352ZM98.51 52.24C96.078 51.984 94.1367 50.9173 92.686 49.04C91.2353 47.1627 90.51 44.7733 90.51 41.872C90.51 40.1653 90.766 38.3947 91.278 36.56C91.79 34.7253 92.5153 32.9547 93.454 31.248C94.3927 29.4987 95.502 27.856 96.782 26.32C98.062 24.784 99.4487 23.4613 100.942 22.352C103.289 20.6027 105.486 19.728 107.534 19.728C108.899 20.4533 110.243 21.968 111.566 24.272C111.779 24.272 111.971 24.272 112.142 24.272C112.313 24.2293 112.505 24.208 112.718 24.208C114.979 24.208 116.11 26.2133 116.11 30.224C116.11 32.912 115.662 35.472 114.766 37.904C113.913 40.2933 112.697 42.4693 111.118 44.432C109.582 46.3947 107.726 48.0587 105.55 49.424C103.417 50.7467 101.07 51.6853 98.51 52.24ZM101.774 32.08C101.049 33.0613 100.366 34.128 99.726 35.28C99.086 36.432 98.5313 37.6053 98.062 38.8C97.5927 39.952 97.23 41.0827 96.974 42.192C96.718 43.2587 96.59 44.2187 96.59 45.072C96.59 46.096 96.7607 47.0773 97.102 48.016C97.4433 48.9547 97.8273 49.488 98.254 49.616C100.174 49.1893 101.923 48.4 103.502 47.248C105.123 46.0533 106.51 44.5813 107.662 42.832C108.857 41.0827 109.774 39.0987 110.414 36.88C111.097 34.6613 111.438 32.2933 111.438 29.776C111.438 28.6667 111.374 27.792 111.246 27.152C111.118 26.512 110.905 25.9573 110.606 25.488C108.729 26.0427 107.043 26.9387 105.55 28.176C104.099 29.4133 102.841 30.7147 101.774 32.08ZM156.2 30.352C155.517 30.3947 154.685 30.8427 153.704 31.696C152.723 32.5067 151.656 33.5733 150.504 34.896C149.395 36.176 148.221 37.6053 146.984 39.184C145.789 40.7627 144.616 42.3413 143.464 43.92C142.355 45.456 141.309 46.9067 140.328 48.272C139.347 49.6373 138.515 50.7253 137.832 51.536C136.893 51.152 136.083 50.5973 135.4 49.872C134.717 49.104 134.227 48.1653 133.928 47.056C134.141 45.7333 134.44 44.368 134.824 42.96C135.208 41.5093 135.699 40.016 136.296 38.48C136.936 36.944 137.704 35.344 138.6 33.68C139.539 31.9733 140.669 30.1813 141.992 28.304C141.352 28.3467 140.477 28.816 139.368 29.712C138.259 30.5653 137.064 31.696 135.784 33.104C134.504 34.4693 133.181 36.0267 131.816 37.776C130.451 39.4827 129.171 41.168 127.976 42.832C126.397 45.0507 125.075 46.992 124.008 48.656C122.984 50.32 122.237 51.3013 121.768 51.6C120.659 50.7893 119.891 49.9147 119.464 48.976C119.037 48.0373 118.717 46.992 118.504 45.84C118.547 44.816 118.696 43.536 118.952 42C119.251 40.464 119.656 38.8853 120.168 37.264C121.149 34.1493 122.408 31.056 123.944 27.984C125.523 24.912 127.037 22.096 128.488 19.536C129.683 19.792 130.749 20.1973 131.688 20.752C132.669 21.3067 133.693 22.1173 134.76 23.184C134.333 24.5067 133.672 25.9147 132.776 27.408C131.88 28.8587 130.941 30.3947 129.96 32.016C128.979 33.6373 128.083 35.3013 127.272 37.008C126.461 38.7147 125.928 40.4427 125.672 42.192C126.867 40.4853 128.275 38.5227 129.896 36.304C131.56 34.0853 133.245 31.9947 134.952 30.032C136.701 28.0693 138.429 26.4053 140.136 25.04C141.843 23.6747 143.379 22.992 144.744 22.992C145.256 22.992 145.811 23.0773 146.408 23.248C147.005 23.4187 147.56 23.632 148.072 23.888C148.584 24.144 149.011 24.4 149.352 24.656C149.693 24.8693 149.885 25.04 149.928 25.168C149.715 26.0213 149.203 27.1947 148.392 28.688C147.624 30.1387 146.792 31.6747 145.896 33.296C145 34.9173 144.168 36.496 143.4 38.032C142.632 39.5253 142.184 40.72 142.056 41.616C144.147 38.7573 146.109 36.176 147.944 33.872C149.779 31.5253 151.507 29.52 153.128 27.856C154.749 26.192 156.243 24.912 157.608 24.016C159.016 23.12 160.339 22.672 161.576 22.672C162.429 22.672 163.219 22.9067 163.944 23.376C164.712 23.8027 165.245 24.4427 165.544 25.296C165.16 26.576 164.52 28.112 163.624 29.904C162.771 31.696 161.896 33.5947 161 35.6C160.104 37.5627 159.293 39.504 158.568 41.424C157.885 43.344 157.544 45.072 157.544 46.608C157.544 47.504 157.672 48.1013 157.928 48.4C158.184 48.656 158.547 48.784 159.016 48.784C159.528 48.784 159.997 48.6987 160.424 48.528C160.893 48.3147 161.235 48.208 161.448 48.208C161.704 48.3787 161.853 48.592 161.896 48.848C161.939 49.104 161.96 49.3387 161.96 49.552C161.107 50.2347 160.232 50.7893 159.336 51.216C158.44 51.6853 157.437 51.92 156.328 51.92C155.304 51.92 154.451 51.7493 153.768 51.408C153.128 51.0667 152.595 50.5973 152.168 50C151.741 49.4027 151.443 48.72 151.272 47.952C151.101 47.184 151.016 46.352 151.016 45.456C151.016 44.0053 151.208 42.576 151.592 41.168C151.976 39.7173 152.424 38.352 152.936 37.072C153.491 35.7493 154.067 34.5333 154.664 33.424C155.261 32.272 155.773 31.248 156.2 30.352ZM192.74 37.392C192.356 37.8613 192.014 38.352 191.716 38.864C190.692 40.528 189.817 42.4267 189.092 44.56C188.409 46.6933 187.748 49.232 187.108 52.176C186.724 52.1333 186.254 51.984 185.7 51.728C185.188 51.5147 184.654 51.2373 184.1 50.896C183.588 50.5547 183.118 50.192 182.692 49.808C182.265 49.424 181.988 49.0613 181.86 48.72C182.073 47.4827 182.436 45.8613 182.948 43.856C183.502 41.808 184.142 39.6533 184.868 37.392C185.593 35.088 186.361 32.784 187.172 30.48C187.982 28.176 188.772 26.1067 189.54 24.272C190.094 22.9493 190.585 21.9253 191.012 21.2C191.438 20.432 191.908 19.792 192.42 19.28C193.017 19.3653 193.636 19.5147 194.276 19.728C194.916 19.9413 195.534 20.1973 196.132 20.496C196.729 20.7947 197.262 21.1147 197.732 21.456C198.201 21.7547 198.564 22.0533 198.82 22.352C197.668 23.7173 196.644 25.2747 195.748 27.024C194.894 28.7733 194.02 31.0133 193.124 33.744C195.428 31.696 197.454 29.7333 199.204 27.856C200.996 25.9787 202.66 23.888 204.196 21.584C204.452 21.3707 204.9 21.264 205.54 21.264C206.137 21.264 206.713 21.3707 207.268 21.584C207.822 21.7547 208.206 22.0107 208.42 22.352C207.652 24.4 207.268 26.4267 207.268 28.432C207.268 30.3093 207.545 31.7173 208.1 32.656C208.057 32.912 207.758 33.4027 207.204 34.128C206.692 34.8533 206.116 35.536 205.476 36.176C204.324 35.5787 203.3 34.768 202.404 33.744C201.508 32.6773 200.846 31.5253 200.42 30.288C198.5 31.6107 196.857 32.912 195.492 34.192H195.62C196.473 34.2347 197.305 34.4267 198.116 34.768C198.926 35.0667 199.63 35.4933 200.228 36.048C200.868 36.56 201.38 37.1787 201.764 37.904C202.148 38.6293 202.34 39.4613 202.34 40.4C202.34 40.784 202.318 41.168 202.276 41.552C202.233 44.5813 202.212 46.7147 202.212 47.952C202.126 48.976 202.276 49.68 202.66 50.064C203.086 50.448 203.513 50.64 203.94 50.64C204.324 50.64 204.729 50.5333 205.156 50.32C205.582 50.1067 205.924 50 206.18 50C206.35 50.0853 206.478 50.256 206.564 50.512C206.649 50.8107 206.692 51.0667 206.692 51.28C206.393 51.5787 206.052 51.8773 205.668 52.176C205.284 52.4747 204.857 52.752 204.388 53.008C203.961 53.264 203.534 53.4773 203.108 53.648C202.724 53.8187 202.361 53.904 202.02 53.904C200.996 53.904 200.228 53.7547 199.716 53.456C199.204 53.2 198.777 52.7093 198.436 51.984C198.094 51.3013 197.86 50.3627 197.732 49.168C197.646 47.9307 197.689 46.2027 197.86 43.984C198.03 41.7653 198.116 40.3147 198.116 39.632C198.116 38.5227 197.881 37.7547 197.412 37.328C196.942 36.8587 196.345 36.624 195.62 36.624C195.065 36.624 194.468 36.7307 193.828 36.944C193.444 37.072 193.081 37.2213 192.74 37.392ZM236.335 40.08C235.353 43.1947 234.372 46.032 233.391 48.592C232.409 51.152 231.364 53.4987 230.255 55.632C229.145 57.808 227.951 59.792 226.671 61.584C225.391 63.4187 223.983 65.1467 222.447 66.768C220.484 68.816 218.457 70.3733 216.367 71.44C214.276 72.5493 212.185 73.104 210.095 73.104C209.028 73.104 207.961 72.976 206.895 72.72C205.87 72.5067 204.91 72.1867 204.014 71.76C203.076 71.376 202.265 70.9067 201.582 70.352C200.857 69.84 200.345 69.2853 200.046 68.688C200.046 68.176 200.345 67.728 200.942 67.344C201.454 67.8133 201.881 68.176 202.222 68.432C202.564 68.688 202.905 68.9013 203.246 69.072C203.545 69.2427 203.886 69.3493 204.27 69.392C204.612 69.4347 205.017 69.456 205.486 69.456C207.919 69.456 210.287 68.7307 212.591 67.28C214.937 65.872 217.135 63.8453 219.183 61.2C221.273 58.5973 223.172 55.4187 224.878 51.664C226.585 47.952 228.036 43.792 229.231 39.184C228.676 40.0373 227.993 41.0827 227.183 42.32C226.372 43.5573 225.476 44.7947 224.495 46.032C223.513 47.2267 222.489 48.3147 221.423 49.296C220.399 50.2773 219.396 50.9387 218.415 51.28C217.732 51.2373 217.007 51.088 216.239 50.832C215.513 50.6187 214.809 50.2987 214.127 49.872C213.487 49.4453 212.911 48.9333 212.399 48.336C211.887 47.7387 211.545 47.056 211.375 46.288C211.375 45.0507 211.417 44.0693 211.503 43.344C211.588 42.576 211.737 41.744 211.951 40.848C212.335 39.2267 212.889 37.392 213.615 35.344C214.383 33.296 215.257 31.2907 216.239 29.328C217.263 27.3227 218.372 25.4667 219.567 23.76C220.804 22.0107 222.084 20.6453 223.407 19.664C223.748 19.664 224.175 19.7067 224.687 19.792C225.199 19.8347 225.732 19.9413 226.287 20.112C226.841 20.2827 227.375 20.496 227.887 20.752C228.399 20.9653 228.847 21.264 229.231 21.648C228.761 22.0747 227.737 23.504 226.159 25.936C224.58 28.368 222.831 31.8667 220.911 36.432C220.697 36.9013 220.441 37.584 220.143 38.48C219.844 39.376 219.545 40.3147 219.247 41.296C218.991 42.2773 218.756 43.2373 218.543 44.176C218.329 45.1147 218.223 45.8613 218.223 46.416C218.223 46.7573 218.265 47.0133 218.351 47.184C218.479 47.3547 218.585 47.4827 218.671 47.568C219.439 47.44 220.463 46.8213 221.743 45.712C223.023 44.56 224.473 42.7893 226.095 40.4C227.119 38.864 228.057 37.3493 228.911 35.856C229.764 34.32 230.596 32.784 231.407 31.248C232.26 29.712 233.135 28.1333 234.031 26.512C234.927 24.8907 235.887 23.2267 236.911 21.52C237.465 21.52 238.063 21.584 238.703 21.712C239.343 21.84 239.961 22.0107 240.559 22.224C241.156 22.3947 241.668 22.608 242.095 22.864C242.564 23.0773 242.905 23.312 243.119 23.568C241.796 26.384 240.559 29.136 239.407 31.824C238.255 34.512 237.231 37.264 236.335 40.08ZM238.911 71.184C238.314 71.0133 237.972 70.3733 237.887 69.264C237.716 68.7093 237.588 68.048 237.503 67.28C237.46 66.512 237.439 65.6373 237.439 64.656C237.439 63.76 237.588 62.5227 237.887 60.944C238.186 59.408 238.591 57.6587 239.103 55.696C239.658 53.7333 240.319 51.6213 241.087 49.36C241.855 47.056 242.708 44.7307 243.647 42.384C244.799 39.44 245.802 36.9013 246.655 34.768C247.508 32.592 248.212 30.7147 248.767 29.136C249.364 27.5573 249.834 26.256 250.175 25.232C250.559 24.208 250.858 23.3333 251.071 22.608C251.242 22.096 251.498 21.4773 251.839 20.752C252.18 20.0267 252.564 19.3013 252.991 18.576C253.46 17.808 253.93 17.104 254.399 16.464C254.868 15.7813 255.295 15.2693 255.679 14.928C257.172 15.1413 258.58 15.5253 259.903 16.08C261.226 16.6347 262.036 17.168 262.335 17.68C261.738 18.2347 261.055 19.1093 260.287 20.304C259.519 21.456 258.772 22.736 258.047 24.144C257.322 25.5093 256.66 26.9173 256.063 28.368C255.466 29.8187 255.018 31.0987 254.719 32.208C255.146 31.4827 255.7 30.6933 256.383 29.84C257.066 28.9867 258.111 27.8133 259.519 26.32C261.098 24.6987 262.57 23.4613 263.935 22.608C265.343 21.712 266.559 21.264 267.583 21.264C269.204 21.264 270.527 21.712 271.551 22.608C272.618 23.504 273.151 24.656 273.151 26.064C273.151 29.136 272.639 32.1867 271.615 35.216C270.591 38.2027 269.119 40.912 267.199 43.344C266.474 44.2827 265.62 45.1787 264.639 46.032C263.658 46.8853 262.634 47.6533 261.567 48.336C260.5 48.976 259.455 49.488 258.431 49.872C257.407 50.256 256.49 50.448 255.679 50.448C254.911 50.448 254.228 50.2987 253.631 50C253.076 49.6587 252.692 49.2533 252.479 48.784C254.143 47.8027 255.764 46.4373 257.343 44.688C258.922 42.9387 260.372 40.9333 261.695 38.672C263.06 36.368 264.234 33.8933 265.215 31.248C266.239 28.6027 267.007 25.9147 267.519 23.184C265.898 24.0373 264.426 24.976 263.103 26C261.823 26.9813 260.543 28.2827 259.263 29.904C257.727 31.7813 256.511 33.296 255.615 34.448C254.719 35.6 253.972 36.5813 253.375 37.392C252.82 38.2027 252.351 38.9707 251.967 39.696C251.626 40.3787 251.242 41.232 250.815 42.256C250.218 43.6213 249.514 45.4347 248.703 47.696C247.935 49.9147 247.124 52.4107 246.271 55.184C245.46 57.9573 244.628 60.9013 243.775 64.016C242.964 67.1733 242.175 70.3093 241.407 73.424C240.938 73.3387 240.532 72.9973 240.191 72.4C239.85 72.016 239.594 71.7387 239.423 71.568C239.295 71.3973 239.124 71.2693 238.911 71.184ZM275.842 38.736C275.842 36.304 276.333 33.9573 277.314 31.696C278.338 29.392 279.661 27.3653 281.282 25.616C282.946 23.824 284.823 22.3947 286.914 21.328C289.047 20.2187 291.245 19.664 293.506 19.664C295.725 19.664 297.431 20.2187 298.626 21.328C299.821 22.4373 300.418 24.016 300.418 26.064C300.418 27.0453 300.269 28.0053 299.97 28.944C299.714 29.84 299.351 30.6507 298.882 31.376C298.455 32.1013 297.943 32.6987 297.346 33.168C296.749 33.5947 296.151 33.808 295.554 33.808C295.042 33.808 294.509 33.6587 293.954 33.36C293.442 33.0187 293.015 32.592 292.674 32.08C295.533 29.4773 296.962 27.1093 296.962 24.976C296.962 23.7387 296.471 23.12 295.49 23.12C294.637 23.12 293.57 23.5253 292.29 24.336C291.01 25.1467 289.773 26.2133 288.578 27.536C286.743 29.584 285.335 31.8667 284.354 34.384C283.415 36.8587 282.946 39.4613 282.946 42.192C282.946 45.648 283.714 47.7173 285.25 48.4C285.89 48.3147 286.637 48.1227 287.49 47.824C288.343 47.5253 289.261 47.1413 290.242 46.672C291.223 46.16 292.226 45.584 293.25 44.944C294.317 44.304 295.341 43.6213 296.322 42.896C296.493 43.024 296.642 43.216 296.77 43.472C296.898 43.728 296.962 43.9627 296.962 44.176C296.237 45.072 295.405 45.9467 294.466 46.8C293.527 47.6533 292.546 48.4427 291.522 49.168C290.498 49.8507 289.495 50.4267 288.514 50.896C287.575 51.408 286.743 51.728 286.018 51.856C284.61 51.728 283.287 51.28 282.05 50.512C280.813 49.7867 279.725 48.8267 278.786 47.632C277.89 46.4373 277.165 45.072 276.61 43.536C276.098 42 275.842 40.4 275.842 38.736ZM322.557 0.271999C324.221 0.399998 325.821 0.826664 327.357 1.552C328.936 2.27733 330.322 3.19467 331.517 4.304C332.712 5.41333 333.672 6.69333 334.397 8.144C335.122 9.59467 335.485 11.1093 335.485 12.688C335.485 14.3093 335.186 15.824 334.589 17.232C334.034 18.64 333.202 20.0693 332.093 21.52C330.984 22.9707 329.618 24.4853 327.997 26.064C326.376 27.6 324.541 29.3493 322.493 31.312C320.488 33.1893 318.973 35.1093 317.949 37.072C316.925 38.992 316.413 40.7413 316.413 42.32C316.413 42.5333 316.413 42.7467 316.413 42.96C316.456 43.1733 316.498 43.408 316.541 43.664C315.816 43.6213 315.048 43.4507 314.237 43.152C313.426 42.8533 312.637 42.4693 311.869 42C311.144 41.488 310.482 40.9547 309.885 40.4C309.33 39.8027 308.925 39.2053 308.669 38.608C308.669 37.6267 308.904 36.4533 309.373 35.088C309.842 33.68 310.546 32.2293 311.485 30.736C312.466 29.2 313.704 27.664 315.197 26.128C316.733 24.592 318.546 23.2053 320.637 21.968C324.008 19.9627 326.525 18.0213 328.189 16.144C329.853 14.2667 330.685 12.5813 330.685 11.088C330.685 10.4053 330.536 9.744 330.237 9.104C329.981 8.464 329.64 7.888 329.213 7.376C328.786 6.864 328.274 6.45866 327.677 6.16C327.122 5.81866 326.568 5.648 326.013 5.648C325.373 5.648 324.648 5.968 323.837 6.608C323.069 7.248 322.344 8.03733 321.661 8.976C320.978 9.91467 320.402 10.9387 319.933 12.048C319.464 13.1573 319.229 14.16 319.229 15.056C319.229 15.6533 319.293 16.0373 319.421 16.208C319.08 16.2933 318.802 16.336 318.589 16.336C318.376 16.336 318.162 16.336 317.949 16.336C317.096 16.336 316.242 16.2507 315.389 16.08C314.578 15.9093 313.81 15.696 313.085 15.44C312.402 15.184 311.805 14.8853 311.293 14.544C310.824 14.16 310.525 13.776 310.397 13.392C310.696 11.984 311.293 10.5333 312.189 9.04C313.085 7.54667 314.109 6.18133 315.261 4.944C316.413 3.664 317.629 2.59733 318.909 1.744C320.189 0.890664 321.405 0.399998 322.557 0.271999ZM308.413 54.928C308.072 54.928 307.666 54.8427 307.197 54.672C306.77 54.544 306.344 54.3307 305.917 54.032C305.533 53.7333 305.192 53.3493 304.893 52.88C304.594 52.4107 304.445 51.856 304.445 51.216C304.445 50.832 304.509 50.2987 304.637 49.616C304.765 48.8907 304.957 48.1867 305.213 47.504C305.512 46.7787 305.874 46.16 306.301 45.648C306.728 45.0933 307.261 44.816 307.901 44.816C308.285 44.816 308.754 44.944 309.309 45.2C309.906 45.4133 310.482 45.712 311.037 46.096C311.592 46.4373 312.125 46.864 312.637 47.376C313.149 47.8453 313.533 48.336 313.789 48.848C313.32 49.36 312.872 49.9573 312.445 50.64C312.061 51.3653 311.677 52.048 311.293 52.688C310.909 53.328 310.482 53.8613 310.013 54.288C309.544 54.7147 309.01 54.928 308.413 54.928Z" fill="#47BB73"/>
</g>
<defs>
<filter id="filter0_i_64_12" x="0.503906" y="0.271973" width="334.981" height="73.152" filterUnits="userSpaceOnUse" color-interpolation-filters="sRGB">
<feFlood flood-opacity="0" result="BackgroundImageFix"/>
<feBlend mode="normal" in="SourceGraphic" in2="BackgroundImageFix" result="shape"/>
<feColorMatrix in="SourceAlpha" type="matrix" values="0 0 0 0 0 0 0 0 0 0 0 0 0 0 0 0 0 0 127 0" result="hardAlpha"/>
<feOffset/>
<feGaussianBlur stdDeviation="2"/>
<feComposite in2="hardAlpha" operator="arithmetic" k2="-1" k3="1"/>
<feColorMatrix type="matrix" values="0 0 0 0 0.616667 0 0 0 0 1 0 0 0 0 0.765965 0 0 0 1 0"/>
<feBlend mode="normal" in2="shape" result="effect1_innerShadow_64_12"/>
</filter>
</defs>
</svg>
